<?xml version="1.0" encoding="UTF-8"?>
<svg id="Layer_1" data-name="Layer 1" xmlns="http://www.w3.org/2000/svg" viewBox="0 0 2046.889648 376.595544">
  <text transform="translate(-.000061 294.99508)" style="fill: #231f20; font-family: UberMove-Bold, &apos;Uber Move&apos;; font-size: 300px; font-weight: 700;"><tspan x="0" y="0" style="letter-spacing: -.01999em;">B</tspan><tspan x="176.701172" y="0" style="letter-spacing: -.054992em;">A</tspan><tspan x="375" y="0" style="letter-spacing: .000002em;">C</tspan><tspan x="591.897949" y="0" style="letter-spacing: -.079987em;">K</tspan><tspan x="756.898926" y="0" style="letter-spacing: -.000003em;">G</tspan><tspan x="992.097168" y="0" style="letter-spacing: -.019987em;">R</tspan><tspan x="1164.898926" y="0">OUND</tspan></text>
  <path d="m1167.398345,73.888704c5.307526,8.328739,10.615052,16.657477,15.922579,24.986216,5.172881,8.117449,18.160277.602112,12.95206-7.570787-5.307526-8.328739-10.615052-16.657477-15.922579-24.986216-5.172881-8.117449-18.160277-.602112-12.95206,7.570787h0Z" style="fill: #231f20; stroke-width: 0px;"/>
  <path d="m1232.423302,73.919065c-5.800989-22.409398-11.601979-44.818795-17.402968-67.228193-2.417287-9.338054-16.888968-5.379413-14.464186,3.987594,5.800989,22.409398,11.601979,44.818795,17.402968,67.228193,2.417287,9.338054,16.888968,5.379413,14.464186-3.987594h0Z" style="fill: #231f20; stroke-width: 0px;"/>
  <path d="m1272.787671,63.488203V27.871764c0-9.651784-15-9.667771-15,0v35.616438c0,9.651784,15,9.667771,15,0h0Z" style="fill: #231f20; stroke-width: 0px;"/>
  <path d="m1311.196996,64.859868c.689182-18.689017,2.947532-37.182939,6.818996-55.47983,1.992441-9.416457-12.46384-13.441405-14.464186-3.987594-4.142256,19.576675-6.6174,39.470545-7.354811,59.467424-.356004,9.653991,14.644539,9.639271,15,0h0Z" style="fill: #231f20; stroke-width: 0px;"/>
  <path d="m1347.619307,79.147909c1.678647-11.857829,4.753294-23.352918,9.218481-34.465184,1.521332-3.786055-1.660646-8.202197-5.238296-9.22589-4.263505-1.21994-7.722393,1.496625-9.22589,5.238296-4.465274,11.112484-7.539867,22.607588-9.218481,34.465184-.571699,4.038439.990839,8.010542,5.238296,9.22589,3.507156,1.003522,8.658511-1.230377,9.22589-5.238296h0Z" style="fill: #231f20; stroke-width: 0px;"/>
  <path d="m1380.476424,98.36643c9.426476-19.952398,18.852952-39.904796,28.279428-59.857194,4.101046-8.680413-8.826649-16.302771-12.95206-7.570787-9.426476,19.952398-18.852952,39.904796-28.279428,59.857194-4.101046,8.680413,8.826649,16.302771,12.95206,7.570787h0Z" style="fill: #231f20; stroke-width: 0px;"/>
  <path d="m417.550767,292.458682c-6.495165,7.675848-12.99033,15.351696-19.485495,23.027544-6.199921,7.326935,4.359888,17.988835,10.606602,10.606602,6.495165-7.675848,12.99033-15.351696,19.485495-23.027544,6.199921-7.326935-4.359888-17.988835-10.606602-10.606602h0Z" style="fill: #231f20; stroke-width: 0px;"/>
  <path d="m440.830152,302.259311c-7.761757,18.457198-15.523514,36.914397-23.285271,55.371595-1.581782,3.761425,1.70489,8.214857,5.238296,9.22589,4.313378,1.234211,7.662515-1.520642,9.22589-5.238296,7.761757-18.457198,15.523514-36.914397,23.285271-55.371595,1.581782-3.761425-1.70489-8.214857-5.238296-9.22589-4.313378-1.234211-7.662515,1.520642-9.22589,5.238296h0Z" style="fill: #231f20; stroke-width: 0px;"/>
  <path d="m467.670094,308.075509c-2.124695,9.676958-3.406367,19.506642-3.814286,29.405861-.397753,9.65253,14.603002,9.634213,15,0,.354294-8.59788,1.432849-17.012349,3.278471-25.418267,2.065664-9.408103-12.391663-13.426934-14.464186-3.987594h0Z" style="fill: #231f20; stroke-width: 0px;"/>
  <path d="m498.848291,310.06304c-.226124,19.956111,1.390816,39.803486,4.611716,59.495395,1.554351,9.502978,16.011272,5.470971,14.464186-3.987594-3.00221-18.354887-4.286588-36.914058-4.075901-55.507801.109404-9.655257-14.890521-9.661801-15,0h0Z" style="fill: #231f20; stroke-width: 0px;"/>
  <path d="m527.221988,309.494092c2.314423,8.92481,5.370425,17.504258,8.954585,25.992772,1.571247,3.721251,7.095303,4.56256,10.261424,2.690637,3.855892-2.279741,4.279085-6.499436,2.690637-10.261424-3.064851-7.258614-5.466095-14.788383-7.442459-22.409579-2.421289-9.336901-16.893071-5.3786-14.464186,3.987594h0Z" style="fill: #231f20; stroke-width: 0px;"/>
  <path d="m555.409793,299.690209c7.357187,17.854694,16.161908,34.946368,26.713136,51.129528,5.252382,8.055949,18.24499.547351,12.95206-7.570787-9.810995-15.047814-18.354133-30.930079-25.20101-47.546335-1.536305-3.728362-4.985842-6.425739-9.22589-5.238296-3.533433.989553-6.796192,5.445129-5.238296,9.22589h0Z" style="fill: #231f20; stroke-width: 0px;"/>
  <path d="m579.464008,287.756561l6.82784,10.972268c2.07155,3.328959,6.791696,4.927616,10.261424,2.690637,3.336922-2.151358,4.908195-6.697831,2.690637-10.261424l-6.82784-10.972268c-2.07155-3.328959-6.791696-4.927616-10.261424-2.690637-3.336922,2.151358-4.908195,6.697831-2.690637,10.261424h0Z" style="fill: #231f20; stroke-width: 0px;"/>
  <path d="m1403.409993,118.061419c2.71105-3.674128,5.422099-7.348255,8.133149-11.022383,2.338046-3.168618.629869-8.507049-2.690637-10.261424-3.914715-2.068322-7.765847-.691473-10.261424,2.690637l-8.133149,11.022383c-2.338046,3.168618-.629869,8.507049,2.690637,10.261424,3.914715,2.068322,7.765847.691473,10.261424-2.690637h0Z" style="fill: #231f20; stroke-width: 0px;"/>
  <path d="m1208.441008,171.049986c46.753242-22.598376,106.982817-29.53678,150.156432,4.883725,3.190615,2.543743,7.481244,3.057664,10.606602,0,2.64679-2.589462,3.160511-8.086859,0-10.606602-22.423569-17.877367-50.052174-27.250633-78.634799-28.323607-31.194965-1.17104-61.824633,7.621221-89.699023,21.094424-8.688781,4.199759-1.090949,17.138747,7.570787,12.95206h0Z" style="fill: #231f20; stroke-width: 0px;"/>
  <path d="m1213.371237,234.297847c54.217784,24.53958,113.492313,8.87986,164.504966-15.90523,8.68086-4.217697,1.084549-17.157356-7.570787-12.95206-45.557384,22.134584-100.630679,37.962205-149.363392,15.90523-3.717118-1.68241-8.028269-1.037185-10.261424,2.690637-1.915509,3.197573-.991311,8.594933,2.690637,10.261424h0Z" style="fill: #231f20; stroke-width: 0px;"/>
  <path d="m1269.560666,224.667073c-13.572264-20.014981-13.615313-48.463088,1.596705-67.745607,2.527291-3.203554,3.067891-7.470791,0-10.606602-2.577914-2.634986-8.102639-3.173984-10.606602,0-19.25551,24.407987-21.602676,59.879085-3.942164,85.922996,5.387584,7.945057,18.389588.447921,12.95206-7.570787h0Z" style="fill: #231f20; stroke-width: 0px;"/>
  <path d="m1261.09602,154.180176c2.362957,11.689013,4.15357,23.462069,5.222979,35.341383,1.027082,11.40913,1.700971,22.599259-3.446165,33.181046-4.205304,8.645513,8.725851,16.259279,12.95206,7.570787,6.094529-12.529494,6.81557-25.124389,5.662137-38.822903-1.166375-13.852219-3.172707-27.633906-5.926826-41.257908-1.911246-9.454501-16.372591-5.452854-14.464186,3.987594h0Z" style="fill: #231f20; stroke-width: 0px;"/>
  <path d="m1271.325446,200.477955c-.322303-8.557959,1.169761-16.486852,4.416203-24.412559l-14.464186-3.987594c-1.762414,13.071127-3.093469,26.168212-3.843419,39.337962-.549187,9.644192,14.452599,9.612831,15,0,.672959-11.817723,1.725697-23.617991,3.307604-35.350368,1.289164-9.561219-10.759288-13.032552-14.464186-3.987594-3.694132,9.018675-5.318665,18.664758-4.952018,28.400153.362394,9.622474,15.364176,9.669775,15,0h0Z" style="fill: #231f20; stroke-width: 0px;"/>
</svg>