<?xml version="1.0" encoding="UTF-8"?>
<svg id="Layer_1" data-name="Layer 1" xmlns="http://www.w3.org/2000/svg" viewBox="0 0 3840 2160">
  <rect width="3840" height="2160" style="fill: #212121; stroke-width: 0px;"/>
  <path d="m149.917364,2020.445052c-1.757533-13.366236,18.344846-12.095455,26.502843-12.021384,12.587853.114291,24.92927-2.576496,35.415713-9.835053,21.068808-14.583509,28.920028-42.233315,17.063141-65.277807-4.4179-8.586424-17.36556-1.007084-12.95206,7.570787,10.869244,21.124955-3.354439,45.071872-24.978317,51.041945-12.42165,3.429456-25.743248-.794487-38.004522,3.656899-10.144069,3.682747-19.562826,13.335054-18.046798,24.864614.52795,4.015117,3.069126,7.5,7.5,7.5,3.642093,0,8.031831-3.455365,7.5-7.5h0Z" style="fill: #434343; stroke-width: 0px;"/>
  <path d="m137.898911,2016.82789c.371148,10.587737,9.361664,15.714674,18.22004,19.132241,9.437266,3.640903,19.86499,5.259727,29.965282,4.909714,19.807887-.686417,38.799952-8.812746,52.640359-23.059662,6.26353-6.447498,11.530239-14.025835,15.188515-22.241643,1.869746-4.199102,3.472889-8.502846,4.574927-12.969544,1.124742-4.558719,1.39665-9.679268,3.557397-13.911711,5.630802-11.029541,23.423849-5.888717,28.913358,2.547979,10.742743,16.510269-2.433454,35.219729-11.65837,48.56613-5.264689,7.616833-10.140799,17.263226-7.07514,26.708614,2.748765,8.469029,10.46569,13.538198,19.186763,13.800354,19.554709.587817,32.047428-17.652196,37.423228-34.203001,2.97517-9.159836,4.256153-18.789387,5.371709-28.321886,1.275545-10.89961,2.601782-21.918158,2.303228-32.910707-.583516-21.48469-8.683183-44.305299-28.900442-54.647107-6.551287-3.351204-17.859278-6.072567-15.130028-15.608877,2.729031-9.535547,12.072067-16.199029,21.257308-18.562812,9.341831-2.404082,5.382068-16.875429-3.987594-14.464186-16.487629,4.243023-34.577616,20.068369-32.630901,38.68492,1.992977,19.058955,24.463401,19.351338,34.424876,32.19187,12.438882,16.033958,10.580588,37.958278,8.590629,56.879039-1.746323,16.60424-2.995704,38.039825-15.795318,50.445219-3.299333,3.197716-11.334413,7.932377-16.001416,4.742519-6.516977-4.4543,3.032089-16.002066,5.822433-19.833473,10.731432-14.735275,19.098718-32.711227,13.906894-51.320058-4.25483-15.250403-17.8233-25.39711-33.597263-25.808106-7.128732-.185741-14.329428,1.994509-19.782865,6.651158-6.96629,5.948464-8.410908,14.46956-10.326471,22.945217-4.183632,18.511026-16.679281,34.39921-33.747178,42.743714-9.905091,4.842605-21.141405,6.583212-32.083492,5.828109-5.469588-.377451-10.878842-1.596874-16.05888-3.378559-2.129341-.732391-9.482109-2.982957-9.571586-5.535466-.337413-9.625379-15.338995-9.670519-15,0h0Z" style="fill: #434343; stroke-width: 0px;"/>
  <path d="m236.418915,1942.928201c-8.761551-31.923939,8.354337-67.803022,37.705659-82.550554,7.500182-3.768456,17.498402-4.304553,22.719686-11.535956,3.04076-4.211408,3.655987-9.218313,3.838568-14.27852.209583-5.808546.369318-11.578406.969037-17.366258,1.185766-11.443746,3.673933-22.781453,7.129414-33.749821,2.285923-7.255964,5.515268-20.661632,14.269486-22.791698,11.645208-2.833498,6.310269,14.069457,5.107024,19.981831-2.640969,12.976904-6.771004,25.624175-12.391009,37.615051-4.072664,8.68946,8.854128,16.31416,12.95206,7.570787,5.661552-12.079521,10.205343-24.633433,13.143549-37.657678,2.452235-10.87007,7.247079-26.880059-1.15401-36.275289-6.903053-7.719925-19.428193-8.301775-27.954747-3.002197-10.303609,6.404086-14.634508,18.718852-18.150187,29.678893-4.122043,12.850364-6.727495,26.137604-8.048206,39.562638-.625335,6.356532-.025053,13.115361-1.024951,19.392963-.73514,4.615392-6.109813,4.608143-9.866368,5.98045-19.015667,6.946614-34.780518,21.015994-44.750044,38.560953-11.113636,19.558434-14.948135,43.030281-8.959148,64.851998,2.551649,9.297289,17.026912,5.350059,14.464186-3.987594h0Z" style="fill: #434343; stroke-width: 0px;"/>
  <path d="m314.534826,1872.257121c6.20645,15.069114,17.722483,26.660807,32.786879,32.963918,6.987324,2.923574,14.500394,4.598783,22.095261,4.680185,7.76804.083258,18.186704-.825548,22.81388-8.013518,4.840602-7.519512.914157-16.190462-5.248791-21.542313-5.659627-4.91477-12.983075-6.849668-19.521559-10.282523-4.460848-2.342048-11.273267-5.825925-12.446945-11.317756-1.339035-6.265566,6.000528-13.321758,8.051335-18.948483,3.27642-8.989395-.121785-18.243621-7.82945-23.652475-9.519814-6.680529-21.226489-4.679705-31.773442-2.059877-9.363383,2.325833-5.396973,16.795281,3.987594,14.464186,5.968687-1.482602,14.339222-4.137044,19.74588.222663,4.365369,3.520055.858704,8.173703-1.379365,11.897139-6.601926,10.983511-8.423437,22.551951.806707,32.712487,3.661466,4.030539,8.476629,7.119177,13.266898,9.634175,5.039213,2.645699,10.9645,4.163361,15.662241,7.370287,1.047867.715329,2.089986,1.56426,2.895538,2.55403.413054.507513.977364,2.089503,1.060033,1.380006.149228-1.28073-.479548-.482678-1.770583-.181343-1.383335.322879-2.771699.522559-4.186428.633858-5.587196.439554-11.049313-.226421-16.400516-1.860271-12.143299-3.70764-23.253858-12.75187-28.150982-24.641971-1.535691-3.72862-4.9863-6.425611-9.22589-5.238296-3.533947.989697-6.795559,5.444891-5.238296,9.22589h0Z" style="fill: #434343; stroke-width: 0px;"/>
  <path d="m357.445761,1924.415025l-5.255924,28.360157c-1.748783,9.436164,12.7047,13.481509,14.464186,3.987594,1.751975-9.453386,3.503949-18.906772,5.255924-28.360157,1.748783-9.436164-12.7047-13.481509-14.464186-3.987594h0Z" style="fill: #434343; stroke-width: 0px;"/>
  <path d="m383.005281,1926.567865c1.185497,21.774802,9.740678,42.141806,24.527661,58.181163,6.55744,7.112818,17.144212-3.515293,10.606602-10.606602-12.003809-13.020463-19.171103-29.883574-20.134263-47.574561-.522695-9.600686-15.526025-9.661856-15,0h0Z" style="fill: #434343; stroke-width: 0px;"/>
  <path d="m408.963651,1917.930977c3.146197,5.207869,6.292394,10.415738,9.438591,15.623607,4.985472,8.252403,17.961433.721178,12.95206-7.570787-3.146197-5.207869-6.292394-10.415738-9.438591-15.623607-4.985472-8.252403-17.961433-.721178-12.95206,7.570787h0Z" style="fill: #434343; stroke-width: 0px;"/>
  <path d="m419.907863,1889.78637c17.747651,3.081358,35.495302,6.162716,53.242954,9.244074,9.441001,1.639152,13.495543-12.81341,3.987594-14.464186-17.747651-3.081358-35.495302-6.162716-53.242954-9.244074-9.441001-1.639152-13.495543,12.81341-3.987594,14.464186h0Z" style="fill: #434343; stroke-width: 0px;"/>
  <path d="m412.50741,1868.617112c10.316607-1.236745,19.286855-5.065075,27.101697-11.972048,7.247549-6.405584-3.393896-16.98139-10.606602-10.606602-4.574859,4.043387-10.394002,6.847257-16.495095,7.57865-4.02114.48205-7.5,3.101983-7.5,7.5,0,3.679259,3.451122,7.985376,7.5,7.5h0Z" style="fill: #434343; stroke-width: 0px;"/>
  <path d="m394.488694,1856.500312c5.768753-17.221089,14.206176-33.245863,24.893499-47.921778,2.402556-3.299208.53517-8.329001-2.690637-10.261424-3.768934-2.257783-7.889776-.566129-10.261424,2.690637-11.442285,15.712635-20.233822,33.080685-26.405624,51.504971-3.073127,9.174011,11.408605,13.109222,14.464186,3.987594h0Z" style="fill: #434343; stroke-width: 0px;"/>
  <path d="m145.24597,2041.481835c-13.069019-2.115486-24.352536-11.857408-26.664859-25.232533-2.243397-12.97644,5.109902-26.065451,16.425898-32.182999,8.494706-4.592329.930153-17.547759-7.570787-12.95206-16.937201,9.156432-26.585922,28.746072-23.553488,47.738132,2.960682,18.54268,18.936035,34.108821,37.375642,37.093646,4.026335.651744,8.026204-1.045578,9.22589-5.238296,1.021319-3.569353-1.245352-8.579551-5.238296-9.22589h0Z" style="fill: #434343; stroke-width: 0px;"/>
  <path d="m144.901081,2071.648688c-25.383472-4.644246-47.341678-23.548322-54.324102-48.649258-7.103404-25.535845,2.464907-53.542506,22.487859-70.502368,7.376146-6.247751-3.279121-16.813132-10.606602-10.606602-23.965396,20.299195-34.781098,54.771442-26.345443,85.096564,8.282254,29.773665,34.433933,53.569843,64.800693,59.125849,9.43734,1.726688,13.484537-12.726592,3.987594-14.464186h0Z" style="fill: #434343; stroke-width: 0px;"/>
  <path d="m460.322137,1972.385143c12.270582-16.075813,27.259646-29.907265,42.335745-43.290238,8.933706-7.930403,29.352707-30.114871,41.454984-15.334742,2.586449,3.158749,7.915354,2.632957,10.606602,0,3.133654-3.065781,2.551806-7.490162,0-10.606602-6.508871-7.949079-17.35555-10.140792-27.084585-8.346533-11.395284,2.101554-20.470861,10.366811-28.874952,17.759296-18.421625,16.204201-36.454172,32.680643-51.389855,52.248031-2.476361,3.244306-.479979,8.362063,2.690637,10.261424,3.831658,2.295358,7.816682.512245,10.261424-2.690637h0Z" style="fill: #434343; stroke-width: 0px;"/>
  <path d="m448.356669,1967.941243c-3.97179,8.797235.694214,17.699162,9.7785,20.712604,9.392877,3.115807,17.599504-2.402565,23.298082-9.529575,4.989671-6.240405,9.347246-12.285384,16.242491-16.605988,6.405073-4.01346,13.665624-6.600732,21.155074-7.649423,14.606008-2.045169,30.678197,1.743146,41.528038,12.066608,2.817736,2.681034,5.711428,5.904591,6.491468,9.849613,1.03609,5.239986-1.826545,10.471287-4.126722,14.977307-4.940264,9.677918-8.857107,19.204197-10.348173,30.043204-1.356362,9.859801-1.751382,21.906951,2.557476,31.144177,4.594152,9.848834,14.9112,11.760718,24.662118,13.169996,18.956908,2.739798,42.548265.362724,52.119292-19.062568,7.761226-15.752131-2.104324-39.12161-21.730811-37.908891-3.193133.197304-8.844515,2.966663-11.824706,1.743488-.302581-.12419.560576.878834.527576.761349-.233565-.831531,1.302647-3.130202,1.654966-3.976231,1.185932-2.847798,2.33485-5.710329,3.443066-8.589255,4.100316-10.651806,7.656061-21.511127,10.659885-32.522418,6.609949-24.230472,10.718043-49.4054,11.779042-74.511435.827296-19.576-2.258487-40.693586-19.155168-52.932625-3.305284-2.394168-8.325274-.541391-10.261424,2.690637-2.253549,3.761865-.57211,7.898067,2.690637,10.261424,11.956408,8.660574,12.296906,26.722547,11.725955,39.980565-.866817,20.128299-3.83782,40.172576-8.498941,59.763876-2.356178,9.903323-5.154602,19.700393-8.39072,29.35212-1.568995,4.679532-3.240381,9.32418-5.013451,13.930264-1.752216,4.551909-4.473111,9.26354-5.529286,14.023087-2.097954,9.454226,6.007369,16.688035,15.013889,16.849498,7.03513.126121,14.018816-4.937492,18.911308,2.280597,3.91825,5.780751,1.588892,12.407906-3.093419,16.905664-6.162958,5.920044-14.817972,7.355629-23.059931,7.14071-4.798766-.125134-9.560256-.792603-14.273277-1.672899-3.313859-.618961-7.445616-.959558-8.965073-4.3843-3.463315-7.80605-2.070617-19.41476-.272925-27.45407,4.020397-17.979288,20.931509-34.422896,10.284185-53.306572-7.430383-13.178236-23.082383-21.762708-37.521559-24.634595-16.205835-3.223268-33.401289-.89431-47.929312,7.091227-7.399424,4.0672-13.752802,9.650281-18.885466,16.326865-2.337888,3.041131-4.511665,6.722543-7.608269,9.078284-1.969346,1.498181-1.826765.676221-3.711108,1.059085-2.071314.420853.427118-2.873863-1.371246,1.109384,1.67892-3.718688,1.039476-8.026896-2.690637-10.261424-3.194949-1.913938-8.598333-.992992-10.261424,2.690637h0Z" style="fill: #434343; stroke-width: 0px;"/>
  <path d="m544.658627,1909.393504c2.489625,9.717369,12.393613,15.467934,22.134836,14.591598,11.512203-1.035657,19.543919-10.523569,22.23139-21.281247,5.546716-22.202952-7.75424-46.523566-28.175487-55.849536-3.711448-1.694943-8.033205-1.028944-10.261424,2.690637-1.921158,3.207003-.98525,8.582721,2.690637,10.261424,12.678809,5.790155,21.879406,18.192844,21.989785,32.419609.043023,5.545284-1.435042,13.088897-6.818537,16.019221-3.100265,1.687525-8.343264,1.000424-9.327015-2.839299-2.394133-9.34465-16.865233-5.384042-14.464186,3.987594h0Z" style="fill: #434343; stroke-width: 0px;"/>
  <path d="m544.222359,1845.596414c-17.945769,19.01348-47.633242,15.683808-70.556092,9.495748-2.613468-.70551-6.043222-1.148802-8.253033-2.818292-2.465745-1.862845-2.905595-5.752433-3.622457-8.57205-1.71565-6.748133-4.220404-15.64537-.113334-22.023402,6.701468-10.406977,12.797753-.743587,15.909416,6.204517,4.441312,9.91711,8.648338,21.211432,20.43066,24.074735,9.377307,2.278843,13.378356-12.182072,3.987594-14.464186-4.100992-.99661-6.116099-5.207124-8.120105-9.529231-2.35704-5.083505-4.168554-10.514483-7.34882-15.172194-3.769825-5.521159-8.968942-9.71027-15.770063-10.555011-8.584278-1.066221-16.492554,3.800058-21.260225,10.700038-5.655992,8.185598-5.502218,18.373081-3.77172,27.77486,1.59879,8.686208,3.646784,18.934025,11.529825,24.117204,6.488593,4.266315,15.514071,5.731359,23.021218,7.223207,8.285079,1.646442,16.775402,2.749184,25.231512,2.780181,18.224324.066804,36.51311-5.068903,49.312227-18.629524,6.623472-7.017545-3.963979-17.644437-10.606602-10.606602h0Z" style="fill: #434343; stroke-width: 0px;"/>
  <path d="m498.60367,1844.819671c19.686889,6.357114,42.056397-8.551903,44.245055-28.996932.799601-7.46935-4.796047-21.018676,6.412128-22.265189,9.561005-1.063323,13.484319,10.541764,12.305855,18.241941-.61704,4.031784,1.021807,8.019403,5.238296,9.22589,3.542359,1.013595,8.613776-1.238697,9.22589-5.238296,1.894244-12.37714-1.226466-25.911882-12.195909-33.26267-9.057678-6.069686-22.584571-5.177885-30.425115,2.612604-4.60057,4.571199-6.342681,10.776961-6.176415,17.146253.150772,5.775743,1.900645,11.547803-.602202,17.061035-4.059212,8.941567-14.711559,14.023431-24.039989,11.011178-9.207614-2.97324-13.151067,11.505199-3.987594,14.464186h0Z" style="fill: #434343; stroke-width: 0px;"/>
  <path d="m568.149755,1820.6776c9.190974,5.545211,16.827913,12.930861,22.599385,21.988977,5.172365,8.117839,18.159728.602458,12.95206-7.570787-7.150625-11.222646-16.581281-20.492637-27.980658-27.37025-8.286521-4.999526-15.835293,7.965817-7.570787,12.95206h0Z" style="fill: #434343; stroke-width: 0px;"/>
  <path d="m389.295111,1782.547254c17.233396-29.799585,48.325147-49.570706,82.116019-54.88691,8.177661-1.286564,16.594244-1.511174,24.843848-.904901,8.960119.658489,17.385837,3.38632,26.218797,4.719488,10.157087,1.533019,20.490005.142231,27.523478-8.07647,6.020352-7.034856,8.770721-16.234527,13.0096-24.341314,16.699017-31.936602,45.447061-59.614863,82.362177-64.736207,18.061409-2.505713,37.200012.4414,52.929822,9.896977,14.13732,8.498292,24.173259,22.301089,28.509134,38.170487,4.834038,17.692687,1.969379,36.986935-10.333012,51.025661-13.652027,15.578846-33.702298,23.698033-52.51573,31.159814-7.606038,3.016706-6.935022,14.401072,1.993797,14.732093,29.418771,1.09065,57.024555,15.664481,76.114745,37.819043,9.430457,10.944241,16.607559,24.019232,20.471891,37.950219,3.674888,13.248038,4.709134,29.788707-5.41166,40.521913-6.619894,7.020466,3.967297,17.647653,10.606602,10.606602,19.99143-21.201117,12.52492-54.345727.258325-77.509973-12.410416-23.435836-33.220089-42.762047-57.354564-53.69113-14.152966-6.409045-29.138226-10.120292-44.685338-10.696674.664599,4.910698,1.329198,9.821395,1.993797,14.732093,18.870534-7.484428,38.143873-15.365323,53.380244-29.186918,14.372698-13.038118,22.691033-31.08384,22.756272-50.532266.134197-40.005555-30.142768-72.850063-68.99573-79.284559-41.419454-6.859537-81.220331,12.253645-107.097365,44.2796-6.358668,7.86962-12.037818,16.239336-16.853112,25.141162-2.294575,4.241881-4.35605,8.58762-6.315007,12.992781-1.79354,4.033181-3.533957,8.815397-6.838099,11.887887-7.17831,6.675041-20.255025.545367-28.480678-.910032-9.274765-1.641023-18.702368-2.313581-28.110276-1.781888-42.665545,2.411266-83.536937,26.132687-105.050037,63.332634-4.841609,8.371997,8.11575,15.933621,12.95206,7.570787h0Z" style="fill: #434343; stroke-width: 0px;"/>
  <path d="m701.423622,1714.957855c-13.520627,3.964252-29.261231,6.735101-43.239991,3.508975-8.683931-2.004144-21.478973-10.32449-16.809245-21.194794,4.21218-9.805214,22.630416-8.438035,30.880238-6.848415,11.695131,2.253481,23.629846,10.08978,23.55864,23.228809-.052318,9.653754,14.94762,9.665225,15,0,.173747-32.060143-37.930693-44.113198-64.155861-37.311713-13.410515,3.478011-22.672877,14.669677-20.59338,28.826163,2.028613,13.810086,12.821796,23.431477,25.831173,27.165362,17.066037,4.898208,36.806269,1.989102,53.51602-2.910201,9.243597-2.710225,5.30983-17.190193-3.987594-14.464186h0Z" style="fill: #434343; stroke-width: 0px;"/>
  <path d="m672.655536,1706.837606c-.669877-.612975-.202115-.147694.069013.307277-.18681-.31348-.374225-.616299-.54119-.94161l.369627.77207c-.150309-.6826-.176773-.708753-.079393-.07846.249401.993766-.036635-.065575.044212-.374538.223459-.853964.034544,1.226434-.04474.359365-.03826-.418418.622473-1.08997.081502-.388927-.853395,1.105913.854366-.736602-.120887.266973-.93791.965148,1.526636-.877779-.504159.486757.779516-.523774.093075-.060193-.360422.127601,1.195932-.495237-.486286.106002-.454583-.002838.007824-.026862,1.031768-.036265,1.050225.008014.041218.098885-1.618941-.520228-.436246.011548,1.060399.476788-.117513-.297776-.320081-.174083.492121-.300502,1.086041,1.274221.540884.291949-.669941-1.207109.395473,1.053526-.268248-.221532-.547823-1.052409.176818.526678.20729.593058l1.172729-9.088694c-1.947275,2.211818-3.89455,4.423635-5.841826,6.635451-2.591124,2.943133-3.114332,7.747702,0,10.606602,2.837305,2.604593,7.838062,3.14465,10.606602,0,1.947276-2.211817,3.894552-4.423633,5.841826-6.635451,2.40883-2.736077,2.652337-5.865542,1.172729-9.088694-3.472537-7.564513-14.106194-10.196884-20.922136-5.722433-7.585463,4.979616-8.601662,16.696731-1.869329,22.857196,2.894524,2.648653,7.783557,3.075273,10.606602,0,2.648043-2.884636,3.091297-7.777891,0-10.606602h0Z" style="fill: #434343; stroke-width: 0px;"/>
  <path d="m664.152174,1673v-9.391304c0-3.923082-3.449659-7.681415-7.5-7.5-4.063515.182005-7.5,3.295377-7.5,7.5v9.391304c0,3.923082,3.449659,7.681415,7.5,7.5,4.063515-.182005,7.5-3.295377,7.5-7.5h0Z" style="fill: #434343; stroke-width: 0px;"/>
  <path d="m687.055329,1678.366345c5.501995-5.089352,9.401282-11.762668,11.150452-19.0499,2.251917-9.381733-12.2085-13.385025-14.464186-3.987594-1.18608,4.941338-3.552248,8.970815-7.292868,12.430893-7.101866,6.569234,3.525207,17.156899,10.606602,10.606602h0Z" style="fill: #434343; stroke-width: 0px;"/>
  <path d="m700.478261,1693.021739h9.391304c3.923082,0,7.681415-3.449659,7.5-7.5-.182005-4.063515-3.295377-7.5-7.5-7.5h-9.391304c-3.923082,0-7.681415,3.449659-7.5,7.5.182005,4.063515,3.295377,7.5,7.5,7.5h0Z" style="fill: #434343; stroke-width: 0px;"/>
  <path d="m618.888884,1666.821656c-8.853601-7.984496-22.912389-8.938134-31.817558-.333943-7.665221,7.406151-9.845104,22.424729-2.073944,30.681963l.7745,1.271816c.420719-1.531891.357445-1.943707-.189821-1.235449-.674052.375659-1.382224,1.114446-2.014918,1.585653-2.013154,1.49932-4.261182,2.764991-6.058346,4.543388-3.806412,3.766663-5.818662,8.766397-6.325743,14.034714-.906916,9.422411,4.051617,19.853046,13.00543,23.657368,3.755047,1.595455,7.994283,1.093917,10.261424-2.690637,1.876564-3.132561,1.032203-8.679653-2.690637-10.261424-4.458242-1.894231-6.828735-6.608389-5.28764-11.400641.790222-2.457307,2.637204-3.497676,4.666299-4.930707,3.238934-2.28747,6.387243-4.61726,8.155436-8.274622,1.976837-4.088927,1.535932-8.644671-.569424-12.598429-1.591338-2.988458-3.873842-5.041438-3.501326-8.667491.664306-6.466337,8.33611-9.034829,13.059666-4.774956,7.152534,6.450413,17.793703-4.125015,10.606602-10.606602h0Z" style="fill: #434343; stroke-width: 0px;"/>
  <path d="m639.659309,1849.899587c8.909475-3.658911,18.256866.680251,23.934166,8.01348,7.188823,9.285628,8.885362,22.036814,10.765719,33.26678,1.590571,9.499291,16.047837,5.470366,14.464186-3.987594-2.463357-14.711782-5.563131-30.478575-16.208087-41.703-9.178681-9.678332-24.077694-15.337567-36.943578-10.053851-3.73021,1.531909-6.424823,4.989114-5.238296,9.22589.990584,3.537113,5.443428,6.791663,9.22589,5.238296h0Z" style="fill: #434343; stroke-width: 0px;"/>
  <path d="m633.191795,1847.310968c3.35904,13.508372,6.71808,27.016743,10.07712,40.525115,2.328177,9.362758,16.79768,5.396547,14.464186-3.987594-3.35904-13.508372-6.71808-27.016743-10.07712-40.525115-2.328177-9.362758-16.79768-5.396547-14.464186,3.987594h0Z" style="fill: #434343; stroke-width: 0px;"/>
  <path d="m546.377125,1665.876342c-30.00081-15.910775-54.277538-42.034841-67.137854-73.576008l-5.238296,9.22589c14.804205-3.055627,29.843476-3.625263,44.868155-2.039829,4.034239.425701,7.5-3.751788,7.5-7.5,0-4.409124-3.454193-7.073078-7.5-7.5-16.366175-1.726992-32.746367-.749376-48.855749,2.575643-3.644454.752225-6.700847,5.63884-5.238296,9.22589,14.349795,35.194256,40.362537,64.684444,74.031252,82.540474,8.523551,4.520421,16.111427-8.422576,7.570787-12.95206h0Z" style="fill: #434343; stroke-width: 0px;"/>
  <path d="m509.756748,1577.660658c-9.744635-23.14737-12.825903-49.120143-5.679905-73.446266,6.267056-21.334062,21.196417-40.305946,42.203222-48.663184,19.816701-7.883773,40.813105-4.087559,58.197574,7.685979,17.969936,12.170042,30.132116,31.237446,36.176914,51.834194,8.168276,27.832181,6.588647,57.401663,3.315492,85.878587-.463264,4.030465,3.778676,7.5,7.5,7.5,4.439272,0,7.035394-3.457862,7.5-7.5,6.07896-52.887845,3.068327-113.443345-43.35279-148.114267-19.286062-14.40434-44.205888-20.557289-67.623368-13.694653-24.409435,7.153335-44.036711,26.000376-54.015933,49.144306-12.752318,29.575325-11.062871,63.961484,1.314607,93.362898,1.564519,3.716353,4.964813,6.431628,9.22589,5.238296,3.509769-.982926,6.82528-5.456172,5.238296-9.22589h0Z" style="fill: #434343; stroke-width: 0px;"/>
  <path d="m538.334488,1553.996701c1.617209-15.855862,20.469042-25.370678,34.586212-20.040079,9.040645,3.413719,12.947841-11.080824,3.987594-14.464186-24.076805-9.091326-51.049673,9.756491-53.573807,34.504265-.411605,4.035566,3.741697,7.5,7.5,7.5,4.397812,0,7.087218-3.452891,7.5-7.5h0Z" style="fill: #434343; stroke-width: 0px;"/>
  <path d="m531.014983,1566.594741c18.758097,15.24954,46.765607,15.769657,65.511788.037093,9.422806-7.908005,16.483354-21.673284,11.035889-33.807389-4.614844-10.279462-19.030309-16.604081-28.726804-9.213114-3.245315,2.473679-4.868942,6.433692-2.690637,10.261424,1.816358,3.191715,7.04646,5.141181,10.261424,2.690637,4.39331-3.348716,8.556509,2.115517,8.002759,6.597584-.904385,7.320112-7.730197,13.043708-13.843212,16.242598-12.006141,6.282713-28.326844,5.216356-38.944605-3.415435-3.166357-2.574114-7.500674-3.038655-10.606602,0-2.668714,2.610912-3.135322,8.057718,0,10.606602h0Z" style="fill: #434343; stroke-width: 0px;"/>
  <path d="m576.246029,1555.178148l-3.052031-21.360871c-1.090161-7.629935-12.677941-6.635324-14.464186,0-1.074235,3.990439-2.148471,7.980879-3.222705,11.971319-2.512286,9.332338,11.953506,13.313968,14.464186,3.987594,1.074235-3.99044,2.14847-7.980879,3.222705-11.971319h-14.464186l3.052031,21.360871c.573459,4.013585,5.675646,6.213955,9.22589,5.238296,4.312548-1.185152,5.813515-5.199981,5.238296-9.22589h0Z" style="fill: #434343; stroke-width: 0px;"/>
  <path d="m543.956522,1571.586957h-3.130435c-1.923036,0-3.943219.836617-5.303301,2.196699-1.300817,1.300817-2.280378,3.435047-2.196699,5.303301.086878,1.939678.724031,3.951419,2.196699,5.303301,1.467391,1.347038,3.271168,2.196699,5.303301,2.196699h3.130435c1.923036,0,3.943219-.836617,5.303301-2.196699,1.300817-1.300817,2.280378-3.435047,2.196699-5.303301-.086878-1.939678-.724031-3.951419-2.196699-5.303301-1.467391-1.347038-3.271168-2.196699-5.303301-2.196699h0Z" style="fill: #434343; stroke-width: 0px;"/>
  <path d="m562.296676,1584.039846l3.051449,9.416899c1.207348,3.725926,5.251726,6.52439,9.22589,5.238296,3.725672-1.205679,6.533323-5.22938,5.238296-9.22589l-3.051449-9.416899c-1.207348-3.725926-5.251726-6.52439-9.22589-5.238296-3.725672,1.205679-6.533323,5.22938-5.238296,9.22589h0Z" style="fill: #434343; stroke-width: 0px;"/>
  <path d="m590.913043,1580.326087c1.043478,0,2.086957,0,3.130435,0,1.923036,0,3.943219-.836617,5.303301-2.196699,1.300817-1.300817,2.280378-3.435047,2.196699-5.303301-.086878-1.939678-.724031-3.951419-2.196699-5.303301-1.467391-1.347038-3.271168-2.196699-5.303301-2.196699-1.043478,0-2.086957,0-3.130435,0-1.923036,0-3.943219.836617-5.303301,2.196699-1.300817,1.300817-2.280378,3.435047-2.196699,5.303301.086878,1.939678.724031,3.951419,2.196699,5.303301,1.467391,1.347038,3.271168,2.196699,5.303301,2.196699h0Z" style="fill: #434343; stroke-width: 0px;"/>
  <path d="m492.242787,1669.688598c-18.460191-4.554935-31.932557-18.977535-40.378095-35.442948-4.97447-9.698222-8.264485-20.146078-11.006688-30.665977-2.299202-8.820416-6.080728-18.994378-5.3762-28.225626.112977-1.48031.439898-4.955726,1.651617-5.56589.215018-.108273,2.842909.676558,2.776865.661785,2.861949.64016,5.762586,1.153769,8.683582.51199,9.792509-2.151534,12.367048-12.673731,13.828229-21.160053,2.971813-17.259852,5.067075-35.839936.007878-52.929789-5.203602-17.577649-19.113129-31.338879-37.517667-34.32766-19.813678-3.217616-39.447818,3.699857-57.395987,11.448817-18.828707,8.129124-37.550224,17.234265-48.489273,35.452001-5.499038,9.15802-9.234082,19.504728-12.842931,29.518466-3.927504,10.897935-7.260984,22.052846-9.222558,33.484199-3.994565,23.278896-1.905967,46.44641,7.462406,68.200955,8.632558,20.04589,22.73877,37.119717,40.601405,49.611539,7.928006,5.544268,15.432765-7.453967,7.570787-12.95206-30.264174-21.164553-46.041179-58.091555-42.069362-94.539155,2.239388-20.549863,9.37741-42.23104,18.671177-60.664545,4.343303-8.614623,10.11542-15.73641,18.18114-21.11841,7.975723-5.321949,16.828411-9.252531,25.576093-13.109415,15.218486-6.709885,33.905252-14.132855,50.805495-10.327512,16.186541,3.644642,24.562527,17.618177,26.213749,33.300089.846372,8.038128.438305,16.203706-.450432,24.219029-.450601,4.063869-1.094485,8.102178-1.807759,12.127516-.326624,1.843293-.707824,8.291642-2.65286,9.243626.600271-.293798,1.805369.483014-1.165519-.453813-1.00989-.318454-2.104309-.568747-3.13899-.752738-2.231612-.396833-4.413-.502777-6.644366-.061665-4.022449.795187-7.37871,3.178295-9.666507,6.555628-4.049919,5.978646-4.491399,13.835785-3.607467,20.793856,1.395919,10.988288,4.553979,22.159372,7.693901,32.764336,3.221001,10.8788,7.331833,21.70844,13.103278,31.509303,10.355538,17.585406,26.452928,32.382835,46.617464,37.358306,9.371577,2.312377,13.369833-12.149178,3.987594-14.464186h0Z" style="fill: #434343; stroke-width: 0px;"/>
  <path d="m409.250227,1599.161067c-13.819553,1.25569-28.316363,2.246826-41.878435-1.349277-11.001283-2.917088-25.497955-11.602885-24.27629-24.945472.666656-7.280975,8.728126-9.764893,14.815475-11.215127,7.46857-1.779292,15.573206-1.556326,22.797387,1.162462,12.996477,4.891165,21.484343,19.064607,17.234706,32.69278-2.880267,9.236736,11.595288,13.187871,14.464186,3.987594,4.60686-14.773754-.647345-31.454367-11.960502-41.819444-12.448799-11.405549-30.427949-14.321973-46.52337-10.487577-8.244112,1.963986-16.822262,5.71054-21.765875,12.895196-4.474451,6.502812-4.992969,15.044153-2.854804,22.489004,4.086495,14.228716,16.647534,23.934179,30.1795,28.53171,15.838484,5.381178,33.363064,4.54876,49.768023,3.058151,9.535273-.866406,9.62622-15.87467,0-15h0Z" style="fill: #434343; stroke-width: 0px;"/>
  <path d="m376.107356,1585.318835c-.153697-5.105507,1.902255-9.755563,6.26542-12.591118l-10.261424-2.690637c1.986057,4.263441-.544499,9.348803-4.358403,11.469745-8.437896,4.692381-.881825,17.652625,7.570787,12.95206,11.42755-6.354951,15.114784-20.45392,9.739676-31.992593-1.657249-3.557594-7.103097-4.743186-10.261424-2.690637-8.700025,5.654015-14.009677,15.078062-13.694633,25.543178.289919,9.630537,15.291155,9.671571,15,0h0Z" style="fill: #434343; stroke-width: 0px;"/>
  <path d="m366.76087,1541.521739v-6.26087c0-3.923082-3.449659-7.681415-7.5-7.5-4.063515.182005-7.5,3.295377-7.5,7.5v6.26087c0,3.923082,3.449659,7.681415,7.5,7.5,4.063515-.182005,7.5-3.295377,7.5-7.5h0Z" style="fill: #434343; stroke-width: 0px;"/>
  <path d="m373.460144,1615.639197c1.06983,4.167148,2.139661,8.334295,3.209491,12.501443,1.007332,3.923707,5.369432,6.298107,9.22589,5.238296,3.973414-1.091953,6.248926-5.289336,5.238296-9.22589-1.06983-4.167148-2.139661-8.334295-3.209491-12.501443-1.007332-3.923707-5.369432-6.298107-9.22589-5.238296-3.973414,1.091953-6.248926,5.289336-5.238296,9.22589h0Z" style="fill: #434343; stroke-width: 0px;"/>
  <path d="m484.459782,1665.319637c-19.503367,1.874603-38.778265.086882-57.564-5.489868-9.273335-2.75289-13.235009,11.71899-3.987594,14.464186,19.933131,5.917366,40.851181,8.015342,61.551594,6.025682,9.523828-.915401,9.619023-15.924551,0-15h0Z" style="fill: #434343; stroke-width: 0px;"/>
  <path d="m438.830754,1670.855294c-1.67977,9.463579-3.359539,18.927159-5.039309,28.390738-1.675526,9.439673,12.777318,13.491162,14.464186,3.987594,1.67977-9.463579,3.359539-18.927159,5.039309-28.390738,1.675526-9.439673-12.777318-13.491162-14.464186-3.987594h0Z" style="fill: #434343; stroke-width: 0px;"/>
  <path d="m266.865721,1641.525324c4.503798,48.540624,46.495147,77.206312,87.771098,94.570456,3.761216,1.582285,8.214962-1.705258,9.22589-5.238296,1.23433-4.313794-1.520845-7.662017-5.238296-9.22589-34.345478-14.448603-72.966892-39.239358-76.758692-80.106271-.884339-9.531147-15.892922-9.623648-15,0h0Z" style="fill: #434343; stroke-width: 0px;"/>
  <path d="m266.320535,1605.803903c-18.759009,6.3308-37.518017,12.6616-56.277026,18.9924-9.098024,3.070406-5.194815,17.56307,3.987594,14.464186,18.759009-6.3308,37.518017-12.6616,56.277026-18.9924,9.098024-3.070406,5.194815-17.56307-3.987594-14.464186h0Z" style="fill: #434343; stroke-width: 0px;"/>
  <path d="m268.373683,1567.665646c-32.157635,4.216603-64.505281,6.715416-96.928994,7.487638-9.636414.229506-9.672225,15.230359,0,15,32.423709-.772222,64.771355-3.271035,96.928994-7.487638,4.015315-.5265,7.5-3.070164,7.5-7.5,0-3.643268-3.455225-8.030363-7.5-7.5h0Z" style="fill: #434343; stroke-width: 0px;"/>
  <path d="m274.709315,1536.856555c-16.092554,1.536725-32.290393,1.135049-48.236248-1.584695-9.441858-1.610415-13.498811,12.841941-3.987594,14.464186,17.307519,2.951991,34.735225,3.790549,52.223842,2.12051,9.525213-.909591,9.619905-15.918633,0-15h0Z" style="fill: #434343; stroke-width: 0px;"/>
  <path d="m290.416932,1505.615647c-28.587989-3.243561-56.859367-10.678916-83.329344-21.966276-3.752977-1.600349-7.996184-1.090744-10.261424,2.690637-1.878745,3.136201-1.029955,8.674885,2.690637,10.261424,29.110531,12.413348,59.450606,20.445988,90.900131,24.014216,4.031081.457362,7.5-3.774452,7.5-7.5,0-4.434534-3.457266-7.041316-7.5-7.5h0Z" style="fill: #434343; stroke-width: 0px;"/>
  <path d="m310.865903,1486.726795c-12.978717-10.396894-26.806045-19.462162-41.678963-26.919754-8.605857-4.315157-16.210582,8.619886-7.570787,12.95206,13.677679,6.858275,26.695029,15.002986,38.643148,24.574296,3.184715,2.551187,7.48599,3.053021,10.606602,0,2.652147-2.594703,3.154376-8.079718,0-10.606602h0Z" style="fill: #434343; stroke-width: 0px;"/>
  <path d="m756.246499,1763.701531c13.290295-20.809794,27.88698-41.256428,39.526931-63.049137,9.495799-17.778354,17.592881-38.754338,13.203456-59.179629-4.192232-19.507695-20.215376-31.110973-38.138133-37.138148-15.932516-5.357884-35.48653-6.804629-48.54865-18.382137-13.727517-12.167277-14.934968-30.636892-13.147753-47.778646,2.020802-19.382169,8.459146-37.905677,11.513976-57.087465,3.148229-19.768253,2.318894-41.570796-11.539836-57.350478-14.167254-16.130971-38.351785-19.719583-58.180367-24.262824-41.246292-9.450593-87.266479-17.237815-128.095547-1.825409-10.302797,3.889163-19.367794,9.269056-28.56194,15.239577-5.726875,3.718934-17.238883,11.580764-23.021389,3.795621-3.940406-5.305075-1.826086-13.929815.250586-19.500316,3.087014-8.280663,9.384816-15.029316,15.713859-20.995702,32.88393-30.999666,80.754765-36.821881,123.930052-33.869613,12.911261.882855,25.762208,2.46972,38.563473,4.344313,11.475035,1.680383,23.194259,3.020944,34.474825,5.771652,8.896128,2.169275,17.324643,5.730277,22.397313,13.740076,4.577546,7.227994,7.106444,15.54155,11.691736,22.761784,5.023363,7.910043,12.352906,13.982969,21.906026,15.094746,10.254276,1.193376,19.810502-3.738883,27.183066-10.528728,7.769922-7.155796,12.310723-16.356597,16.551058-25.842042,3.939495-8.812478,7.869329-18.877214,15.665999-25.061668,12.003189-9.521138,29.690054-4.165638,39.481761,5.958794,12.492987,12.917501,9.54157,32.364339.038057,46.099234-5.245119,7.580476-12.611741,13.279339-20.943474,17.089873-3.712284,1.69782-4.549629,6.994791-2.690637,10.261424,2.166898,3.807686,6.599672,4.365346,10.261424,2.690637,18.224653-8.335081,32.743287-26.119761,35.955753-46.074038,3.095332-19.226694-4.669927-37.398906-21.063831-48.024861-14.796804-9.590771-35.268354-11.264462-49.708682-.141563-8.475116,6.528096-13.68446,15.832856-18.053011,25.403655-4.397441,9.634093-8.131859,19.694931-16.101018,27.033955-6.088145,5.606745-14.910877,9.181464-21.854755,2.977827-6.100252-5.449945-8.670223-14.552103-12.246758-21.659125-4.521258-8.984305-10.907479-16.579194-20.061568-21.095143-9.631486-4.751462-20.128782-6.470732-30.632257-8.122451-48.989723-7.703857-100.866339-15.190977-148.663662,2.481985-20.46363,7.566385-39.779242,19.23514-54.134878,35.878399-10.998643,12.751317-20.308533,32.559251-11.865723,49.13099,4.531367,8.894268,14.405523,13.29535,24.106628,12.12659,11.555185-1.392135,20.559627-9.370078,30.210841-15.10071,18.911978-11.229425,40.805365-15.335258,62.584873-15.431196,22.375654-.098563,44.526851,3.637377,66.319632,8.413718,11.043026,2.420309,22.170444,4.864694,33.024847,8.039573,9.759562,2.854641,19.878821,6.88575,26.174223,15.303102,12.084593,16.157866,7.380248,38.890208,3.202956,56.905171-4.509407,19.44724-9.862046,39.363367-9.435297,59.487729.415231,19.581222,7.794655,37.844069,24.376711,49.112769,15.730388,10.68993,35.345104,12.08626,52.714458,18.785183,8.05593,3.10697,15.592654,7.888205,20.113303,15.437154,4.637486,7.744053,5.322813,17.017641,3.862594,25.780137-3.801108,22.809731-17.832258,42.438607-29.997937,61.48749-7.088458,11.099028-14.176916,22.198055-21.265374,33.297083-5.211178,8.159605,7.765903,15.691214,12.95206,7.570787h0Z" style="fill: #434343; stroke-width: 0px;"/>
  <path d="m819.753938,1424.022906c17.981968,9.63338,36.552339,19.477292,57.017197,22.328345,18.720169,2.607992,38.333643-.713758,53.199007-12.980033,14.388329-11.872646,21.248139-30.162262,27.423168-47.172298,7.169866-19.750461,13.936251-40.709462,10.281079-61.939441-.775244-4.502776-2.249999-8.709131-3.902332-12.949939-.977787-2.509546-4.26813-8.645742-2.538244-11.256283,1.276215-1.925913,6.632649-1.448606,8.450347-1.156213,4.138518.665717,8.037505,2.956955,11.095877,5.745974,14.508703,13.230913,11.195866,36.849438,8.907098,54.246917-2.751186,20.91243-7.980445,41.55665-15.254202,61.346714-3.634105,9.887487-7.839627,19.54735-12.598813,28.945666-4.09305,8.082848-8.628924,16.284496-16.719518,20.948926-9.647221,5.561865-21.848208,7.776099-32.720549,9.540889-10.911686,1.771176-22.078496,2.233115-33.113308,1.72979-22.438523-1.023476-44.628649-6.734413-64.749032-16.719415-8.619732-4.277654-16.227542,8.656033-7.570787,12.95206,38.859028,19.284299,84.233001,24.248075,126.209754,12.885154,10.040126-2.717818,20.053414-6.329654,27.764137-13.576353,7.741779-7.275886,12.555098-17.24351,17.039511-26.701738,9.596941-20.241234,17.028038-41.510442,21.89273-63.381598,4.712883-21.18864,9.228479-44.956637,5.25636-66.581655-3.479288-18.941949-19.204636-38.032071-40.145604-36.49958-9.644426.705793-18.500163,6.383488-18.968,16.826425-.45558,10.169338,6.163249,19.16641,7.414063,29.119065,2.661518,21.177545-6.720822,43.486073-14.356902,62.781688-3.872154,9.784546-8.695608,19.693546-16.270082,27.166302-7.545149,7.443825-17.76206,11.457944-28.245924,12.349722-24.323724,2.069024-46.47966-9.8367-67.226243-20.951152-8.507444-4.557646-16.09227,8.386894-7.570787,12.95206h0Z" style="fill: #434343; stroke-width: 0px;"/>
  <path d="m795.531903,1473.35098c-5.418956,13.271753-10.837912,26.543505-16.256868,39.815258-2.463145,6.032575-4.939435,12.059944-7.389486,18.097844-2.539116,6.257393-4.363157,12.78141-.64042,19.048705,2.898956,4.880444,8.144114,7.752329,13.054408,10.19805,5.574843,2.77672,11.36439,5.21049,17.250145,7.248572,11.216454,3.883963,22.921022,6.211082,34.737901,7.250504,12.390564,1.089883,24.862327.42134,37.112441-1.692346,11.788959-2.034116,22.726178-6.135997,33.932347-10.16238,10.373218-3.727104,23.442411-8.576326,34.028026-2.956364,8.720882,4.629965,12.678509,14.695802,14.969521,23.749814,12.8224,50.673741-10.625072,102.704751-33.925645,146.546459-5.877746,11.059403-11.613445,22.417364-18.486147,32.901914-5.141825,7.844036-12.103605,15.918077-21.863591,17.495759-8.154546,1.318166-16.649634-1.946238-17.834744-10.925402-.700279-5.305773.472463-10.817093,1.433373-16.013241,1.262108-6.824893,2.743214-13.608773,4.433858-20.340269,3.689214-14.689034,8.413541-29.109625,14.084707-43.151909,5.385718-13.335488,11.37851-26.469053,12.850521-40.944943,1.353874-13.314121-2.276833-26.11261-11.230537-36.176663-8.223877-9.24372-20.41488-14.041507-32.582381-10.872158-9.334004,2.43129-5.376553,16.903327,3.987594,14.464186,9.743507-2.537956,18.049429,5.195346,22.17639,13.334851,5.469995,10.78834,2.546302,23.577987-1.106091,34.452734-4.28908,12.770438-10.137128,24.963858-14.540225,37.703785-4.534249,13.119402-8.236259,26.526743-11.075236,40.11419-2.456479,11.756799-6.0277,25.299346-1.244904,36.906431,4.107823,9.969033,13.408456,15.422424,23.849283,16.51933,23.305877,2.448499,37.92638-17.757209,47.975834-35.710682,25.431531-45.433741,52.337948-95.435093,51.513978-148.995277-.332502-21.613479-4.161204-50.925191-24.565606-63.293254-22.571136-13.681422-47.895171,2.863762-70.109817,8.599963-26.397728,6.816344-54.740871,4.779552-80.034983-5.318225-3.292975-1.314604-6.513344-2.817653-9.66295-4.445626-1.672838-.864659-5.471792-2.156148-6.175409-4.05859-.932856-2.522258,1.956813-7.01095,2.891494-9.300108l4.433691-10.858707c6.157905-15.081537,12.315809-30.163074,18.473714-45.244611,1.542419-3.777591-1.676056-8.206606-5.238296-9.22589-4.280873-1.22491-7.701514,1.504895-9.22589,5.238296h0Z" style="fill: #434343; stroke-width: 0px;"/>
  <path d="m784.159116,1587.83385c13.347692-2.784285,26.828008,3.027091,36.504496,12.097964,11.382298,10.669922,17.054825,25.490261,19.143452,40.721379,2.260527,16.484678.716978,33.630249-1.742181,50.001426-2.582278,17.190809-6.607642,34.163757-11.981367,50.695102-6.111365,18.800565-14.073894,36.874728-23.651513,54.163107-4.68179,8.451011,8.26812,16.025679,12.95206,7.570787,18.907355-34.12931,31.83054-71.58014,37.407418-110.220427,5.048268-34.977733,6.533776-77.241564-21.521266-103.537977-13.791607-12.927081-32.296708-19.87758-51.098692-15.955547-9.443905,1.969968-5.447251,16.432263,3.987594,14.464186h0Z" style="fill: #434343; stroke-width: 0px;"/>
  <path d="m808.849349,1794.500781c-21.721807-3.497739-39.787287-17.511254-48.61112-37.662238-1.637436-3.739412-7.035635-4.526385-10.261424-2.690637-3.852428,2.19236-4.305892,6.572665-2.690637,10.261424,10.165603,23.215183,32.558748,40.527316,57.575587,44.555636,4.02687.648424,8.025553-1.043301,9.22589-5.238296,1.020579-3.566769-1.244705-8.582825-5.238296-9.22589h0Z" style="fill: #434343; stroke-width: 0px;"/>
  <path d="m853.869565,1599.76087h-6.26087c-3.923082,0-7.681415,3.449659-7.5,7.5.182005,4.063515,3.295377,7.5,7.5,7.5h6.26087c3.923082,0,7.681415-3.449659,7.5-7.5-.182005-4.063515-3.295377-7.5-7.5-7.5h0Z" style="fill: #434343; stroke-width: 0px;"/>
  <path d="m817.492607,1502.077635c-9.202839,7.566578-14.25146,18.293131-15.452384,30.01279-.41351,4.035389,3.743061,7.5,7.5,7.5,4.39934,0,7.085307-3.453064,7.5-7.5.805963-7.865287,5.05582-14.470384,11.058986-19.406189,3.153511-2.592818,2.637005-7.911216,0-10.606602-3.061251-3.129024-7.495339-2.558082-10.606602,0h0Z" style="fill: #434343; stroke-width: 0px;"/>
  <path d="m840.108696,1513.347826c0,8.347826,0,16.695652,0,25.043478,0,9.651784,15,9.667771,15,0,0-8.347826,0-16.695652,0-25.043478,0-9.651784-15-9.667771-15,0h0Z" style="fill: #434343; stroke-width: 0px;"/>
  <path d="m867.420379,1518.559917c3.531206,2.959954,5.246685,6.966973,4.047489,11.512985-2.464471,9.342521,12.00024,13.328123,14.464186,3.987594,2.472375-9.372484-.382562-19.801604-7.905073-26.107181-3.102089-2.600256-7.5656-3.041001-10.606602,0-2.672418,2.672418-3.118735,7.992392,0,10.606602h0Z" style="fill: #434343; stroke-width: 0px;"/>
  <path d="m900.361506,1514.127538c2.087526,4.173628,4.175051,8.347257,6.262577,12.520885,1.811554,3.621874,6.928156,4.640289,10.261424,2.690637,3.687488-2.156838,4.508996-6.625945,2.690637-10.261424-2.087526-4.173628-4.175051-8.347257-6.262577-12.520885-1.811554-3.621874-6.928156-4.640289-10.261424-2.690637-3.687488,2.156838-4.508996,6.625945-2.690637,10.261424h0Z" style="fill: #434343; stroke-width: 0px;"/>
  <path d="m937.850603,1336.638566c-5.985235-15.329605-7.717746-34.441654,3.459742-47.960703,8.194506-9.911165,21.235113-15.20929,33.974114-14.806568,28.426283.898649,44.083907,33.199365,34.626459,58.01465-3.440953,9.028675,11.054725,12.933638,14.464186,3.987594,9.812594-25.747148-1.753905-58.472778-26.52669-71.226239-24.629357-12.679622-57.59988-3.482307-72.11015,20.163661-10.241903,16.690227-9.262313,38.11586-2.351847,55.815199,1.466817,3.756865,5.037434,6.41129,9.22589,5.238296,3.591411-1.00579,6.724703-5.418849,5.238296-9.22589h0Z" style="fill: #434343; stroke-width: 0px;"/>
  <path d="m930.949723,1363.467928c-16.228249-12.544123-23.466235-32.475124-22.138823-52.647031,1.361319-20.68717,13.141162-39.077237,30.084462-50.673703,17.757621-12.153811,40.842039-18.370701,62.311782-15.375865,11.932513,1.664478,21.212672,7.512126,26.014215,18.756551,4.721533,11.057057,5.966005,23.830062,7.710027,35.611693,4.040721,27.29683,4.829615,59.847076-18.429956,79.17194-7.431995,6.174761,3.229653,16.735629,10.606602,10.606602,23.653054-19.651783,27.204879-52.508565,23.962826-81.161342-1.641268-14.505282-3.318032-29.864698-7.803232-43.821751-4.32432-13.456426-12.441132-24.675775-25.779498-30.208503-24.272925-10.068361-55.698189-3.613016-78.0505,8.517741-22.2714,12.086847-39.947325,33.199224-44.39123,58.524712-4.675368,26.644579,3.292438,56.296669,25.296725,73.305558,3.228253,2.495378,7.45066,3.087586,10.606602,0,2.612233-2.555654,3.199779-8.133234,0-10.606602h0Z" style="fill: #434343; stroke-width: 0px;"/>
  <path d="m653.491304,1473.593547c12.097738-1.539815,22.730654-8.035878,28.434313-19.061824,4.42887-8.561607-8.510466-16.156991-12.95206-7.570787-3.070009,5.934744-8.638402,10.761517-15.482252,11.632611-4.017359.511335-7.5,3.08102-7.5,7.5,0,3.655552,3.453778,8.015008,7.5,7.5h0Z" style="fill: #434343; stroke-width: 0px;"/>
  <path d="m659.038186,1440.428387c13.152296-3.705858,25.859983,11.407073,21.277259,23.802978-3.352046,9.067019,11.139991,12.979277,14.464186,3.987594,8.613818-23.299696-16.272455-48.864005-39.729039-42.254758-9.276937,2.613917-5.334993,17.090965,3.987594,14.464186h0Z" style="fill: #434343; stroke-width: 0px;"/>
  <path d="m834.158504,1800.689619c-8.780014,5.529556-16.595408,12.350228-23.046147,20.485032-2.514399,3.170822-3.095462,7.51114,0,10.606602,2.610062,2.610062,8.07621,3.19099,10.606602,0,5.676721-7.158716,12.275473-13.268244,20.010333-18.139574,8.148283-5.131699.629454-18.116482-7.570787-12.95206h0Z" style="fill: #434343; stroke-width: 0px;"/>
  <path d="m855.628212,1811.711827c-7.266531,17.754608-14.533061,35.509216-21.799592,53.263824-1.545556,3.77632,1.678351,8.207263,5.238296,9.22589,4.28346,1.22565,7.698407-1.506136,9.22589-5.238296,7.266531-17.754608,14.533061-35.509216,21.799592-53.263824,1.545556-3.77632-1.678351-8.207263-5.238296-9.22589-4.28346-1.22565-7.698407,1.506136-9.22589,5.238296h0Z" style="fill: #434343; stroke-width: 0px;"/>
  <path d="m883.934783,1817v25.043478c0,9.651784,15,9.667771,15,0v-25.043478c0-9.651784-15-9.667771-15,0h0Z" style="fill: #434343; stroke-width: 0px;"/>
  <path d="m911.553684,1798.283103c3.274458,27.166008,8.723721,53.940341,16.61075,80.147817,2.774716,9.219988,17.256748,5.291694,14.464186-3.987594-7.488016-24.881613-12.964756-50.357119-16.074936-76.160223-.484649-4.020814-3.100123-7.5-7.5-7.5-3.677156,0-7.988004,3.45135-7.5,7.5h0Z" style="fill: #434343; stroke-width: 0px;"/>
  <path d="m935.59597,1782.82019c6.134715,8.439528,12.269429,16.879057,18.404144,25.318585,2.399406,3.300864,6.490731,4.836482,10.261424,2.690637,3.254715-1.85221,5.065479-6.994353,2.690637-10.261424-6.134715-8.439528-12.269429-16.879057-18.404144-25.318585-2.399406-3.300864-6.490731-4.836482-10.261424-2.690637-3.254715,1.85221-5.065479,6.994353-2.690637,10.261424h0Z" style="fill: #434343; stroke-width: 0px;"/>
  <path d="m676.218967,1975.035983c95.900051-39.351027,203.04578-54.601711,305.970147-40.404574,23.300978,3.21408,48.25459,9.20836,63.494728,28.563667,2.525668,3.207654,7.95446,2.594698,10.606602,0,3.177427-3.108606,2.492006-7.4417,0-10.606602-14.257235-18.107-36.887307-26.447836-58.860267-30.591566-25.187023-4.749847-51.209374-6.4557-76.796634-7.097939-54.26382-1.362018-108.80207,4.569914-161.539023,17.411459-29.623447,7.213364-58.65832,16.687975-86.863147,28.261368-3.730667,1.530819-6.424595,4.989926-5.238296,9.22589.990839,3.538025,5.443007,6.79054,9.22589,5.238296h0Z" style="fill: #434343; stroke-width: 0px;"/>
  <path d="m674.79208,1972.366008c42.944047,56.199522,103.574754,97.228309,171.191065,117.726253,33.696467,10.215113,69.156829,15.275731,104.373224,14.455885,18.49096-.430474,38.086468-1.653834,55.84663-7.097232,19.006813-5.82549,34.047938-18.545323,45.677526-34.385396,23.286755-31.717709,29.345714-76.214109,10.782653-111.529843-4.493096-8.547997-17.444012-.975032-12.95206,7.570787,14.835285,28.223738,10.268033,63.063331-6.173664,89.561144-9.080625,14.634542-22.227596,27.826813-38.785659,33.503955-16.268157,5.577744-34.285054,6.726482-51.366514,7.290728-64.986222,2.146669-129.984067-16.406851-184.816182-51.165288-30.875397-19.572117-58.606025-44.424561-80.824959-73.50178-2.477576-3.242326-6.430677-4.870658-10.261424-2.690637-3.18838,1.81446-5.145165,7.04926-2.690637,10.261424h0Z" style="fill: #434343; stroke-width: 0px;"/>
  <path d="m946.009751,2085.207994c-17.430329-18.209969-22.193159-45.545633-17.039438-69.672827,5.965659-27.928293,23.086187-51.738907,42.34726-72.171015,6.618879-7.021294-3.968239-17.648564-10.606602-10.606602-21.5522,22.862531-41.076322,50.206847-46.787127,81.748136-5.202488,28.733809.866678,59.774301,21.479306,81.30891,6.688111,6.987263,17.285137-3.629343,10.606602-10.606602h0Z" style="fill: #434343; stroke-width: 0px;"/>
  <path d="m956.160875,2097.086735c25.137097-10.578375,41.524102-32.058101,51.966026-56.643087,9.95728-23.443917,18.062482-51.285484,15.808605-76.99169-1.281016-14.610411-6.392767-28.922156-18.115832-38.375916-3.176444-2.56156-7.492621-3.046534-10.606602,0-2.65963,2.602024-3.145785,8.069766,0,10.606602,22.955978,18.51225,13.353312,55.510766,6.145924,79.480825-7.990445,26.574321-22.039461,56.035198-49.185715,67.459081-3.716563,1.564031-6.431526,4.965178-5.238296,9.22589.983041,3.510179,5.455979,6.824777,9.22589,5.238296h0Z" style="fill: #434343; stroke-width: 0px;"/>
  <path d="m972.424264,1945.090733c4.085746-3.241562,8.171493-6.483124,12.257239-9.724686,3.175773-2.519605,2.63305-7.973552,0-10.606602-3.136822-3.136822-7.422718-2.526039-10.606602,0-4.085746,3.241562-8.171493,6.483124-12.257239,9.724686-3.175773,2.519605-2.63305,7.973552,0,10.606602,3.136822,3.136822,7.422718,2.526039,10.606602,0h0Z" style="fill: #434343; stroke-width: 0px;"/>
  <path d="m1031.258388,1902.825818c68.87484-18.763245,137.749681-37.526491,206.624521-56.289736,9.302789-2.534315,5.354087-17.009095-3.987594-14.464186-68.87484,18.763245-137.749681,37.526491-206.624521,56.289736-9.302789,2.534315-5.354087,17.009095,3.987594,14.464186h0Z" style="fill: #434343; stroke-width: 0px;"/>
  <path d="m965.836557,2127.22584c11.112257,8.270621,23.32498,14.609161,36.357404,19.277528,9.104054,3.261179,13.02378-11.227318,3.987594-14.464186-11.797168-4.225884-22.728997-10.288959-32.774211-17.765403-3.274053-2.436809-8.344285-.509657-10.261424,2.690637-2.275151,3.797925-.541405,7.855883,2.690637,10.261424h0Z" style="fill: #434343; stroke-width: 0px;"/>
  <path d="m1041.080968,2111.403397c22.070408,12.237942,44.140815,24.475884,66.211223,36.713826,8.449418,4.685164,16.02381-8.264897,7.570787-12.95206-22.070408-12.237942-44.140815-24.475884-66.211223-36.713826-8.449418-4.685164-16.02381,8.264897-7.570787,12.95206h0Z" style="fill: #434343; stroke-width: 0px;"/>
  <path d="m1083.882172,2066.779434c14.811054,3.748752,29.047991,9.303252,43.326359,14.671417,15.231737,5.726599,30.463474,11.453197,45.695212,17.179794,30.463475,11.453195,60.92695,22.906388,91.390425,34.359582,9.046152,3.401034,12.954389-11.092987,3.987594-14.464186-30.463475-11.453193-60.926951-22.906387-91.390425-34.359582-14.920886-5.609728-29.841771-11.219457-44.762656-16.829186-14.587462-5.484374-29.126725-11.191992-44.258914-15.022025-9.361276-2.369386-13.354787,12.093302-3.987594,14.464186h0Z" style="fill: #434343; stroke-width: 0px;"/>
  <path d="m1102.519682,2017.221114c74.007675,14.0503,148.946494,23.063658,224.178456,26.905757,9.647859.492716,9.621361-14.508637,0-15-73.911243-3.77465-147.481606-12.566146-220.190862-26.369942-9.433638-1.790969-13.475448,12.662924-3.987594,14.464186h0Z" style="fill: #434343; stroke-width: 0px;"/>
  <path d="m1101.174661,1974.773444c72.228941-4.284381,144.538093-7.1847,216.879156-8.660427,20.573888-.419698,41.149956-.72152,61.727183-.916482,9.646978-.091402,9.670857-15.091628,0-15-72.35265.685516-144.690281,2.757334-216.961924,6.252574-20.554145.994051-41.102371,2.105849-61.644415,3.324335-9.593363.569046-9.658545,15.572913,0,15h0Z" style="fill: #434343; stroke-width: 0px;"/>
  <path d="m1097.075887,1937.984755c70.980652-11.364996,141.740428-24.097516,212.223165-38.226602,20.045376-4.018329,40.067377-8.152116,60.067386-12.390392,9.43818-2.00008,5.444086-16.462888-3.987594-14.464186-70.323068,14.902421-140.93146,28.449298-211.783203,40.593348-20.150321,3.453782-40.320321,6.79142-60.507348,10.023646-3.990085.638868-6.244694,5.632308-5.238296,9.22589,1.191885,4.255906,5.19506,5.883688,9.22589,5.238296h0Z" style="fill: #434343; stroke-width: 0px;"/>
  <path d="m712.992377,2003.376865c-11.401555.645384-21.437228,4.690193-30.261932,11.888937-3.163513,2.580633-2.629267,7.919126,0,10.606602,3.069911,3.137875,7.48545,2.546077,10.606602,0,5.569836-4.543589,12.510504-7.091107,19.65533-7.495539,9.597493-.543265,9.660443-15.546829,0-15h0Z" style="fill: #434343; stroke-width: 0px;"/>
  <path d="m737.202208,2032.52811c-11.486775,8.336094-22.97355,16.672188-34.460325,25.008282-3.302737,2.396837-4.835368,6.492689-2.690637,10.261424,1.85344,3.256876,6.992592,5.062868,10.261424,2.690637,11.486775-8.336094,22.97355-16.672188,34.460325-25.008282,3.302737-2.396837,4.835368-6.492689,2.690637-10.261424-1.85344-3.256876-6.992592-5.062868-10.261424-2.690637h0Z" style="fill: #434343; stroke-width: 0px;"/>
  <path d="m766.889575,2052.454882c-7.303208,7.305487-14.606416,14.610974-21.909625,21.916461-6.833488,6.83562,3.770093,17.445244,10.606602,10.606602,7.303208-7.305487,14.606416-14.610974,21.909625-21.916461,6.833488-6.83562-3.770093-17.445244-10.606602-10.606602h0Z" style="fill: #434343; stroke-width: 0px;"/>
  <path d="m798.191876,2064.071659c-6.836995,14.333895-13.673989,28.66779-20.510984,43.001685-4.135093,8.669305,8.793708,16.288856,12.95206,7.570787,6.836995-14.333895,13.673989-28.66779,20.510984-43.001685,4.135093-8.669305-8.793708-16.288856-12.95206-7.570787h0Z" style="fill: #434343; stroke-width: 0px;"/>
  <path d="m824.461817,2086.21725c.023653,5.701951-1.812423,10.465366-5.245276,14.99491-2.448446,3.230649-.510594,8.389029,2.690637,10.261424,3.848345,2.250892,7.806994.547908,10.261424-2.690637,4.907783-6.475668,7.326794-14.470885,7.293216-22.565697-.040029-9.649893-15.04011-9.669336-15,0h0Z" style="fill: #434343; stroke-width: 0px;"/>
  <path d="m865.183308,2092.475332c.751633,9.616713-.852753,18.906781-5.28973,27.510257-4.417702,8.5661,8.521201,16.162401,12.95206,7.570787,5.61252-10.8829,8.294695-22.836457,7.33767-35.081044-.747269-9.560875-15.75357-9.641495-15,0h0Z" style="fill: #434343; stroke-width: 0px;"/>
  <path d="m860.258517,2126.432975l-3.177776,6.236748c-1.779325,3.492129-1.030818,8.29521,2.690637,10.261424,3.42218,1.808094,8.359754,1.041608,10.261424-2.690637l3.177776-6.236748c1.779325-3.492129,1.030818-8.29521-2.690637-10.261424-3.42218-1.808094-8.359754-1.041608-10.261424,2.690637h0Z" style="fill: #434343; stroke-width: 0px;"/>
  <path d="m897.114699,2103.699874c2.697192,6.819542,3.855312,13.907059,2.596555,21.191577-1.631438,9.441248,12.821067,13.496437,14.464186,3.987594,1.711094-9.902225,1.120477-19.768673-2.596555-29.166766-1.483261-3.750256-5.025251-6.414703-9.22589-5.238296-3.577729,1.001958-6.741602,5.424952-5.238296,9.22589h0Z" style="fill: #434343; stroke-width: 0px;"/>
  <path d="m928.435398,2103.132264c-3.887321,13.801148.209037,28.88549,10.743938,38.66779,7.066906,6.562054,17.69886-4.021006,10.606602-10.606602-6.725379-6.244926-9.385052-15.20247-6.886354-24.073594,2.621518-9.307169-11.846902-13.279732-14.464186-3.987594h0Z" style="fill: #434343; stroke-width: 0px;"/>
  <path d="m1201.42992,1774.480722c-25.794421,12.451651-56.152525,18.474952-84.2764,10.96901-14.327806-3.823928-27.012935-11.413796-38.888301-20.11847-6.032057-4.421513-11.864302-9.118702-17.662033-13.841418-5.088968-4.145372-10.371342-8.498473-13.653829-14.284043-6.537053-11.521926-4.37792-27.175687-3.36796-39.817893.899239-11.256258,2.68533-24.132303,10.299268-33.032362,8.935186-10.444489,23.982895-11.890989,36.863779-11.826652,12.581727.062843,24.97357,2.308101,36.884442,6.333943,26.822675,9.065992,50.173387,27.650868,64.57548,52.049558,4.903597,8.30722,17.874913.769054,12.95206-7.570787-15.05645-25.507241-38.507878-44.897783-65.831565-56.063859-13.540494-5.533447-27.998071-8.753605-42.604455-9.567045-15.06451-.838953-32.359556.330354-45.248026,8.983206-12.565475,8.436005-18.779204,22.417245-21.226436,36.94033-2.508226,14.885052-3.894717,31.294745-1.414609,46.242317,2.843797,17.139522,14.985576,27.326922,27.836521,37.585754,13.281645,10.602657,26.913083,20.930519,42.654204,27.616103,35.522822,15.087286,75.801507,8.707764,109.678648-7.64563,8.690754-4.195258,1.092541-17.134078-7.570787-12.95206h0Z" style="fill: #434343; stroke-width: 0px;"/>
  <path d="m1152.723762,1650.470727c14.689674-104.015521,29.379349-208.031042,44.069023-312.046563,2.96646-21.005088,3.774458-45.288776,14.983541-63.928548,11.491075-19.108702,36.343538-26.812802,55.64631-35.32854,45.382132-20.02108,91.545256-38.269768,138.319834-54.776242,53.052641-18.721966,106.900208-35.152983,161.348269-49.309282,9.335214-2.427122,5.377409-16.899053-3.987594-14.464186-98.533023,25.618231-195.002276,58.816657-288.478207,99.151927-11.533968,4.976957-23.033401,10.041281-34.460036,15.260444-10.177819,4.64876-20.112308,9.687245-28.711368,16.949907-17.12004,14.459379-22.502025,36.726973-25.648623,57.933825-7.797836,52.554391-14.873681,105.226286-22.303266,157.834133-8.414022,59.57851-16.828045,119.157021-25.242067,178.735531-.570358,4.038628.989925,8.01028,5.238296,9.22589,3.506116,1.003224,8.659834-1.230137,9.22589-5.238296h0Z" style="fill: #434343; stroke-width: 0px;"/>
  <path d="m1210.500162,1783.986359c42.348563-3.521396,65.959226-44.942228,77.377279-81.518288,15.754196-50.466257,20.982408-103.729819,24.841689-156.221695,3.859544-52.495452,5.808767-105.503306,15.576132-157.34267,2.003241-10.632011,4.511318-21.597072,10.746326-30.640133,6.194564-8.984401,16.351493-14.113941,26.342967-17.751485,24.843773-9.044743,50.741066-15.845965,76.20325-22.908779,59.738598-16.570558,120.217332-30.417951,181.198558-41.573167,9.4819-1.734511,5.465221-16.193377-3.987594-14.464186-53.993797,9.877014-107.593159,21.861067-160.635834,35.983548-26.519496,7.06075-52.897613,14.65308-79.113866,22.767553-21.806939,6.749699-44.875698,14.006811-56.130215,35.713386-5.18057,9.99176-7.68842,20.99347-9.654362,31.99326-2.30628,12.904041-4.150535,25.891975-5.744613,38.901936-3.261128,26.615476-5.240706,53.366075-7.078577,80.110965-3.591734,52.267302-6.551611,104.863617-17.813779,156.174564-5.319834,24.237408-11.722322,48.86422-24.591108,70.323248-10.444865,17.417079-26.212521,33.678815-47.536255,35.45194-9.551164.794205-9.635851,15.801247,0,15h0Z" style="fill: #434343; stroke-width: 0px;"/>
  <path d="m1619.191496,1270.785143c24.466515,45.097268,48.933031,90.194537,73.399546,135.291805,12.074384,22.255795,24.148768,44.511589,36.223152,66.767384,6.037192,11.127897,12.074384,22.255795,18.111576,33.383692,4.996719,9.210071,9.898082,18.539707,16.110933,27.007699,12.875479,17.54902,30.281708,27.696542,51.667254,31.430443,22.738612,3.970145,46.757649,4.515963,69.771734,3.554539,24.405697-1.019559,48.177523-5.638672,71.306326-13.446526,22.850986-7.714068,44.898382-17.659111,67.026851-27.195215,52.424705-22.592049,104.849413-45.184094,157.27412-67.77614,3.74894-1.615578,4.518022-7.050331,2.690637-10.261424-2.201524-3.868531-6.56313-4.284389-10.261424-2.690637-45.109632,19.439667-90.219264,38.879333-135.328894,58.319003-42.905646,18.489878-86.728061,41.144926-133.725076,46.586266-23.035966,2.667117-46.457032,2.03468-69.536594.228301-19.887606-1.556552-39.637754-5.644769-53.563897-21.020052-6.607296-7.294844-11.53466-15.964497-16.257545-24.546102-5.756839-10.460326-11.397395-20.986133-17.091115-31.480935-11.756637-21.670116-23.513274-43.340232-35.269912-65.010348-26.53187-48.904181-53.063741-97.808361-79.595611-146.712542-4.604849-8.487769-17.560868-.924277-12.95206,7.570787h0Z" style="fill: #434343; stroke-width: 0px;"/>
  <path d="m1798.08169,1226.808658c17.892868,32.145468,35.785736,64.290936,53.678604,96.436404,8.865835,15.927935,17.731671,31.855869,26.597506,47.783804,4.513494,8.108726,9.01327,16.225264,13.540549,24.3263,3.861311,6.909365,7.987765,13.885838,14.215052,18.942635,23.241929,18.873344,55.356835,6.263963,79.764215-3.105034,34.123656-13.09868,68.159634-26.425814,102.105277-39.979131,38.227201-15.262795,76.337482-30.817286,114.332809-46.648405,3.722187-1.550885,6.428781-4.974981,5.238296-9.22589-.986131-3.521213-5.450809-6.81122-9.22589-5.238296-65.048078,27.102908-130.437504,53.3847-196.15874,78.812112-14.621715,5.657112-29.19248,12.003646-44.266265,16.376018-11.43134,3.315827-25.199621,6.188628-36.559273,1.054399-6.053017-2.735786-10.115848-7.695621-13.470626-13.272764-4.457967-7.411138-8.488719-15.106251-12.694614-22.66236-8.543441-15.348737-17.086883-30.697474-25.630324-46.046211-19.504838-35.041456-39.009676-70.082912-58.514514-105.124368-4.695653-8.435985-17.656059-.880191-12.95206,7.570787h0Z" style="fill: #434343; stroke-width: 0px;"/>
  <path d="m2190.623415,1327.295312c12.953318-1.198187,26.61664-2.484149,39.255602,1.363286,12.805498,3.89813,20.725245,14.29496,25.41267,26.401168,10.860465,28.04931,10.076077,59.894895,10.260855,89.519868.172413,27.642566-1.313901,56.906974-14.31524,81.925754-6.021571,11.587448-14.328997,22.378184-25.837005,28.925375-11.168635,6.354114-23.846866,6.696794-35.864156,2.619154-30.889359-10.481205-44.68622-43.371586-54.642984-71.662744-3.183366-9.045218-17.68062-5.151587-14.464186,3.987594,10.448394,29.688077,24.101551,61.3461,53.272244,76.994583,13.422426,7.200398,28.924919,10.418487,43.950099,7.072646,14.634407-3.258823,27.221123-13.017527,36.33909-24.616717,20.180653-25.672306,25.572873-58.973176,26.432874-90.775095.44419-16.425659-.032484-32.922585-.733098-49.335343-.74473-17.446228-2.335214-35.180606-7.591375-51.917263-5.230974-16.656456-14.211258-33.177428-30.780095-40.73326-15.91636-7.258286-33.697681-6.341293-50.695297-4.769007-9.53176.881692-9.624032,15.890227,0,15h0Z" style="fill: #434343; stroke-width: 0px;"/>
  <path d="m1550.196243,1136.146291c53.433382-9.884106,89.961556-56.720822,107.666806-105.214555,10.398328-28.480464,15.504063-58.528789,20.000343-88.406027,4.949232-32.887052,9.727401-65.800672,14.585777-98.701273,5.598478-37.912529,11.19696-75.825057,16.795442-113.737586.595836-4.034961-1.007313-8.015255-5.238296-9.22589-3.525887-1.008882-8.634693,1.234753-9.22589,5.238296-9.639125,65.275484-19.27825,130.550969-28.917358,195.826455-8.040166,54.447537-15.429099,114.333754-52.201589,158.022548-17.52803,20.824765-40.378727,36.725679-67.452829,41.733846-9.47928,1.753477-5.464215,16.212581,3.987594,14.464186h0Z" style="fill: #434343; stroke-width: 0px;"/>
  <path d="m1815.09557,1228.856504c-9.430415-28.49109-5.483109-58.449061,2.416398-86.805101,8.162713-29.300845,19.578676-57.856482,31.04282-85.99756,11.600054-28.474696,24.218014-56.536253,37.743984-84.147587,12.502384-25.521828,25.149096-51.492086,40.560913-75.413424,14.085489-21.86269,32.597846-42.858034,59.192079-48.246466,9.453761-1.915489,5.452474-16.3769-3.987594-14.464186-25.505518,5.167841-44.965654,23.082224-60.039349,43.373072-16.990438,22.870994-29.645852,49.159731-42.397309,74.525045-14.535523,28.914194-28.006774,58.347403-40.503422,88.198266-12.250727,29.263429-24.158008,58.971653-33.475121,89.317577-10.254592,33.399302-16.256871,69.691917-5.017583,103.647958,3.018975,9.120901,17.509648,5.21333,14.464186-3.987594h0Z" style="fill: #434343; stroke-width: 0px;"/>
  <path d="m1709.703271,747.244965c7.763316-35.456389-19.628799-66.941683-51.400202-78.445634-41.034447-14.857962-86.261099,3.673605-124.724596,17.745642-43.03209,15.743476-86.03522,31.568884-129.098457,47.226936-20.423702,7.426181-41.338333,14.836022-63.010783,17.540227-20.590492,2.569202-41.03476.030508-60.179362-8.042393-17.919942-7.556486-34.257726-18.817474-49.397293-30.90042-16.151325-12.890433-31.627385-26.680041-46.868953-40.626055-31.244751-28.588906-61.053855-58.74673-89.280507-90.319067-13.911718-15.560664-27.438808-31.465144-40.564202-47.694564-12.469641-15.418588-25.055179-30.897733-34.837478-48.213506-8.718799-15.433259-15.99009-33.015057-14.952418-51.075634,1.039753-18.096809,12.674339-31.344887,27.562777-40.430097,15.019343-9.165091,31.632207-16.960516,48.457768-22.144685,14.699209-4.529013,31.959064-7.779033,46.659766-1.442813,15.299804,6.594442,22.865455,22.128812,22.657976,38.238749-.229594,17.827014-9.929387,33.347861-22.593819,45.257175-6.525138,6.136077-13.822114,11.257162-21.482883,15.868854-8.260925,4.972979-.72864,17.948218,7.570787,12.95206,31.761585-19.120098,60.987895-53.527282,48.893137-93.108162-5.199917-17.017065-18.384914-30.244524-35.512926-35.213592-17.088224-4.957525-35.772277-1.70831-52.342263,3.670541-17.687897,5.741741-35.492105,13.904426-51.239716,23.812771-16.115723,10.139959-29.252791,24.77983-32.626556,44.04503-6.984711,39.884775,20.343401,76.911771,43.551085,106.335539,53.896229,68.332115,114.887808,132.422348,182.379837,187.495632,32.471522,26.49666,69.497709,49.230251,112.939433,47.450955,22.859773-.936296,45.05005-7.335178,66.523648-14.818241,22.85215-7.963457,45.501543-16.543406,68.227914-24.857941,22.323411-8.16711,44.646821-16.334221,66.97023-24.501335,21.776572-7.967052,43.548503-16.628537,66.317124-21.368369,19.834855-4.129099,42.166777-5.233965,60.945946,3.626787,14.751344,6.960266,28.636616,19.120452,34.253021,34.825556,2.684726,7.507277,3.449139,15.306388,1.737779,23.122461-2.060089,9.408779,12.397155,13.428075,14.464186,3.987594h0Z" style="fill: #434343; stroke-width: 0px;"/>
  <path d="m1144.826164,438.276879c12.151837,18.601008,24.447543,37.107631,37.031218,55.419826,2.90663,4.229827,6.1797,8.325475,8.316775,12.953343,2.387791,5.170799,5.999716,9.612708,9.25534,14.297065,6.385815,9.188236,12.576421,18.509754,18.688668,27.881648,12.087492,18.533719,23.924124,37.234513,36.60171,55.375482,3.07984,4.407092,5.910052,8.443669,8.210345,13.237402,2.196951,4.578372,6.067252,8.162911,9.191827,12.113972,3.1502,3.983465,4.986813,8.7475,7.515422,13.121488,2.682705,4.640544,5.708893,9.074767,8.853516,13.412109,3.23022,4.455406,6.640009,8.774748,9.908203,13.201172,2.799214,3.791241,5.420742,7.33238,9.420358,9.955193,7.345161,4.816709,16.606496,5.175187,24.976722,3.513264,9.900128-1.965688,19.078612-7.696894,27.847028-12.461776,9.519969-5.173287,18.852241-10.685478,28.05684-16.399314,37.493505-23.274425,73.109857-49.865298,114.578587-65.96604,46.914894-18.215282,96.375026-29.3186,146.805849-29.364664,9.651396-.008816,9.668144-15.008831,0-15-22.177712.020258-44.307349,1.944093-66.153693,5.777798-21.682792,3.805004-42.318409,10.283764-63.298756,16.740069-41.693491,12.830384-78.625898,35.142665-114.801881,58.985685-17.719306,11.678515-35.653169,23.075262-54.351283,33.13636-8.029737,4.320648-16.782896,10.145134-26.178087,10.486151-8.949302.324832-12.320607-4.823932-17.31095-11.40906-6.505123-8.583993-13.035912-17.2372-17.953125-26.859375-2.267886-4.437878-4.6326-8.258061-7.83332-12.101819-1.403462-1.685423-2.893913-3.305801-4.233948-5.04313-1.596361-2.06965-1.996079-4.115888-3.196621-6.393245-2.484063-4.712119-6.253338-9.012003-9.295375-13.409931-3.212824-4.644838-6.377971-9.322595-9.508796-14.023055-6.074018-9.119219-12.016627-18.324739-17.970495-27.522561-6.491093-10.027753-13.000835-20.044239-19.702281-29.93323-3.405967-5.026017-6.859168-10.020112-10.374072-14.970618-3.359171-4.731168-5.457281-9.815909-8.766404-14.59842-14.094866-20.370607-27.829515-40.984834-41.377257-61.722575-5.259291-8.050479-18.252361-.542467-12.95206,7.570787h0Z" style="fill: #434343; stroke-width: 0px;"/>
  <path d="m1985.371081,842.867677c30.500037,43.034384,44.997185,94.738921,45.683948,147.206625.684078,52.262513-12.095964,103.954072-32.859574,151.706578-11.818315,27.179964-26.077505,53.227348-41.846696,78.304245-5.153646,8.195566,7.820122,15.731833,12.95206,7.570787,57.199364-90.961071,95.143617-200.929271,67.558782-308.486742-7.691863-29.991746-20.623456-58.597715-38.536461-83.87228-5.536996-7.81249-18.550234-.328022-12.95206,7.570787h0Z" style="fill: #434343; stroke-width: 0px;"/>
  <path d="m2004.645279,1227.728493c-27.788785-10.492971-62.031003-2.341786-81.627259,20.187021-20.099738,23.107634-24.003873,58.440293-8.957584,85.231533,17.025324,30.315086,54.194111,33.537802,82.85877,18.476063,14.998103-7.880697,27.565353-19.836111,39.12353-32.037808,11.366831-11.999697,21.992728-24.6625,32.000005-37.814101,39.65175-52.110479,67.985769-113.02764,82.675742-176.824107,14.968653-65.006732,15.353175-132.673009,1.411998-197.894424-13.886766-64.966863-41.81116-127.252344-81.652862-180.452083-5.049815-6.742906-10.272236-13.354713-15.661547-19.829247-6.181852-7.426666-16.74315,3.234363-10.606602,10.606602,39.388647,47.320174,68.471347,103.004025,85.541521,162.119764,17.065785,59.10054,22.162343,121.714375,13.668874,182.707634-8.376511,60.15336-29.046035,118.442719-60.261301,170.523357-15.728543,26.24205-34.08024,50.840597-54.911754,73.253272-18.833598,20.263113-43.945559,44.623788-74.310802,39.103391-29.06801-5.284561-38.842817-39.143496-31.771224-64.623085,7.31539-26.35801,32.229315-43.092853,59.250977-42.275966,6.645083.200886,13.033237,1.661986,19.241925,4.00637,9.040643,3.413723,12.947839-11.080821,3.987594-14.464186h0Z" style="fill: #434343; stroke-width: 0px;"/>
  <path d="m2062.711607,714.603213c-20.238896-20.148066-45.878037-34.362363-73.744166-40.668395-9.400202-2.127241-13.413892,12.331039-3.987594,14.464186,25.458195,5.761124,48.617773,18.386485,67.125158,36.810812,6.84928,6.818542,17.460131-3.78383,10.606602-10.606602h0Z" style="fill: #434343; stroke-width: 0px;"/>
  <path d="m1765.90898,629.197404c-29.443751-40.162216-36.165454-94.784258-17.732644-141.057149,8.570463-21.514904,22.989323-39.916075,39.578738-55.826346,17.719851-16.99443,37.807562-31.774088,59.440598-43.410853,21.257579-11.434801,45.118155-18.901685,69.466897-16.361888,22.964508,2.395409,44.325733,14.13635,61.328538,29.321638,17.992303,16.069014,31.963334,35.929431,43.10892,57.22059,11.065993,21.139114,20.039508,44.953545,21.176287,69.008359,2.699675,57.126503-42.288812,104.120924-80.696502,140.797831-6.995283,6.680052,3.622033,17.276422,10.606602,10.606602,37.717169-36.017503,78.484105-79.76907,84.530252-133.901603,2.98595-26.733888-4.419954-53.628206-14.966688-77.977-10.335079-23.860153-24.399865-46.561958-42.176552-65.60635-17.343222-18.580015-38.970947-33.817569-63.603316-40.845026-25.614031-7.307519-52.572863-4.141371-77.039094,5.74917-24.554242,9.92612-47.051792,24.97915-67.334781,41.884299-19.58779,16.325726-37.465126,35.270691-49.725623,57.793822-28.721331,52.762488-24.487116,121.651405,11.086309,170.174691,2.412756,3.291076,6.480539,4.842282,10.261424,2.690637,3.243469-1.84581,5.079054-7.003545,2.690637-10.261424h0Z" style="fill: #434343; stroke-width: 0px;"/>
  <path d="m1645.869108,556.648666c24.75901-.358405,49.223337,2.720984,73.113406,9.234306,9.325639,2.542516,13.304758-11.92398,3.987594-14.464186-25.100196-6.843247-51.086993-10.146692-77.101001-9.77012-9.643744.1396-9.671786,15.140006,0,15h0Z" style="fill: #434343; stroke-width: 0px;"/>
  <path d="m1989.295093,672.873204c-5.231691-2.05047-10.463383-4.100941-15.695074-6.151411-3.772381-1.478519-8.232751,1.623877-9.22589,5.238296-1.16827,4.25179,1.452114,7.741962,5.238296,9.22589,5.231691,2.05047,10.463383,4.100941,15.695074,6.151411,3.772381,1.478519,8.232751-1.623877,9.22589-5.238296,1.16827-4.25179-1.452114-7.741962-5.238296-9.22589h0Z" style="fill: #434343; stroke-width: 0px;"/>
  <path d="m1744.817803,477.173132c2.755599,38.243483,40.699199,67.401356,78.3442,60.421715,9.478726-1.757421,5.463996-16.216575-3.987594-14.464186-27.66573,5.129416-57.338323-17.946866-59.356606-45.957529-.689711-9.572123-15.69516-9.647756-15,0h0Z" style="fill: #434343; stroke-width: 0px;"/>
  <path d="m1755.314046,465.489871c21.186303.374205,44.212891.368768,63.552714,10.253515,15.293613,7.816695,28.65211,22.284546,28.851508,40.263967.106977,9.645986,15.107257,9.67121,15,0-.246125-22.192676-14.904771-41.15827-33.674908-51.812599-22.225039-12.615405-48.856206-13.26556-73.729315-13.704883-9.656117-.170552-9.657386,14.829426,0,15h0Z" style="fill: #434343; stroke-width: 0px;"/>
  <path d="m1829.440642,534.564989c6.260057-1.04833,12.520114-2.096659,18.780171-3.144989,3.997893-.6695,6.232371-5.608635,5.238296-9.22589-1.164743-4.238282-5.216325-5.90975-9.22589-5.238296-6.260057,1.04833-12.520114,2.096659-18.780171,3.144989-3.997893.6695-6.232371,5.608635-5.238296,9.22589,1.164743,4.238282,5.216325,5.90975,9.22589,5.238296h0Z" style="fill: #434343; stroke-width: 0px;"/>
  <path d="m1870.743459,527.19071c24.958428,27.889688,55.693167,57.891761,96.534318,50.865599,9.494573-1.633412,5.469294-16.091114-3.987594-14.464186-34.435396,5.92414-61.413058-24.070135-81.940123-47.008015-6.450898-7.208528-17.029876,3.428941-10.606602,10.606602h0Z" style="fill: #434343; stroke-width: 0px;"/>
  <path d="m1875.884631,521.996086c14.156085-4.926363,28.245967-10.365687,42.669872-14.463038,12.586773-3.575483,25.818088-5.635492,38.569665-1.702909,11.286341,3.480704,19.404565,11.432744,22.257011,22.977693,3.136666,12.695297,1.150989,26.544777.379653,39.423895-.577469,9.642105,14.424555,9.60831,15,0,.88707-14.81156,2.784108-30.406957-1.313921-44.925258-4.065697-14.403758-14.363248-24.92574-28.116202-30.432595-30.598944-12.252202-64.637629,4.636911-93.433673,14.658027-9.059835,3.152852-5.163616,17.648836,3.987594,14.464186h0Z" style="fill: #434343; stroke-width: 0px;"/>
  <path d="m1960.060201,581.383594c8.701478,1.195275,16.6466.102446,24.569236-3.785952,3.635611-1.784343,4.629335-6.946884,2.690637-10.261424-2.169042-3.708352-6.612218-4.481652-10.261424-2.690637-3.931034,1.929335-8.634925,2.874924-13.010855,2.273827-4.007618-.550505-8.052907.969353-9.22589,5.238296-.962049,3.501271,1.199293,8.671074,5.238296,9.22589h0Z" style="fill: #434343; stroke-width: 0px;"/>
  <path d="m1797.198238,516.770538c4.870719-12.29005,11.548583-24.027025,19.677281-34.459286,2.507909-3.218617,3.079874-7.458543,0-10.606602-2.564373-2.621145-8.121222-3.189703-10.606602,0-9.843243,12.632686-17.632303,26.184644-23.534864,41.078294-1.503293,3.793187,1.647484,8.198431,5.238296,9.22589,4.248674,1.215696,7.740245-1.48964,9.22589-5.238296h0Z" style="fill: #434343; stroke-width: 0px;"/>
  <path d="m1797.450706,528.841341c18.625617-9.499984,30.319971-30.799649,27.882499-51.638941-.470501-4.022572-3.110251-7.5-7.5-7.5-3.688604,0-7.973695,3.450123-7.5,7.5,1.874313,16.024534-6.01503,31.322657-20.453286,38.686881-8.601615,4.387248-1.019677,17.333621,7.570787,12.95206h0Z" style="fill: #434343; stroke-width: 0px;"/>
  <path d="m1941.395938,553.368147c-2.661818-11.800251,2.039996-24.987383,11.935283-32.11805,3.310767-2.38578,4.830577-6.501107,2.690637-10.261424-1.858724-3.266161-6.985046-5.051635-10.261424-2.690637-15.579914,11.227079-23.076442,30.226723-18.828682,49.057705,2.123248,9.412688,16.588329,5.429063,14.464186-3.987594h0Z" style="fill: #434343; stroke-width: 0px;"/>
  <path d="m1933.66954,561.266406c11.174185,6.527633,21.231995-3.494986,25.416325-13.369896,5.364828-12.660854,8.440889-26.734916,12.465605-39.882949,2.831834-9.251098-11.642286-13.206238-14.464186-3.987594-2.882018,9.415042-5.764037,18.830085-8.646057,28.245126-1.171173,3.826012-2.008356,7.963393-3.923148,11.501156-.847923,1.566619-1.847625,2.711397-2.972481,4.048523-.90612,1.077114-.00661.668043-.305272.493573-8.352338-4.879192-15.9109,8.08001-7.570787,12.95206h0Z" style="fill: #434343; stroke-width: 0px;"/>
  <path d="m1956.81969,536.664949c-.195695-5.641028,1.150483-11.255895,4.715181-15.768331l-11.779331-9.088694c-3.729011,7.212761-6.333886,14.802523-7.465984,22.850961-.563471,4.005891.978216,8.055342,5.238296,9.22589,3.511503.96486,8.658077-1.201537,9.22589-5.238296.950912-6.760332,2.814465-13.195463,5.953859-19.267768,1.709657-3.306867,1.142492-7.377976-1.931683-9.675059-2.704668-2.02098-7.501582-2.383445-9.847648.586365-6.048149,7.656158-9.450526,16.518108-9.108579,26.374932.333932,9.625773,15.335487,9.670612,15,0h0Z" style="fill: #434343; stroke-width: 0px;"/>
  <path d="m1948.588714,549.22911c7.56093-14.474668,15.121861-28.949336,22.682791-43.424004,4.464588-8.547021-8.476155-16.139475-12.95206-7.570787-7.56093,14.474668-15.121861,28.949336-22.682791,43.424004-4.464588,8.547021,8.476155,16.139475,12.95206,7.570787h0Z" style="fill: #434343; stroke-width: 0px;"/>
  <path d="m1854.317672,538.359103c-5.230191,6.669133-11.299965,12.638982-18.393557,17.312685-3.570395,2.352401-7.331423,4.449334-11.233614,6.199936-4.054422,1.818896-8.142129,3.10811-11.302872,6.404427-5.987485,6.244306-4.614517,16.05078.918271,22.089969,6.511988,7.108013,16.322467,7.209755,25.213703,6.121762,4.019893-.491901,7.5-3.094931,7.5-7.5,0-3.671286-3.451995-7.995341-7.5-7.5-3.14779.385185-13.787197,2.565579-14.920412-2.322057-.482166-2.079616,9.303836-5.079178,11.273669-6.092016,11.268927-5.794195,21.242168-14.15036,29.051414-24.108104,2.51802-3.210783,3.073631-7.464924,0-10.606602-2.571428-2.628357-8.111528-3.181524-10.606602,0h0Z" style="fill: #434343; stroke-width: 0px;"/>
  <path d="m1794.23913,452.130435c0-4.173913,0-8.347826,0-12.521739,0-3.923082-3.449659-7.681415-7.5-7.5-4.063515.182005-7.5,3.295377-7.5,7.5,0,4.173913,0,8.347826,0,12.521739,0,3.923082,3.449659,7.681415,7.5,7.5,4.063515-.182005,7.5-3.295377,7.5-7.5h0Z" style="fill: #434343; stroke-width: 0px;"/>
  <path d="m1820.355971,457.569994c5.801662-6.170301,9.833848-13.820921,11.043347-22.245464.574896-4.004333-.986031-8.057489-5.238296-9.22589-3.520523-.967339-8.646627,1.203544-9.22589,5.238296-.855402,5.958144-3.036409,11.213451-7.185763,15.626457-6.609207,7.029157,3.977212,17.657225,10.606602,10.606602h0Z" style="fill: #434343; stroke-width: 0px;"/>
  <path d="m1840.966901,474.849458c5.213769-3.136456,10.427539-6.272911,15.641308-9.409367,8.262584-4.970536.730093-17.945634-7.570787-12.95206-5.213769,3.136456-10.427539,6.272911-15.641308,9.409367-8.262584,4.970536-.730093,17.945634,7.570787,12.95206h0Z" style="fill: #434343; stroke-width: 0px;"/>
  <path d="m1894.131482,550.131482c-3.130435,3.130435-6.26087,6.26087-9.391304,9.391304-2.777964,2.777964-2.984916,7.866503,0,10.606602,2.993994,2.748431,7.642111,2.964491,10.606602,0,3.130435-3.130435,6.26087-6.26087,9.391304-9.391304,2.777964-2.777964,2.984916-7.866503,0-10.606602-2.993994-2.748431-7.642111-2.964491-10.606602,0h0Z" style="fill: #434343; stroke-width: 0px;"/>
  <path d="m1920.783709,570.174231c-5.903038,8.187134-10.166702,17.384437-12.761814,27.135241-2.485287,9.33815,11.979888,13.322022,14.464186,3.987594,2.290316-8.605568,6.042947-16.33063,11.249689-23.552048,2.386922-3.310507.546758-8.322059-2.690637-10.261424-3.755768-2.249897-7.905229-.577254-10.261424,2.690637h0Z" style="fill: #434343; stroke-width: 0px;"/>
  <path d="m1945.152174,583.608696c0,3.130435,0,6.26087,0,9.391304,0,3.923082,3.449659,7.681415,7.5,7.5,4.063515-.182005,7.5-3.295377,7.5-7.5,0-3.130435,0-6.26087,0-9.391304,0-3.923082-3.449659-7.681415-7.5-7.5-4.063515.182005-7.5,3.295377-7.5,7.5h0Z" style="fill: #434343; stroke-width: 0px;"/>
  <path d="m1825.29307,368.73954c-7.089972-20.990394-18.426046-40.039485-33.561383-56.227037-6.60699-7.066311-17.197557,3.557441-10.606602,10.606602,13.32347,14.249723,23.45916,31.120307,29.703799,49.608029,3.072708,9.096983,17.565463,5.193969,14.464186-3.987594h0Z" style="fill: #434343; stroke-width: 0px;"/>
  <path d="m1876.707263,339.70452c-.818786-22.871613-9.050565-44.054514-17.56413-64.996345-8.330888-20.492479-17.073307-41.522118-17.175096-63.992208-.043713-9.649702-15.043803-9.669463-15,0,.207868,45.886962,33.114241,83.596907,34.739226,128.988553.344552,9.624562,15.34619,9.670319,15,0h0Z" style="fill: #434343; stroke-width: 0px;"/>
  <path d="m1925.717391,326.913043v-62.608696c0-9.651784-15-9.667771-15,0v62.608696c0,9.651784,15,9.667771,15,0h0Z" style="fill: #434343; stroke-width: 0px;"/>
  <path d="m1977.002015,344.168521c9.552987-40.252493,26.33238-78.251784,49.593806-112.462046,5.442044-8.003539-7.549325-15.516516-12.95206-7.570787-23.917933,35.175778-41.283837,74.658835-51.105931,116.045239-2.227457,9.385618,12.232519,13.39095,14.464186,3.987594h0Z" style="fill: #434343; stroke-width: 0px;"/>
  <path d="m2008.195963,379.294397c14.413024-18.288181,27.469073-37.518214,38.927853-57.794137,4.755846-8.415308-8.19744-15.983927-12.95206-7.570787-10.812073,19.131596-22.97701,37.494928-36.582394,54.758322-2.525713,3.204788-3.068869,7.469792,0,10.606602,2.576809,2.633856,8.104152,3.17527,10.606602,0h0Z" style="fill: #434343; stroke-width: 0px;"/>
  <path d="m2047.167743,411.575165c27.017192-18.944111,54.034384-37.888221,81.051575-56.832332,7.845377-5.501078.357863-18.511529-7.570787-12.95206-27.017192,18.944111-54.034384,37.888221-81.051575,56.832332-7.845377,5.501078-.357863,18.511529,7.570787,12.95206h0Z" style="fill: #434343; stroke-width: 0px;"/>
  <path d="m2059.118703,450.678986c16.688117-1.305642,32.96335-4.880905,48.534671-11.051094,3.749282-1.485666,6.415202-5.023468,5.238296-9.22589-1.001397-3.575726-5.42585-6.744074-9.22589-5.238296-14.288801,5.661986-29.2145,9.315692-44.547077,10.515279-9.560726.74801-9.641409,15.754323,0,15h0Z" style="fill: #434343; stroke-width: 0px;"/>
  <path d="m2076.743307,493.853907c31.382634-5.700204,63.148324-8.710126,95.039622-9.153828,9.644132-.134178,9.671706-15.134562,0-15-33.223921.462242-66.336665,3.751874-99.027216,9.689642-9.483513,1.722544-5.465817,16.181262,3.987594,14.464186h0Z" style="fill: #434343; stroke-width: 0px;"/>
  <path d="m2077.924267,543.491615c14.595019,1.208633,29.190038,2.417266,43.785057,3.6259,9.620249.796666,9.567595-14.207695,0-15-14.595019-1.208633-29.190038-2.417266-43.785057-3.6259-9.620249-.796666-9.567595,14.207695,0,15h0Z" style="fill: #434343; stroke-width: 0px;"/>
  <path d="m1079.261998,569.114704c46.060527.313225,90.75704-27.315034,110.56502-69.006313,4.121071-8.673913-8.807272-16.294621-12.95206-7.570787-17.630039,37.107209-56.435967,61.857115-97.61296,61.5771-9.654166-.065651-9.664486,14.934279,0,15h0Z" style="fill: #434343; stroke-width: 0px;"/>
  <path d="m1103.31031,601.068181c44.219779-7.786345,83.88577-35.139382,107.426322-73.285067,5.083721-8.237786-7.886144-15.779721-12.95206-7.570787-21.639244,35.064759-57.956076,59.259296-98.461856,66.391669-9.490109,1.671045-5.468031,16.129159,3.987594,14.464186h0Z" style="fill: #434343; stroke-width: 0px;"/>
  <path d="m1154.610286,724.941694c22.616287,42.697008,65.669644,70.470187,111.435347,82.874253,26.415368,7.159465,54.018572,9.727359,81.327169,9.610464,25.812928-.110493,52.603884-2.067498,76.835268-11.638028,12.874397-5.084926,24.054305-12.308162,35.192533-20.418441,10.868797-7.914093,21.856009-16.017096,35.091379-19.356002,9.354202-2.359798,5.390677-16.830055-3.987594-14.464186-23.086205,5.82399-39.318726,23.756277-59.704595,34.787144-21.344615,11.549648-46.106056,14.908177-70.038586,15.8139-49.540729,1.874863-101.537742-4.659574-143.959941-32.106253-20.494742-13.259865-37.780932-31.042247-49.23892-52.673639-4.520244-8.533713-17.47237-.963049-12.95206,7.570787h0Z" style="fill: #434343; stroke-width: 0px;"/>
  <path d="m1090.210063,720.879248c40.083852,62.889144,102.628478,110.190275,173.607938,132.805889,72.934252,23.238453,152.144213,17.464756,222.018506-13.14862,39.452903-17.285135,75.416771-42.647003,104.680858-74.273151,6.548776-7.077363-4.033354-17.710412-10.606602-10.606602-49.613772,53.618364-119.050242,88.197967-191.712646,95.851555-71.394941,7.520085-143.08043-11.907406-202.083827-52.518146-32.971192-22.693346-61.434889-51.922402-82.952167-85.681712-5.173531-8.116957-18.160968-.601675-12.95206,7.570787h0Z" style="fill: #434343; stroke-width: 0px;"/>
  <path d="m1023.402253,712.026581c46.578508,77.45982,112.949001,146.460414,198.156049,180.332618,48.856271,19.421745,103.015015,25.340416,155.262106,25.895295,52.479173.557344,105.759459-6.878056,153.826379-28.779054,45.641181-20.795745,86.177684-55.019917,109.337528-100.003577,4.411529-8.568569-8.527135-16.165377-12.95206-7.570787-19.820869,38.498326-52.728413,68.205676-90.802232,88.183507-43.818751,22.992272-93.630041,31.966485-142.735356,33.073603-51.202262,1.154394-104.722964-3.420803-153.450369-19.927871-40.691249-13.784711-77.929334-36.827158-110.187377-65.029196-37.166614-32.493424-68.109586-71.516861-93.502607-113.745324-4.969088-8.263567-17.944102-.730953-12.95206,7.570787h0Z" style="fill: #434343; stroke-width: 0px;"/>
  <path d="m2291.218134,1325.319671c14.331731-6.253773,26.186678-17.03993,34.166051-30.450149,4.947813-8.315349-8.014845-15.868325-12.95206-7.570787-6.773528,11.383664-16.673411,19.783977-28.784777,25.068876-3.741515,1.632642-4.524549,7.038862-2.690637,10.261424,2.194372,3.855964,6.570563,4.301175,10.261424,2.690637h0Z" style="fill: #434343; stroke-width: 0px;"/>
  <path d="m2363.025311,1251.088383c10.565729-18.034469,17.980332-37.769432,21.736303-58.334182,1.723675-9.437492-12.729578-13.484942-14.464186-3.987594-3.538876,19.376108-10.266194,37.753869-20.224178,54.750989-4.889976,8.346619,8.069762,15.904303,12.95206,7.570787h0Z" style="fill: #434343; stroke-width: 0px;"/>
  <path d="m2395.282609,1147.086957v-56.347826c0-9.651784-15-9.667771-15,0v56.347826c0,9.651784,15,9.667771,15,0h0Z" style="fill: #434343; stroke-width: 0px;"/>
  <path d="m2389.02614,1046.913421c1.502028-19.915895-3.339993-39.857913-13.577981-56.986114-4.9479-8.277859-17.921704-.743449-12.95206,7.570787,8.990799,15.041647,12.846656,31.957894,11.530041,49.415327-.726159,9.628382,14.277355,9.581792,15,0h0Z" style="fill: #434343; stroke-width: 0px;"/>
  <path d="m2351.088691,943.107775c-13.644585-10.329948-27.28917-20.659895-40.933755-30.989843-3.254032-2.46354-8.356285-.489625-10.261424,2.690637-2.288789,3.820692-.52177,7.829397,2.690637,10.261424,13.644585,10.329948,27.28917,20.659895,40.933755,30.989843,3.254032,2.46354,8.356285.489625,10.261424-2.690637,2.288789-3.820692.52177-7.829397-2.690637-10.261424h0Z" style="fill: #434343; stroke-width: 0px;"/>
  <path d="m2273.968175,895.612635c-10.845216-2.979901-20.278014-8.626276-28.075557-16.726488-6.707477-6.967834-17.306093,3.647064-10.606602,10.606602,9.526218,9.895987,21.453797,16.945954,34.694565,20.584071,9.321395,2.561206,13.298963-11.905734,3.987594-14.464186h0Z" style="fill: #434343; stroke-width: 0px;"/>
  <path d="m2217.402698,850.586515c-5.578392-18.674773-11.156785-37.349546-16.735177-56.024319-2.756186-9.226878-17.237615-5.297011-14.464186,3.987594,5.578392,18.674773,11.156785,37.349546,16.735177,56.024319,2.756186,9.226878,17.237615,5.297011,14.464186-3.987594h0Z" style="fill: #434343; stroke-width: 0px;"/>
  <path d="m2203.706463,761.984275c1.683653-16.353277,6.96129-32.075179,15.141975-46.304255,4.819753-8.383238-8.136551-15.946643-12.95206-7.570787-9.569283,16.644332-15.226427,34.803739-17.189914,53.875042-.415445,4.035209,3.744446,7.5,7.5,7.5,4.400893,0,7.083366-3.453242,7.5-7.5h0Z" style="fill: #434343; stroke-width: 0px;"/>
  <path d="m2241.210709,680.738784c14.692357-11.169542,27.046693-24.665212,36.516504-40.541854,4.956827-8.310384-8.006294-15.862627-12.95206-7.570787-8.077692,13.542681-18.557856,25.598907-31.135231,35.160581-3.248459,2.46957-4.867134,6.43687-2.690637,10.261424,1.818358,3.195229,7.043515,5.136981,10.261424,2.690637h0Z" style="fill: #434343; stroke-width: 0px;"/>
  <path d="m2301.787632,607.771718c6.236438-16.93081,10.165655-34.409687,12.173738-52.329403.451787-4.031655-3.770461-7.5-7.5-7.5-4.43006,0-7.046909,3.45671-7.5,7.5-1.852855,16.534495-5.890868,32.739585-11.637923,48.341809-3.341453,9.071447,11.150161,12.984576,14.464186,3.987594h0Z" style="fill: #434343; stroke-width: 0px;"/>
  <path d="m2306.381443,507.966122c-8.683862-13.115704-21.987387-20.978289-37.544778-22.751966-4.030853-.459552-7.5,3.776019-7.5,7.5,0,4.436292,3.457487,7.039119,7.5,7.5,9.956037,1.135074,19.100671,7.02782,24.592718,15.322753,5.305575,8.013295,18.301796.509207,12.95206-7.570787h0Z" style="fill: #434343; stroke-width: 0px;"/>
  <path d="m2237.478703,476.320072c-10.421318-1.164028-20.842635-2.328056-31.263953-3.492084-4.031803-.45034-7.5,3.769425-7.5,7.5,0,4.428898,3.456567,7.048361,7.5,7.5,10.421318,1.164028,20.842635,2.328056,31.263953,3.492084,4.031803.45034,7.5-3.769425,7.5-7.5,0-4.428898-3.456567-7.048361-7.5-7.5h0Z" style="fill: #434343; stroke-width: 0px;"/>
  <path d="m1186.611907,428.904291c11.512592,2.998628,23.025184,5.997257,34.537776,8.995885,9.348551,2.434971,13.336607-12.029094,3.987594-14.464186-11.512592-2.998628-23.025184-5.997257-34.537776-8.995885-9.348551-2.434971-13.336607,12.029094-3.987594,14.464186h0Z" style="fill: #434343; stroke-width: 0px;"/>
  <path d="m1198.248987,393.355686c22.938258,1.35309,45.876517,2.706179,68.814775,4.059269,9.642762.56881,9.609712-14.433139,0-15-22.938258-1.35309-45.876517-2.706179-68.814775-4.059269-9.642762-.56881-9.609712,14.433139,0,15h0Z" style="fill: #434343; stroke-width: 0px;"/>
  <path d="m1190.369216,361.147488c11.747006-4.518761,23.494011-9.037521,35.241017-13.556282,3.764312-1.448031,6.407398-5.051334,5.238296-9.22589-1.01016-3.607014-5.411964-6.705411-9.22589-5.238296-11.747006,4.518761-23.494011,9.037521-35.241017,13.556282-3.764312,1.448031-6.407398,5.051334-5.238296,9.22589,1.01016,3.607014,5.411964,6.705411,9.22589,5.238296h0Z" style="fill: #434343; stroke-width: 0px;"/>
  <path d="m1165.734542,342.511423c12.559903-24.606022,26.678476-48.361072,42.289484-71.153707,5.468582-7.984327-7.524536-15.495169-12.95206-7.570787-15.611005,22.792631-29.729578,46.547681-42.289484,71.153707-4.380085,8.580995,8.557375,16.180385,12.95206,7.570787h0Z" style="fill: #434343; stroke-width: 0px;"/>
  <path d="m1133.717391,326.913043v-34.434783c0-9.651784-15-9.667771-15,0v34.434783c0,9.651784,15,9.667771,15,0h0Z" style="fill: #434343; stroke-width: 0px;"/>
  <path d="m1094.768604,334.581189c-6.621512-27.296078-13.243023-54.592156-19.864535-81.888234-2.274616-9.376726-16.742885-5.405965-14.464186,3.987594,6.621512,27.296078,13.243023,54.592156,19.864535,81.888234,2.274616,9.376726,16.742885,5.405965,14.464186-3.987594h0Z" style="fill: #434343; stroke-width: 0px;"/>
  <path d="m1065.662043,343.64917c-10.570129-10.230987-17.18361-23.065305-19.702765-37.53879-1.652179-9.492384-16.110083-5.468702-14.464186,3.987594,2.929546,16.831333,11.299831,32.290658,23.560349,44.157798,6.939369,6.71672,17.558586-3.877672,10.606602-10.606602h0Z" style="fill: #434343; stroke-width: 0px;"/>
  <path d="m1932.386177,1163.73558c-26.224424-4.170253-49.040516-20.827527-61.499284-44.240941-3.034287-5.702251-5.300183-11.702207-6.845254-17.975109-1.047055-4.250984-2.645122-10.747356-.092203-14.825951,2.926634-4.67565,10.516393,4.779044,12.456419,6.915281,5.500954,6.057315,9.81667,12.949543,13.319675,20.327598,2.372649,4.997291,10.518704,4.797139,12.95206,0,2.759474-5.44005,4.002748-11.009107,4.823547-17.011684.631695-4.61964.803196-10.270338,3.158855-14.391315,1.228706-2.149492,5.020846-5.850748,7.842734-5.364883,2.96443.510408,1.768124,6.040168,1.761294,8.453634-.078648,27.790735-.157291,55.581469-.235933,83.372204-.027316,9.652884,14.972646,9.666512,15,0,.048111-17.00139.096221-34.002781.144333-51.004171.024056-8.500695.048112-17.001391.072169-25.502086.021009-7.423602,1.241312-16.269264-2.823316-22.915601-6.836869-11.179408-21.965295-8.014617-30.126114-.312789-10.775871,10.169801-6.441884,25.025614-12.569629,37.105904h12.95206c-3.449483-7.265326-7.778452-13.944146-12.886666-20.155192-4.818082-5.858277-10.734384-12.366839-18.134007-14.842392-14.819274-4.957805-23.984819,8.666983-23.895479,21.872339.08752,12.936227,5.748372,26.571425,12.256685,37.526682,6.973805,11.738806,16.324202,21.765266,27.231364,29.924693,12.026832,8.997031,26.31128,15.148429,41.149096,17.507963,4.028125.640559,8.02401-1.037911,9.22589-5.238296,1.018828-3.560649-1.24318-8.59058-5.238296-9.22589h0Z" style="fill: #434343; stroke-width: 0px;"/>
  <path d="m2270.654517,813.095329c-2.128338-11.488548-3.384236-23.080059-3.732995-34.760979-.263698-8.831987-1.295172-19.643712,2.529223-27.944137,3.383191-7.342842,10.868302-6.543076,15.664569-.818001,6.647741,7.935092,3.836525,20.35313,2.091686,29.532068-1.118346,5.883193,3.385534,10.283478,9.22589,9.22589,5.761548-1.043317,12.978511-1.994732,18.533677.441959,5.826012,2.555493,4.54061,8.824104.670427,12.718867-5.745169,5.781658-15.580653,6.549335-23.180502,7.925457-10.596634,1.918756-21.193267,3.837516-31.7899,5.756275-9.484207,1.717329-5.466067,16.175984,3.987594,14.464186,13.632291-2.468434,27.44443-4.484459,40.965947-7.504323,11.681085-2.608827,22.882243-8.479167,27.141109-20.362354,3.619821-10.10011-.813203-21.270713-10.423292-26.03581-9.219654-4.571503-20.091087-3.643337-29.892656-1.868442l9.22589,9.22589c2.74748-14.453449,5.085268-30.806492-5.048735-43.054513-8.114707-9.807487-22.619936-13.900645-33.27853-5.625928-10.057017,7.807688-11.336646,21.692012-11.504074,33.485383-.234277,16.502069,1.345627,32.966186,4.350487,49.186107,1.75604,9.47892,16.215176,5.464073,14.464186-3.987594h0Z" style="fill: #434343; stroke-width: 0px;"/>
  <path d="m1076.130481,1605.341081c-13.429383-8.013866-26.308278-16.926365-38.357585-26.903229-10.757742-8.907444-24.70368-19.153736-30.099438-32.493213-2.787625-6.891611-3.381964-14.41307-3.590479-21.765553-.172693-6.089339-.331231-12.306366.473999-18.363309.977198-7.350487,3.828454-20.250327,13.47665-20.035767,11.41389.253826,15.85108,18.10206,17.328571,26.760352.898334,5.264357,7.05834,6.219763,11.017486,4.482233,7.161252-3.142822,10.526539-10.56997,12.41544-17.720922,2.110905-7.99141,3.992665-15.533471,8.126553-22.788651,4.038857-7.088395,9.291844-13.368675,15.582304-18.573288,5.995602-4.960654,13.24457-9.626588,18.140476-1.224465,8.181671,14.040997,10.072082,33.002889,9.749279,48.926239-.362618,17.887311-4.341287,35.474589-10.293042,52.295195-6.838128,19.32564-16.53228,37.531462-27.65843,54.710584-5.263002,8.12624,7.717146,15.653658,12.95206,7.570787,21.888234-33.796116,38.932826-72.965865,39.978504-113.762333.479562-18.709824-2.068155-40.888103-11.776311-57.31126-4.998005-8.455058-13.365173-13.85605-23.411377-12.02608-9.453316,1.721972-18.067675,9.25482-24.482212,16.038441-7.302554,7.722734-12.953199,16.755905-16.862939,26.622776-1.923142,4.853365-3.061293,9.831686-4.342645,14.873934-.982735,3.86716-1.793133,7.707465-5.688447,9.416982,3.672495,1.494078,7.344991,2.988155,11.017486,4.482233-2.248291-13.17528-8.506595-29.079461-21.338113-35.256418-13.774244-6.630775-28.308594.934588-34.260457,14.153294-6.22749,13.830858-6.127963,30.653827-4.618392,45.466913.950909,9.331053,3.126884,18.525233,8.252631,26.506992,4.987261,7.766111,11.786756,14.154825,18.575641,20.318027,16.026418,14.54938,33.537955,27.461702,52.121998,38.551565,8.309419,4.958572,15.86152-8.004639,7.570787-12.95206h0Z" style="fill: #434343; stroke-width: 0px;"/>
  <path d="m1082.765107,1520.369089c4.164974-6.26681,8.329949-12.533621,12.494923-18.800431,5.358326-8.062382-7.627672-15.582104-12.95206-7.570787-4.164974,6.26681-8.329949,12.533621-12.494923,18.800431-5.358326,8.062382,7.627672,15.582104,12.95206,7.570787h0Z" style="fill: #434343; stroke-width: 0px;"/>
</svg>