<?xml version="1.0" encoding="UTF-8"?><svg id="Layer_1" xmlns="http://www.w3.org/2000/svg" viewBox="0 0 29.911744 29.219878"><path d="m.483952,21.737839c.393532.076301.707703.264522,1.053501.479683.371936.231424.740058.469075,1.104922.711484.741607.492712,1.468182,1.007551,2.180299,1.541966.270175.202756.698522.043513.855119-.22422.186924-.319583.046607-.651874-.22422-.855119-.734724-.551381-1.484876-1.081885-2.250965-1.588822-.72711-.481143-1.512876-1.100966-2.386356-1.270322-.331044-.064185-.674538.093382-.768824.436525-.084159.306288.103508.704257.436525.768824H.483952Z" style="fill:#fff; stroke-width:0px;"/><path d="m1.217447,20.899716c.559724-3.034257.711478-6.144325,1.509072-9.133613.186306-.698251.406493-1.388713.676583-2.059321.111272-.276277.441804-.709001.453874-.993482.129386-.198557.02411-.185528-.315829.039085l.225567.060225c.150335.090537.396219.108509.563421.155034,1.444094.401831,2.879791.797875,4.378573.928622.801241.069897.796552-1.180512,0-1.25-1.674223-.146052-3.20488-.76626-4.835261-1.09923-.693817-.141697-.976692.275211-1.24732.842535-.334023.70022-.615514,1.427039-.849669,2.166411C.74858,13.801643.626361,17.237507.012099,20.567416c-.145063.786384,1.059388,1.123552,1.205349.3323h0Z" style="fill:#fff; stroke-width:0px;"/><path d="m5.796492,24.073309c.40247-1.101868.4272-2.257728.486872-3.416044.064979-1.261352.304573-2.476103.66027-3.686598.343624-1.169409.753772-2.301148.991617-3.499798.253288-1.276477.496637-2.555016.744867-3.832487.152711-.785899-1.051816-1.122426-1.205349-.3323-.248229,1.277462-.490776,2.55618-.744867,3.832487-.238521,1.198098-.64808,2.330684-.991617,3.499798-.336808,1.146214-.587296,2.315743-.675161,3.508963-.089836,1.21999-.045835,2.426993-.471981,3.593678-.276427.756792.931127,1.083053,1.205349.3323h0Z" style="fill:#fff; stroke-width:0px;"/><path d="m8.868234,10.033224c.033108.005858.063645.014578.094981.026743l-.1493-.063005c.046075.020931.087606.046771.128352.076754l-.126492-.097727c.254394.198345.48214.442963.706786.673727.233614.239977.458861.487924.676108.742801.098978.116122.294507.183058.441942.183058.153292,0,.336401-.068088.441942-.183058.10934-.119109.190514-.275486.183058-.441942-.007753-.173097-.070573-.309972-.183058-.441942-.256161-.300531-.523549-.591338-.802389-.870973-.137638-.13803-.277974-.273364-.420887-.405924-.187384-.173808-.398166-.35776-.658743-.403862-.169147-.029926-.328539-.026564-.481599.063005-.129646.075867-.253288.224521-.287225.373519-.036441.159993-.028555.339582.063005.481599.083477.129479.215644.259293.373519.287225h0Z" style="fill:#fff; stroke-width:0px;"/><path d="m5.737082,24.579495c.606318-.115018,1.275491-.19149,1.855824-.406103.5444-.201325.683231-.664319.842445-1.172649.405056-1.293246.806327-2.588245,1.156074-3.897766.338463-1.267271.62942-2.548704.827057-3.845962.201654-1.323624.29661-2.660073.72608-3.93691.257033-.764172-.94981-1.092029-1.205349-.3323-.3705,1.101514-.496,2.246704-.648959,3.392691-.15991,1.198075-.398807,2.382926-.689316,3.555916-.286276,1.155901-.620199,2.299277-.968884,3.437699-.096236.3142-.193799.627991-.291705.941673-.048975.156912-.107714.62472-.220856.705142-.131022.093131-.567576.119811-.739232.156982-.32423.07021-.649563.134411-.975479.196237-.789415.149751-.455135,1.354724.3323,1.205349h0Z" style="fill:#fff; stroke-width:0px;"/><path d="m8.84777,22.939673c.400745.273544.785917.604154,1.250715.75473.207836.06733.457899-.00737.608091-.160733.343607-.350862.295858-.785041.310597-1.248749.022575-.710232.04515-1.420464.067726-2.130696.049553-1.558972.099601-3.117928.148659-4.676915.043948-1.39661-.098956-2.782918-.047189-4.177095.025941-.69863-.043093-1.335171-.173381-2.019692-.155508-.817026-.147096-1.607487-.10795-2.434855.038047-.804155-1.212045-.802206-1.25,0-.034018.719002-.057162,1.428645.042676,2.143825.086686.620972.24565,1.211678.253379,1.842397.015782,1.287818.077499,2.590919.054544,3.878526-.024685,1.384638-.085732,2.76947-.129728,4.153627-.020505.645092-.041009,1.290184-.061514,1.935275-.009579.301358-.019158.602717-.028737.904075-.002943.092582.023511.960204.037035.946394l.608091-.160733c-.327681-.106155-.668986-.435459-.952115-.628719-.666112-.454681-1.292099.62801-.630899,1.079338h0Z" style="fill:#fff; stroke-width:0px;"/><path d="m2.855977,10.556496c.081853-.749905.163983-1.500264.209438-2.253447.02268-.375812.036713-.752264.036744-1.128796.000013-.161254-.002316-.322526-.007656-.483693-.003511-.107511-.008342-.214962-.014494-.322353.016905-.250549-.04167-.222408-.175724.084425l-.315449.085331c1.492131-.160865,3.018855-.163415,4.5178-.242139.751725-.03948,1.503451-.078961,2.255176-.118441.167995-.008823.405235.022349.563794-.02961.278925.022629.233453-.065818-.136416-.265341.004568.055257.008777.110542.012628.165854.026242.373586.028769.746399.013495,1.120503-.032842.804389,1.21722.802889,1.25,0,.022445-.549742.119507-1.373769-.17083-1.868239-.354489-.603725-1.201974-.390535-1.774297-.360476-1.396061.073321-2.792123.146642-4.188184.219963-.697968.036657-1.396411.068258-2.094092.109981-.708879.042393-1.041421.382475-1.007901,1.098191.065725,1.40334-.071929,2.794787-.224032,4.18829-.036683.336069.313513.625.625.625.368396,0,.588212-.287965.625-.625h0Z" style="fill:#fff; stroke-width:0px;"/><path d="m10.155305,6.119977c.026276.001575.259325.027826.11367.006127.055688.008296.111166.017931.166506.028283.12952.024228.257995.053662.386691.081832.283167.061982.568592.114307.85812.135698.247983.018322.496781.012535.745141.020428.054893.001745.109788.003945.164604.007383.027793.001743.258078.028389.105127.005018.126075.019264.2489.048414.370032.088504.3106.102797.696486-.11893.768824-.436525.078435-.344364-.103971-.658761-.436525-.768824-.538717-.178296-1.105463-.128636-1.662271-.162325-.064079-.003877-.127898-.009493-.191733-.016257.141705.015017-.05647-.010624-.08472-.015786-.129702-.023699-.258349-.052604-.387096-.080934-.302205-.066499-.60688-.124069-.916371-.142623-.326959-.019601-.639491.301476-.625.625.015918.355386.274751.604003.625.625h0Z" style="fill:#fff; stroke-width:0px;"/><path d="m10.646752,23.751541c1.002095-.3135,2.012835-.598326,3.031174-.854183.317186-.079693.538842-.452652.436525-.768824-.10622-.32823-.428936-.521921-.768824-.436525-1.018339.255856-2.029079.540682-3.031174.854183-.311593.09748-.542965.439911-.436525.768824.101342.313158.43467.541063.768824.436525h0Z" style="fill:#fff; stroke-width:0px;"/><path d="m13.098147,6.268412c.139032,2.634107.252299,5.266987.519547,7.89179.131308,1.289658.129717,2.568143.086447,3.862479-.022231.664982-.045553,1.32993-.068353,1.994893-.012096.352784.12628,1.726726-.113203,1.943709l.441942-.183058-.194938.00623c-.802388.025645-.805936,1.275758,0,1.25,1.432546-.045785,1.082733-2.040853,1.116199-3.016882.051517-1.502484.151802-3.014326.086742-4.517445-.064308-1.48573-.281553-2.963702-.369593-4.449219-.094443-1.593564-.170648-3.18836-.254789-4.782497-.042239-.800257-1.292502-.80524-1.25,0h0Z" style="fill:#fff; stroke-width:0px;"/><path d="m14.420311,6.745673c.476793-.031498.954639-.075245,1.432402-.08755.111842-.002881.223826-.003209.33563.001339.04758.001935.095142.004629.142618.008338.031501.002461.062959.005384.094375.008768.071233.008413.062586.007167-.02594-.00374.00357.006766.128084.023654.138232.025851.060805.013165.121112.028806.180543.047218.040508.012549.098222.021785.132064.046062-.077141-.033622-.08399-.035917-.020546-.006885.028332.013703.056265.028175.0838.043416.288079.154305.693467.081738.855119-.22422.15338-.290302.083533-.690276-.22422-.855119-.95685-.512522-2.088533-.321888-3.124076-.253477-.32556.021507-.640808.272063-.625.625.01434.320162.275624.648081.625.625h0Z" style="fill:#fff; stroke-width:0px;"/><path d="m14.622699,22.339006c1.180631.184935,2.416112.115745,3.519398-.371344.30016-.132517.392844-.593569.22422-.855119-.200406-.310845-.533997-.365991-.855119-.22422.124779-.055089-.053982.020373-.079627.029659-.051643.0187-.103687.036123-.156118.052479-.113686.035464-.228934.065769-.345069.092092-.111453.025262-.223679.047123-.336393.065959-.034856.005825-.177017.026288-.064298.011534-.067361.008817-.134951.015972-.202587.022297-.241578.02259-.484537.030946-.727096.02455-.11643-.00307-.232773-.009361-.348841-.019043-.058053-.004843-.115879-.011621-.173865-.017023-.074725-.009199-.07711-.0091-.007153.000297-.03844-.005452-.076824-.011274-.115152-.017468-.321659-.050385-.688051.081896-.768824.436525-.068128.299112.091121.71472.436525.768824h0Z" style="fill:#fff; stroke-width:0px;"/><path d="m16.948791,6.523828c.82289,4.879714-.105227,9.843562.423672,14.746068.085375.791366,1.336316.800088,1.25,0-.541388-5.018273.374758-10.07892-.468323-15.078368-.133476-.791508-1.338257-.455844-1.205349.3323h0Z" style="fill:#fff; stroke-width:0px;"/><path d="m11.958102,25.160011c1.27477.616062,2.639533.895047,4.051137.935515,1.372503.039348,2.918948-.022381,4.232809-.455528,2.763984-.911216,4.686915-3.502409,6.397764-5.705231.487587-.627797-.390842-1.518705-.883883-.883883-1.521811,1.959423-3.227926,4.377481-5.631122,5.307549-1.157887.448118-2.531119.496399-3.760417.492973-1.301874-.003629-2.59501-.200289-3.775388-.770734-.721128-.348502-1.355768.729028-.630899,1.079338h0Z" style="fill:#fff; stroke-width:0px;"/><path d="m19.461092,15.964545c1.315598-.288106,2.547395.592737,3.515893,1.372302,1.010783.813601,1.941332,1.736827,2.666057,2.817392.445828.66473,1.529105.039703,1.079338-.630899-.852611-1.271244-1.932421-2.352433-3.138427-3.288957-1.287346-.999688-2.768438-1.844568-4.455161-1.475188-.785446.172007-.453058,1.377336.3323,1.205349h0Z" style="fill:#fff; stroke-width:0px;"/><path d="m21.671034,12.883394c.179866-3.5983-.431389-7.21265-1.795576-10.547489-.300477-.734535-1.510249-.413048-1.205349.3323,1.326978,3.243877,1.925915,6.714442,1.750925,10.215189-.040191.804039,1.209916.801905,1.25,0h0Z" style="fill:#fff; stroke-width:0px;"/><path d="m17.737831,4.296516c.308763-.305924.575052-.667056.755593-1.063431.097678-.21445.18072-.432599.241525-.660185.02017-.075492.046301-.150249.065514-.225686.022126-.086875-.04004.08397.000371.008784.025786-.047976-.059531.057611-.080189.070375-.012055.007449-.161518.039895-.164288.048346.000695-.002122.144428.031703.156815.034422.117611.025816.235222.051632.352833.077449.235222.051632.470444.103265.705666.154897.483512.106133.967024.212267,1.450537.3184.318566.069927.69116-.095546.768824-.436525.071934-.315823-.095004-.693859-.436525-.768824-.522716-.114739-1.045432-.229478-1.568148-.344216-.261358-.057369-.522716-.114739-.784074-.172108-.30124-.066124-.614333-.163077-.920801-.073926-.530995.154466-.654367.679504-.797989,1.13924-.115369.369298-.341659.723863-.629549,1.009106-.239793.237588-.237907.645976,0,.883883.240383.240383.64335.238322.883883,0h0Z" style="fill:#fff; stroke-width:0px;"/><path d="m23.995298,14.732583c.374664-.60423.738703-1.211927.998734-1.876152.286403-.731589.368461-1.501244.365274-2.282556-.006669-1.634846-.18635-3.26576-.357414-4.889704-.035642-.338356-.261802-.621212-.625-.625-.310714-.003241-.660327.28963-.625.625.159523,1.51439.319719,3.031255.352615,4.55481.015309.709038-.001456,1.397598-.23736,2.074-.222498.637961-.597083,1.217632-.951187,1.788705-.425121.685603.655783,1.313978,1.079338.630899h0Z" style="fill:#fff; stroke-width:0px;"/><path d="m23.087263,7.305669c.310023-.173692.610185-.363759.897484-.573026.150635-.109721.298511-.223786.443936-.340311.069112-.055378.139341-.110569.205282-.169727.067134-.05577.067392-.057806.000774-.006108-.400509-.078882-.521467-.072162-.362875.020159.134026.125253.322709.219425.474676.322755.138447.094137.276894.188274.415341.28241.316451.21517.632901.43034.949352.64551.271069.184313.704789.06031.855119-.22422.167283-.316616.06507-.658416-.22422-.855119-.346118-.235342-.692236-.470684-1.038353-.706026-.168114-.114309-.336229-.228618-.504343-.342927-.179515-.122061-.364027-.279916-.581638-.326432-.309854-.066234-.564261.054192-.798579.247041-.074821.06158-.147431.12577-.22261.186962-.034428.028022-.069046.055834-.103935.08328.049253-.038746-.018496.014222-.031774.024179-.320012.239954-.655632.456788-1.004534.652262-.285444.159921-.404826.574984-.22422.855119.186177.288774.549747.395306.855119.22422h0Z" style="fill:#fff; stroke-width:0px;"/><path d="m25.726515,16.498021c.906098-.336755,1.521689-1.135718,2.024279-1.928294.49246-.776601.85612-1.644101,1.073739-2.537105.077273-.317091-.100725-.69234-.436525-.768824-.32215-.073375-.68602.096737-.768824.436525-.194522.798228-.45104,1.426596-.875323,2.1221-.101139.165792-.208451.327813-.321577.485666-.02662.037144-.053558.074048-.080825.110719-.007136.009597-.087561.113539-.048297.063838-.054847.069426-.110997.137913-.168621.205054-.126174.147015-.26062.285134-.407346.411714-.046367.04-.27265.174552-.322981.193258-.305566.113565-.54676.428187-.436525.768824.096845.29926.440718.558467.768824.436525h0Z" style="fill:#fff; stroke-width:0px;"/><path d="m26.787999,12.045113c.26927.034797.540655.041866.811137.016588.171048-.015985.342267-.038938.510986-.071484.068431-.013201.136453-.028479.203986-.045682.03002-.007647.059924-.015684.089732-.024119.277258-.078459-.257081.081923-.456421-.254563.141112.238198.328209.459397.489232.684784.07803.109219.148676.219295.218521.333645.045917.075175-.014166-.002804-.010401-.033722-.002172.017837.01929.0607.025288.078588.035825.106841.000956-.098657-.003196-.026794-.00452.07824.037293-.160606.002855-.026029-.080939.31629.10332.692931.436525.768824.325318.074097.682108-.09766.768824-.436525.1084-.423602-.035186-.82629-.277194-1.173968-.192269-.276221-.386795-.553053-.58825-.822647-.111213-.148828-.234198-.266806-.416193-.323549-.14727-.045917-.308514-.031663-.455.00704-.158202.041798-.314575.077391-.475008.109432-.078949.015768.126534-.012606.005045-.000316-.046265.00468-.092393.009518-.138775.012969-.077208.005745-.154654.008953-.232073.009603-.170609.001433-.340465-.010217-.509621-.032077-.146928-.018987-.342432.083548-.441942.183058-.108401.108401-.190032.286254-.183058.441942.00724.16164.060336.329285.183058.441942.130647.119932.267622.160531.441942.183058h0Z" style="fill:#fff; stroke-width:0px;"/><path d="m18.575885,23.861183c-.038819-.020298-.076892-.041535-.113757-.06524-.018906-.012157-.136336-.098681-.04261-.027125.09347.071361-.019256-.020249-.035923-.035783-.031955-.029783-.062721-.060856-.092356-.092945-.022354-.024205-.044083-.048997-.06527-.074228-.014164-.016912-.028077-.034029-.041738-.05135.063494.083064.076032.098748.037614.047053-.044267-.064132-.088648-.127698-.129818-.193945-.189104-.304287-.34738-.629246-.487991-.958386l.063005.1493c-.054643-.129647-.10608-.260468-.15436-.392615-.056846-.155592-.140265-.28752-.287225-.373519-.133967-.078396-.331406-.11161-.481599-.063005-.300724.097318-.556645.440046-.436525.768824.174268.476984.38174.946421.636868,1.386045.243807.420117.562475.827075,1.000787,1.05626.289519.151384.692398.083761.855119-.22422.152065-.287814.085133-.693364-.22422-.855119h0Z" style="fill:#fff; stroke-width:0px;"/><path d="m19.120556,25.039282c.770818-.374573,1.168845-1.236355,1.477567-1.990027.338666-.826771.525112-1.706936.582404-2.597818.112914-1.755806-.34412-3.547459-1.301939-5.023816-.436269-.672454-1.518891-.046616-1.079338.630899.79786,1.229802,1.187917,2.65683,1.144042,4.121887-.021401.714592-.152338,1.416552-.383324,2.093153-.198109.580297-.484172,1.401555-1.07031,1.686384-.723384.351523-.090362,1.42983.630899,1.079338h0Z" style="fill:#fff; stroke-width:0px;"/><path d="m14.801696,25.735122c-.252247.422397-.448019.886632-.574294,1.362138-.041856.157615-.019642.340367.063005.481599.075867.129646.224521.253288.373519.287225.159993.036441.339582.028555.481599-.063005.136287-.087866.24472-.21346.287225-.373519.056547-.212934.127556-.421328.212659-.62454l-.063005.1493c.086059-.202808.18567-.399145.298629-.588298.082701-.138486.105675-.326651.063005-.481599-.039923-.144974-.152018-.302083-.287225-.373519-.14505-.076637-.320769-.115052-.481599-.063005-.155921.050458-.288091.144172-.373519.287225h0Z" style="fill:#fff; stroke-width:0px;"/><path d="m18.475742,25.931574c.038855.867963.013691,1.737061-.07532,2.601322-.033603.326276.311457.639044.625.625.367338-.016453.589002-.27547.625-.625.089011-.864261.114175-1.733359.07532-2.601322-.0146-.32615-.277016-.640586-.625-.625-.326103.014606-.640661.275167-.625.625h0Z" style="fill:#fff; stroke-width:0px;"/><path d="m21.664936,25.458144l.020791.008111-.1493-.063005c.026719.012463.050882.026625.074853.043786l-.126492-.097727c.028587.023046.053371.04802.076786.076234l-.097727-.126492c.041667.054753.073465.114234.100923.177159l-.063005-.1493c.085492.20677.141892.427417.208881.640689.074946.238607.149893.477214.22484.71582.048201.153457.146664.291265.287225.373519.133967.078396.331406.11161.481599.063005.312856-.101244.541444-.434794.436525-.768824-.11242-.35791-.22484-.71582-.337259-1.073731-.056072-.178516-.112827-.361442-.204821-.525299-.052573-.093641-.11946-.185188-.197284-.258715-.124308-.117443-.247132-.179292-.404234-.240578-.142005-.055396-.355403-.010844-.481599.063005-.129646.075867-.253288.224521-.287225.373519-.036441.159993-.028555.339582.063005.481599.093241.144624.213813.224923.373519.287225h0Z" style="fill:#fff; stroke-width:0px;"/><path d="m24.435822,23.193593c.072739.00001.066948-.00527-.017373-.015842.032754.006272.064858.014951.096312.026038-.070733-.031905-.073942-.032194-.009627-.000866.030383.016212.060261.033305.089636.051279.123265.074165.242343.156154.361801.236242.243385.163173.483507.331213.72018.503979.118336.086383.23581.173947.352398.262676.029147.022182.058239.044437.087275.066764-.054005-.041777-.052741-.040699.003792.003234.057534.045348.115244.090462.172529.136127.22915.182665.45436.370142.67626.561539.247365.213361.644063.261247.883883,0,.215135-.234357.264374-.655851,0-.883883-.511749-.441403-1.042808-.861035-1.589654-1.258133-.251922-.182936-.507741-.360501-.767185-.532603-.319623-.212021-.659203-.429065-1.060225-.40655-.325852.018295-.640705.274367-.625.625.014464.322927.275396.644628.625.625h0Z" style="fill:#fff; stroke-width:0px;"/><path d="m6.849014,3.899578l.038794-.216446c.026047-.083075.029767-.16615.011163-.249225-.003772-.083176-.028495-.160635-.074168-.232375-.039275-.072834-.092933-.131286-.160974-.175356-.060364-.055242-.131213-.092532-.212546-.111869l-.16615-.022326c-.112818.000351-.217967.028794-.315449.085331l-.126492.097727c-.07746.077983-.131038.169914-.160733.275792l-.038794.216446c-.026047.083075-.029767.16615-.011163.249225.003772.083176.028495.160635.074168.232375.039275.072834.092933.131286.160974.175356.060364.055242.131213.092532.212546.111869l.16615.022326c.112818-.000351.217967-.028794.315449-.085331l.126492-.097727c.07746-.077983.131038-.169914.160733-.275792h0Z" style="fill:#fff; stroke-width:0px;"/><path d="m7.624377,2.515365c.804315,0,.805648-1.25,0-1.25-.804315,0-.805648,1.25,0,1.25h0Z" style="fill:#fff; stroke-width:0px;"/><path d="m9.215122,1.792299c.804315,0,.805648-1.25,0-1.25-.804315,0-.805648,1.25,0,1.25h0Z" style="fill:#fff; stroke-width:0px;"/><path d="m11.203553,1.25c.804315,0,.805648-1.25,0-1.25-.804315,0-.805648,1.25,0,1.25h0Z" style="fill:#fff; stroke-width:0px;"/><path d="m12.830451,1.35846c.804315,0,.805648-1.25,0-1.25-.804315,0-.805648,1.25,0,1.25h0Z" style="fill:#fff; stroke-width:0px;"/><path d="m14.348889,1.900759c.804315,0,.805648-1.25,0-1.25-.804315,0-.805648,1.25,0,1.25h0Z" style="fill:#fff; stroke-width:0px;"/><path d="m16.156554,2.840745c.804315,0,.805648-1.25,0-1.25-.804315,0-.805648,1.25,0,1.25h0Z" style="fill:#fff; stroke-width:0px;"/><path d="m8.768844,25.822424c.633725.314412,1.273811.615816,1.920508.902622.351159.155737.704306.306936,1.058673.455222.379108.158638.723327.235484,1.136822.176226.324775-.046543.531352-.475799.436525-.768824-.115085-.355625-.420742-.486408-.768824-.436525.061404-.011209.05407-.015078-.022002-.011606.06197.009828.054962.00714-.021025-.008063-.06158-.01932-.123453-.035762-.184327-.057785-.060608-.021926-.120053-.046885-.17961-.07147-.099561-.0411-.106837-.044597-.176597-.074458-.281818-.120636-.562869-.242988-.842546-.368517-.580871-.260716-1.156346-.533189-1.726699-.81616-.292489-.145114-.690122-.088069-.855119.22422-.149265.282514-.088461.699987.22422.855119h0Z" style="fill:#fff; stroke-width:0px;"/><path d="m6.166298,26.444291c1.706374,1.423031,3.754104,2.397971,5.950166,2.763983.332571.055429.672876-.087332.768824-.436525.082247-.299328-.101697-.713019-.436525-.768824-1.977403-.329568-3.855564-1.155717-5.398582-2.442518-.259046-.216032-.630046-.253838-.883883,0-.22222.22222-.260459.666674,0,.883883h0Z" style="fill:#fff; stroke-width:0px;"/></svg>