<svg xmlns="http://www.w3.org/2000/svg" width="24" height="24" fill="none" viewBox="0 0 24 24" aria-hidden="true" class="Icon-module--icon24--b74c8 SocialsNavigation-module--icon--fd20c ariaHidden"><path fill="#fff" d="M6.998 0C3.139 0 0 3.142 0 7.002v10C0 20.861 3.142 24 7.002 24h10C20.861 24 24 20.858 24 16.998v-10C24 3.139 20.858 0 16.998 0h-10zM19 4a1 1 0 1 1 0 2 1 1 0 0 1 0-2zm-7 2c3.309 0 6 2.691 6 6s-2.691 6-6 6-6-2.691-6-6 2.691-6 6-6zm0 2a4 4 0 0 0-4 4 4 4 0 0 0 1.172 2.828A4 4 0 0 0 12 16a4 4 0 0 0 2.828-1.172A4 4 0 0 0 16 12a4 4 0 0 0-1.172-2.828A4 4 0 0 0 12 8z"></path></svg>