<?xml version="1.0" encoding="UTF-8"?>
<svg id="Layer_1" data-name="Layer 1" xmlns="http://www.w3.org/2000/svg" viewBox="0 0 256 256">
  <rect width="256" height="256" style="fill: #fcd603; stroke-width: 0px;"/>
  <path d="m65.930029,203.787172l18.950437-11.078717s4.664723,11.370262,16.909621,11.078717,12.244898-11.078717,12.244898-11.078717v-78.717201h23.61516v81.632653s-1.457726,32.361516-33.819242,31.48688-37.900875-23.323615-37.900875-23.323615Z" style="fill: #231f20; stroke-width: 0px;"/>
  <path d="m151.025714,203.154043l16.362042-11.611769s17.492711,29.154519,35.568513,8.163265c0,0,2.915452-9.912536-3.790087-13.411079s-30.90379-15.734733-30.90379-15.734733c0,0-14.577259-7.880428-13.702624-25.081594s6.997085-21.282799,6.997085-21.282799c0,0,12.536443-11.953353,27.696793-10.204082s18.075802,4.081633,18.075802,4.081633c0,0,9.620991,4.664723,12.244898,12.536443l-15.74344,11.953353s-8.746356-15.16035-23.61516-6.705539c0,0-10.787172,12.244898,7.87172,19.825073s29.154519,14.877512,29.154519,14.877512c0,0,12.514337,11.486821,9.912536,26.23036-2.623907,14.868805-9.912536,20.116618-9.912536,20.116618,0,0-11.483002,11.696638-28.919343,10.221497s-24.141881-6.139864-24.141881-6.139864c0,0-12.571954-9.671029-13.155044-17.834295Z" style="fill: #231f20; stroke-width: 0px;"/>
</svg>