<?xml version="1.0" encoding="UTF-8"?>
<svg id="Layer_1" data-name="Layer 1" xmlns="http://www.w3.org/2000/svg" viewBox="0 0 211.061643 232.637683">
  <path d="m27.587221,114.333665c2.816791,1.147008,5.628702,2.305935,8.434807,3.478852.738447.308662,1.476413.618463,2.214182.928741.917474.385854.330134.139165.132999.055848.36861.155789.737102.311857,1.105513.468116,1.473644.625036,2.945731,1.25374,4.416245,1.886106,5.587953,2.402988,11.153171,4.85883,16.694678,7.367072,11.155926,5.049485,22.215744,10.311297,33.17139,15.78175,6.158129,3.074922,12.282398,6.217194,18.374059,9.421747,2.313292,1.21692,5.541323.666045,6.840949-1.793758,1.219151-2.307487.677885-5.540727-1.793758-6.840949-21.817029-11.47697-44.067019-22.127085-66.696655-31.905267-6.71506-2.901553-13.461056-5.73226-20.236012-8.491047-2.429129-.98915-5.599445,1.072421-6.150593,3.492197-.661125,2.902626.890906,5.091338,3.492197,6.150593h0Z" style="fill: #fff; stroke-width: 0px;"/>
  <path d="m30.720631,109.459963c17.246114-11.863853,35.283786-22.567393,53.973433-31.996054,4.568048-2.304516,9.17431-4.533396,13.816508-6.684649,1.195723-.554113,2.393796-1.103145,3.594203-1.647035.560284-.253858,1.120674-.507581,1.682494-.758027.129509-.057732.970244-.425142.403003-.183733-.595157.25329.505426-.19571.619578-.23762.543121-.199403,1.09447-.38185,1.656565-.520363.280244-.069058.559788-.123795.842684-.178177-.986217.189581-.293625.038231-.046679.046929.270508.009528.589252.029946.864271.019167-.860758.033737-.382222-.075232-.052195.007605.703587.1766,1.391784.369116,2.073805.619096.291252.106752,1.751985.714301.822514.317279.609217.260225,1.218301.520762,1.827439.781174,1.370559.585928,2.741071,1.171963,4.111539,1.758103,2.512525,1.07459,5.024894,2.149542,7.537112,3.22485,5.100563,2.183201,10.200496,4.367872,15.299793,6.554028,11.568554,4.959637,23.133816,9.926951,34.695894,14.901665,1.285215.552978,2.443154.892227,3.852794.504042,1.159795-.319383,2.416668-1.216144,2.988155-2.297799,1.136979-2.151961.771496-5.73722-1.793758-6.840949-20.994284-9.033027-41.997544-18.045344-63.014912-27.024539-2.851451-1.218218-5.619129-2.455698-8.779926-2.525576-3.112269-.068805-5.971501,1.118128-8.756389,2.351382-4.880675,2.161347-9.709176,4.448134-14.502122,6.796909-9.606559,4.707678-19.049543,9.749027-28.306571,15.111448-10.398058,6.023398-20.556233,12.455651-30.456425,19.266137-2.150612,1.479437-3.331421,4.455915-1.793758,6.840949,1.379132,2.13914,4.536356,3.379121,6.840949,1.793758h0Z" style="fill: #fff; stroke-width: 0px;"/>
  <path d="m118.735995,152.186544c3.860148-4.614939,7.977695-9.009607,12.347742-13.145533,2.131144-2.016971,4.320044-3.972951,6.563103-5.864678,1.121532-.945866,2.256724-1.875503,3.404768-2.789005.287012-.228376.574997-.455514.86367-.681785.186929-.146521.962465-.742421.205136-.162531.698932-.535175,1.401054-1.066084,2.108449-1.590042,8.845068-6.551431,18.61082-11.797934,27.049783-18.906078,4.658243-3.923641,8.810364-8.570599,11.740993-13.935001,1.253728-2.294901.640479-5.554831-1.793758-6.840949-2.338912-1.235754-5.501807-.657491-6.840949,1.793758-.60898,1.114714-1.264418,2.201527-1.980844,3.250744-.347808.50937-.685871,1.07948-1.101729,1.533417.719552-.785439.24611-.311112.087834-.11925-.279737.339098-.554557.681739-.839574,1.016524-1.63536,1.920924-3.434406,3.697356-5.330531,5.359778-.911398.799065-1.851939,1.559043-2.793569,2.321625-1.012249.819773.839161-.623417-.203644.161029-.205405.154515-.409637.310521-.615364.464624-.618972.463652-1.243815.919496-1.872823,1.369426-2.110705,1.50979-4.270309,2.949822-6.442328,4.369484-4.506531,2.945533-9.054507,5.823775-13.401815,9.00426-4.961055,3.629501-9.743736,7.51089-14.268741,11.67234-4.969039,4.569809-9.625866,9.468907-13.956875,14.646776-1.675937,2.00364-2.11049,5.133677,0,7.071068,1.849957,1.698227,5.279099,2.14236,7.071068,0h0Z" style="fill: #fff; stroke-width: 0px;"/>
  <path d="m23.496764,105.903438c5.380791,22.109277,10.761582,44.218554,16.142373,66.327831l4.595274,18.881645c.61883,2.542728,3.63448,4.306446,6.150593,3.492197,2.641526-.854834,4.155282-3.426027,3.492197-6.150593-5.380791-22.109277-10.761582-44.218554-16.142373-66.327831l-4.595274-18.881645c-.61883-2.542728-3.63448-4.306446-6.150593-3.492197-2.641526.854834-4.155282,3.426027-3.492197,6.150593h0Z" style="fill: #fff; stroke-width: 0px;"/>
  <path d="m46.132479,192.714923c18.359948,10.855765,36.999647,21.236761,55.901562,31.118914,5.298197,2.769962,10.617218,5.499881,15.955029,8.192699,2.332559,1.176729,5.526699.693724,6.840949-1.793758,1.201162-2.273441.699421-5.583191-1.793758-6.840949-19.043182-9.606901-37.837418-19.705423-56.352978-30.293783-5.189902-2.967912-10.357313-5.974956-15.503612-9.01783-2.253197-1.332258-5.584028-.585218-6.840949,1.793758-1.271616,2.406788-.61175,5.418634,1.793758,6.840949h0Z" style="fill: #fff; stroke-width: 0px;"/>
  <path d="m110.377563,148.268363c1.09978,20.532621,1.512189,41.100449,1.221273,61.660592-.082111,5.80312-.221726,11.605268-.413703,17.405779-.086603,2.616683,2.361684,5.11817,5,5,2.783107-.124656,4.907214-2.196524,5-5,.680162-20.550801.672376-41.122761-.038431-61.672673-.200626-5.800232-.458723-11.598318-.769139-17.393698-.139658-2.607388-2.199744-5.125424-5-5-2.589174.115969-5.149829,2.202729-5,5h0Z" style="fill: #fff; stroke-width: 0px;"/>
  <path d="m126.081115,229.958039c13.645156-10.570556,26.940438-21.590556,39.848654-33.049619,3.705042-3.289092,7.377216-6.614965,11.019143-9.97379,1.927576-1.777738,1.93498-5.294792,0-7.071068-2.062464-1.893304-5.01485-1.89638-7.071068,0-12.688245,11.701938-25.761648,22.984274-39.203797,33.812052-3.858297,3.107895-7.74741,6.177274-11.664001,9.211357-2.07797,1.60975-1.81851,5.401709,0,7.071068,2.203434,2.022712,4.853891,1.717591,7.071068,0h0Z" style="fill: #fff; stroke-width: 0px;"/>
  <path d="m175.600371,93.519666c-2.770833,23.997876-5.247698,48.029501-7.423779,72.088622-.61109,6.756311-1.198042,13.514782-1.762568,20.275141-.218222,2.613266,2.455604,5.113964,5,5,2.895518-.129691,4.766239-2.200645,5-5,2.010269-24.073521,4.315394-48.122227,6.920827-72.138645.731661-6.744319,1.487412-13.486002,2.265521-20.225119.301094-2.607745-2.514632-5.11132-5-5-2.966232.132858-4.677424,2.206201-5,5h0Z" style="fill: #fff; stroke-width: 0px;"/>
  <path d="m95.433072,139.026969c1.453931-1.181808,2.916602-2.352727,4.390572-3.509464.368487-.28918.737964-.577082,1.107388-.865062,1.217051-.948738-.754125.574965.470566-.363888.743488-.569961,1.488451-1.137969,2.236478-1.701965,2.992088-2.25597,6.024555-4.458328,9.095098-6.606287,6.141588-4.296271,12.438425-8.366946,18.868151-12.2183,2.243551-1.343869,3.267931-4.554393,1.793758-6.840949-1.454603-2.256202-4.439937-3.231945-6.840949-1.793758-13.365235,8.005669-26.103804,17.002771-38.192129,26.828606-2.038411,1.656895-1.850184,5.372633,0,7.071068,2.165057,1.987482,4.896549,1.767529,7.071068,0h0Z" style="fill: #fff; stroke-width: 0px;"/>
  <path d="m129.407472,113.83783c14.143372-4.789943,28.286743-9.579887,42.430115-14.36983,2.472173-.837252,4.357202-3.47764,3.492197-6.150593-.794772-2.455928-3.498108-4.390516-6.150593-3.492197-14.143372,4.789943-28.286743,9.579887-42.430115,14.36983-2.472173.837252-4.357202,3.47764-3.492197,6.150593.794772,2.455928,3.498108,4.390516,6.150593,3.492197h0Z" style="fill: #fff; stroke-width: 0px;"/>
  <path d="m101.861221,65.53565c.243588.509021.475329,1.022479.69598,1.541855l-.504042-1.194398c1.117107,2.684519,1.880514,5.490832,2.279666,8.370914l-.178605-1.329198c.146781,1.119566.239682,2.242162.278195,3.370681.044676,1.309107.52703,2.598098,1.464466,3.535534.867211.867211,2.290031,1.520252,3.535534,1.464466,2.632606-.117915,5.09556-2.199886,5-5-.188998-5.538023-1.549611-10.819241-3.936487-15.807046-.51511-1.076414-1.875591-1.991423-2.988155-2.297799-1.196855-.329589-2.790581-.180781-3.852794.504042-1.067613.688304-2.007415,1.713241-2.297799,2.988155-.312653,1.372683-.103433,2.583367.504042,3.852794h0Z" style="fill: #fff; stroke-width: 0px;"/>
  <path d="m105.854104,92.886978c.159975.313746.309412.631316.449313.954512l-.504042-1.194398c.508245,1.208504.855457,2.468851,1.041889,3.766446l-.178605-1.329198c.173261,1.299437.181493,2.606671.017652,3.907525-.025969.688399.117573,1.330531.430626,1.926397.201645.619872.546258,1.156251,1.03384,1.609137.867211.867211,2.290031,1.520252,3.535534,1.464466,1.293119-.057919,2.634279-.482687,3.535534-1.464466l.78182-1.011938c.452292-.779857.679841-1.621055.682647-2.523596.481712-3.824666-.456108-7.748596-2.191501-11.152079-.550641-1.079926-1.845778-1.983213-2.988155-2.297799-1.196855-.329589-2.790581-.180781-3.852794.504042-1.067613.688304-2.007415,1.713241-2.297799,2.988155-.308653,1.35512-.130779,2.607771.504042,3.852794h0Z" style="fill: #fff; stroke-width: 0px;"/>
  <path d="m106.695503,113.671345l.775807,3.13212c.154695.650664.453012,1.217453.894952,1.700367.352557.544322.820173.973585,1.402848,1.287789.573919.365386,1.193585.563167,1.858997.593344.664599.148837,1.329198.11907,1.993797-.089302l1.194398-.504042c.751332-.444507,1.349251-1.042426,1.793758-1.793758l.504042-1.194398c.23814-.886132.23814-1.772264,0-2.658396l-.775807-3.13212c-.154695-.650664-.453012-1.217453-.894952-1.700367-.352557-.544322-.820173-.973585-1.402848-1.287789-.573919-.365386-1.193585-.563167-1.858997-.593344-.664599-.148837-1.329198-.11907-1.993797.089302l-1.194398.504042c-.751332.444507-1.349251,1.042426-1.793758,1.793758l-.504042,1.194398c-.23814.886132-.23814,1.772264,0,2.658396h0Z" style="fill: #fff; stroke-width: 0px;"/>
  <path d="m58.268716,66.339359c-6.879085-7.132956-14.657354-13.421984-23.03749-18.709208-2.215648-1.397904-5.608847-.538243-6.840949,1.793758-1.302087,2.46446-.571062,5.348929,1.793758,6.840949,1.95101,1.230938,3.868692,2.513026,5.745497,3.854543.965444.690087,1.911761,1.404176,2.863171,2.113212.583202.43463-.644652-.506613-.072012-.058156.259427.203167.519406.405612.777734.610182.464982.36822.927148.739985,1.386521,1.115178,3.625147,2.960841,7.063758,6.141763,10.312703,9.51061,1.819093,1.886226,5.266953,1.965306,7.071068,0,1.859641-2.025793,1.940828-5.058614,0-7.071068h0Z" style="fill: #fff; stroke-width: 0px;"/>
  <path d="m80.00198,56.56283c-8.757675-15.454709-17.515349-30.909418-26.273024-46.364127-1.290281-2.276965-4.59224-3.24353-6.840949-1.793758-2.301131,1.48357-3.174181,4.404909-1.793758,6.840949,8.757675,15.454709,17.515349,30.909418,26.273024,46.364127,1.290281,2.276965,4.59224,3.24353,6.840949,1.793758,2.301131-1.48357,3.174181-4.404909,1.793758-6.840949h0Z" style="fill: #fff; stroke-width: 0px;"/>
  <path d="m102.848368,51.223682c-1.205075-9.370523-2.41015-18.741045-3.615224-28.111568-.332335-2.584197-2.061353-5.131622-5-5-2.422828.108519-5.357336,2.221398-5,5l3.615224,28.111568c.332335,2.584197,2.061353,5.131622,5,5,2.422828-.108519,5.357336-2.221398,5-5h0Z" style="fill: #fff; stroke-width: 0px;"/>
  <path d="m127.562401,52.712819c1.147462-8.115972,4.142728-15.766079,7.068971-23.371887,3.053781-7.937301,5.800835-15.844661,6.777073-24.33735.299774-2.607854-2.513692-5.111362-5-5-2.965105.132807-4.67884,2.206094-5,5-.0314.284053-.065269.567811-.101606.851275.084057-.622022.083857-.64143-.0006-.058226-.072623.420925-.134959.843578-.20982,1.264189-.17445.980151-.375867,1.955365-.598914,2.925579-.446694,1.943037-.9854,3.864285-1.581607,5.766469-1.201344,3.832857-2.639831,7.585506-4.082387,11.332453-2.876574,7.471717-5.786802,14.997162-6.913901,22.969103-.196474,1.389659-.235543,2.588956.504042,3.852794.60694,1.037168,1.796168,2.026303,2.988155,2.297799,2.360077.53755,5.759017-.722588,6.150593-3.492197h0Z" style="fill: #fff; stroke-width: 0px;"/>
  <path d="m148.075917,62.080847c.218286-.523723.207997-.499449-.030869.072822.106855-.248515.214842-.496537.323959-.744067.218232-.495055.440979-.988119.66819-1.479117.454423-.981996.926716-1.955722,1.416502-2.920566.979582-1.929707,2.029155-3.823878,3.145782-5.677654s2.30031-3.667166,3.54813-5.435299c.624082-.88431,1.26831-1.753148,1.919437-2.617622.341324-.445867.328763-.429672-.037684.048583.166825-.212948.334616-.425132.503375-.636551.337542-.422865.67983-.841787,1.024079-1.259198,1.661649-2.014792,2.119867-5.125068,0-7.071068-1.838567-1.687771-5.293989-2.154753-7.071068,0-6.285061,7.620797-11.257038,15.948523-15.052624,25.06134-.462723,1.110952-.073091,2.866561.504042,3.852794.60694,1.037168,1.796168,2.026303,2.988155,2.297799,2.920116.665109,5.070328-.898588,6.150593-3.492197h0Z" style="fill: #fff; stroke-width: 0px;"/>
  <path d="m167.809925,72.15157c7.033679-6.834188,14.067359-13.668376,21.101038-20.502564,6.739615-6.548464,13.298321-13.421877,20.689221-19.249045,2.063677-1.627053,1.830049-5.391117,0-7.071068-2.189448-2.009873-4.869334-1.735901-7.071068,0-7.39094,5.827199-13.949567,12.700543-20.689221,19.249045l-21.101038,20.502564c-1.879218,1.825919-1.970382,5.262293,0,7.071068,2.019655,1.854006,5.066014,1.948186,7.071068,0h0Z" style="fill: #fff; stroke-width: 0px;"/>
  <path d="m33.45414,99.821345c-7.368617-8.959852-16.178763-16.681859-25.929357-22.960067l1.011938,7.852887c.752707-.669129,1.516664-1.324818,2.29801-1.960328.149532-.121622,1.57966-1.222007.685132-.550537.345151-.259085.690359-.517918,1.039486-.771665,1.629067-1.18401,3.313973-2.291285,5.04693-3.317239,1.732867-1.025901,3.51389-1.971303,5.33567-2.829524.390385-.183906.782585-.364012,1.176491-.540249.26265-.11741.52608-.233041.790291-.346895q-.532541.222537-.000352.003807c.93716-.369826,1.874748-.733679,2.823929-1.07199,2.457475-.875903,4.366334-3.44942,3.492197-6.150593-.783945-2.422472-3.512831-4.432359-6.150593-3.492197-8.735173,3.113427-16.675473,7.79335-23.608258,13.956344-2.512577,2.233589-1.544181,6.207055,1.011938,7.852887,2.319355,1.493385,4.562586,3.083694,6.777496,4.7268.748752.555453-.256695-.209881.19533.145819.227907.179341.456699.357523.683963.537687.568155.450405,1.13168.906567,1.690544,1.368451,1.061823.877562,2.106811,1.775489,3.133923,2.693442,4.110474,3.673625,7.922946,7.666857,11.424225,11.924229,1.66829,2.028553,5.365501,1.857953,7.071068,0,1.978847-2.15565,1.779623-4.907139,0-7.071068h0Z" style="fill: #fff; stroke-width: 0px;"/>
  <path d="m55.558149,57.184455l3.128784-2.350024c.582675-.314204,1.050291-.743466,1.402848-1.287789.44194-.482914.740257-1.049703.894952-1.700367.208372-.664599.23814-1.329198.089302-1.993797-.030177-.665412-.227958-1.285077-.593344-1.858997l-.78182-1.011938c-.623867-.619681-1.359312-1.048302-2.206336-1.285861l-1.329198-.178605c-.90254.002805-1.743739.230354-2.523596.682647l-3.128784,2.350024c-.582675.314204-1.050291.743466-1.402848,1.287789-.44194.482914-.740257,1.049703-.894952,1.700367-.208372.664599-.23814,1.329198-.089302,1.993797.030177.665412.227958,1.285077.593344,1.858997l.78182,1.011938c.623867.619681,1.359312,1.048302,2.206336,1.285861l1.329198.178605c.90254-.002805,1.743739-.230354,2.523596-.682647h0Z" style="fill: #fff; stroke-width: 0px;"/>
  <path d="m80.994257,45.31538l5.468164-1.59973c1.219505-.35677,2.342842-1.195056,2.988155-2.297799.365386-.573919.563167-1.193585.593344-1.858997.148837-.664599.11907-1.329198-.089302-1.993797-.391524-1.209848-1.141268-2.377107-2.297799-2.988155-1.179975-.623435-2.541586-.88764-3.852794-.504042l-5.468164,1.59973c-1.219505.35677-2.342842,1.195056-2.988155,2.297799-.365386.573919-.563167,1.193585-.593344,1.858997-.148837.664599-.11907,1.329198.089302,1.993797.391524,1.209848,1.141268,2.377107,2.297799,2.988155,1.179975.623435,2.541586.88764,3.852794.504042h0Z" style="fill: #fff; stroke-width: 0px;"/>
</svg>