<?xml version="1.0" encoding="UTF-8"?>
<svg id="Layer_1" data-name="Layer 1" xmlns="http://www.w3.org/2000/svg" viewBox="0 0 216.16 246.07">
  <defs>
    <style>
      .cls-1 {
        fill: #231f20;
        stroke-width: 0px;
      }
    </style>
  </defs>
  <path class="cls-1" d="m147.52,232.18c-4.03-9.71-8.05-19.42-12.08-29.13-1.76-4.25-3.52-8.49-5.29-12.74-1.46-3.52-2.55-8.6-6.18-10.62s-8.3-.33-12.06.31c-4.48.76-8.96,1.52-13.44,2.28-10.24,1.74-20.48,3.48-30.72,5.22l5.84,10.03c8.14-10.45,8.9-25.68,9.14-38.46.27-14.33-1.54-28.61-3.39-42.79-1.81-13.93-3.58-27.89-6.5-41.63s-7.85-28.15-7.46-42.87l-10.24,4.24c18.68,19.07,37.51,38.05,57.82,55.41,18.32,15.66,38.6,33.19,62.91,38.01l-2.65-10.03c-7.64,6.69-15.27,13.38-22.91,20.07-2.99,2.62-7.6,5.43-8.71,9.51-1.23,4.51,1.97,9.34,3.84,13.21,8.51,17.62,18.86,34.28,30.75,49.82l2.15-8.21c-10.27,7.1-20.72,13.94-31.34,20.5-6.56,4.05-.54,14.43,6.06,10.36,10.62-6.56,21.07-13.4,31.34-20.5,2.41-1.67,4.24-5.48,2.15-8.21-10.24-13.39-19.35-27.6-27.11-42.56-1.94-3.74-3.76-7.53-5.57-11.34-1.04,1.11-1.07,1.21-.08.29l2.15-1.88c1.91-1.67,3.82-3.35,5.73-5.02,6.68-5.85,13.36-11.71,20.04-17.56,3.28-2.87,1.67-9.17-2.65-10.03-23.41-4.64-42.93-22.16-60.44-37.35-19.24-16.69-37.18-34.8-55-52.98-3.73-3.8-10.1-.86-10.24,4.24-.36,13.24,3.13,25.95,6.2,38.7s5.24,26.69,7.02,40.18,3.59,26.5,4.04,39.86c.22,6.63.11,13.3-.6,19.9-.62,5.8-1.21,13.83-4.95,18.63s-.34,11.08,5.84,10.03c8.32-1.41,16.64-2.82,24.96-4.24,3.84-.65,7.68-1.3,11.52-1.96,1.92-.33,3.84-.65,5.76-.98,1.12-.19,7.05-.36,4.82-1.51s.48,2.87.95,4.02l2.64,6.37c1.51,3.64,3.02,7.28,4.53,10.92,3.27,7.89,6.54,15.78,9.82,23.66,2.92,7.03,14.53,3.95,11.57-3.19h0Z"/>
  <path class="cls-1" d="m58.41,148.48c-18.37-6.28-35.67-22.48-42.81-40.59s-3.36-39.13,11.65-52.7c5.74-5.19-2.77-13.65-8.49-8.49C.76,62.98-4.6,88.58,4.03,111.08c8.54,22.28,28.66,41.26,51.19,48.97,7.32,2.51,10.47-9.08,3.19-11.57h0Z"/>
  <path class="cls-1" d="m58.51,112c-5.97-3.19-11.93-9.46-15.37-15.29s-3.36-15.68-.83-21.73c1.26-3.01-1.36-6.57-4.19-7.38-3.45-.99-6.14,1.22-7.38,4.19-3.54,8.47-2.85,21.48,1.27,29.6s12.42,16.69,20.43,20.97c6.81,3.64,12.88-6.71,6.06-10.36h0Z"/>
  <path class="cls-1" d="m113.3,54.08c8.54-.52,17.48-1.21,25.72,1.62,7.11,2.44,13.89,7.11,19.61,11.94,11.02,9.3,19.51,21.18,23.71,35.04,2.23,7.37,13.82,4.23,11.57-3.19-4.92-16.23-14.85-30.61-27.99-41.31-6.66-5.43-13.97-10.35-22.03-13.43-9.75-3.71-20.36-3.27-30.59-2.66-7.67.46-7.73,12.47,0,12h0Z"/>
  <path class="cls-1" d="m107.48,29.13c-2.2-5.28-4.4-10.55-6.6-15.83-1.25-2.99-3.97-5.13-7.38-4.19-2.82.78-5.45,4.37-4.19,7.38l6.6,15.83c1.25,2.99,3.97,5.13,7.38,4.19,2.82-.78,5.45-4.37,4.19-7.38h0Z"/>
  <path class="cls-1" d="m143.83,28.73c.53-7.64.76-15.28.7-22.94s-12.06-7.74-12,0-.18,15.3-.7,22.94,11.47,7.67,12,0h0Z"/>
  <path class="cls-1" d="m171.81,47.61c7.14-7.96,14.66-15.56,22.54-22.79,5.7-5.23-2.8-13.7-8.49-8.49-7.89,7.23-15.4,14.83-22.54,22.79-5.14,5.73,3.32,14.25,8.49,8.49h0Z"/>
  <path class="cls-1" d="m195.62,73.84c7.07-1.03,11.89-4.69,17.59-8.73,2.64-1.87,3.89-5.24,2.15-8.21-1.53-2.61-5.55-4.03-8.21-2.15s-5.05,3.74-7.69,5.41c-2.17,1.37-4.53,1.74-7.04,2.11-3.21.47-4.97,4.53-4.19,7.38.95,3.44,4.16,4.66,7.38,4.19h0Z"/>
  <path class="cls-1" d="m60.73,229.75c7.17-1.95,14.48-2.14,21.85-2.69,3.44-.25,6.87-.61,10.28-1.17,2.39-.39,7.43-2.46,8.99-2.36l-4.24-1.76c.82.71,1.52,3.66,2,4.7.96,2.1,1.98,4.17,3.09,6.2,2.19,4.01,4.77,7.7,7.58,11.3,4.74,6.09,13.17-2.46,8.49-8.49-4.12-5.3-7.22-11.39-9.86-17.53-2.39-5.56-5.78-7.37-11.64-5.45-12.81,4.18-26.71,2.14-39.7,5.67-7.44,2.02-4.28,13.6,3.19,11.57h0Z"/>
</svg>