<?xml version="1.0" encoding="UTF-8"?><svg id="Layer_1" xmlns="http://www.w3.org/2000/svg" xmlns:xlink="http://www.w3.org/1999/xlink" viewBox="0 0 256.000006 256.000036"><defs><linearGradient id="linear-gradient" x1="301.391991" y1="-9.491504" x2="301.391991" y2="242.670198" gradientTransform="translate(-177.979691 246.364055) scale(1.015222 -1.015222)" gradientUnits="userSpaceOnUse"><stop offset=".18" stop-color="#0052cc"/><stop offset="1" stop-color="#2684ff"/></linearGradient></defs><rect x="20.000006" y="22.000036" width="215" height="205" style="fill:#fff;"/><path d="M224.000009.000143l-191.869045-.000143c-3.066514-.000002-6.152631.303954-9.083673,1.205343C8.69302,5.619741-.017285,18.382576.000026,32.03566v191.964603C.000026,241.673251,14.326818,256.000036,31.999812,256.000036h192.000197c17.699477-.08937,32.000216-14.387835,31.999998-31.994902V32.07626c.000234-17.607071-14.300505-31.905538-31.999998-31.994914V.000143ZM112.000017,196.794708c-.091267,8.423915-7.108785,15.205826-15.733612,15.205346h-48.449525c-8.65725.045209-15.725372-6.749638-15.816857-15.205346V51.408909c-.02311-8.487463,7.002307-15.386208,15.69171-15.408781.041716-.000105.083431-.000054.125147.000163h48.449525c8.689435,0,15.733612,6.880472,15.733612,15.367962h0v145.426456ZM204.649863,148.000081h-49.299702c-8.477652,0-15.350146-6.872492-15.350146-15.350141V51.39652c-.022979-8.480758,6.998889-15.373957,15.683768-15.396393.013886-.000035.027772-.000054.041658-.000054h48.924422c8.477652,0,15.350146,6.872492,15.350146,15.350141v81.299726c0,8.477649-6.872495,15.350141-15.350146,15.350141Z" style="fill:url(#linear-gradient); fill-rule:evenodd;"/></svg>