<svg xmlns="http://www.w3.org/2000/svg" width="24" height="24" fill="none" viewBox="0 0 24 24" aria-hidden="true" class="Icon-module--icon24--b74c8 SocialsNavigation-module--icon--fd20c ariaHidden"><g clip-path="url(#github-icon24)"><path fill="#fff" fill-rule="evenodd" d="M12.04 0A12.024 12.024 0 0 0 0 12.04c0 5.297 3.451 9.792 8.267 11.397.642.08.803-.24.803-.562v-2.087c-3.371.723-4.094-1.605-4.094-1.605-.561-1.364-1.364-1.766-1.364-1.766-1.124-.722.08-.722.08-.722 1.204.08 1.846 1.204 1.846 1.204 1.044 1.846 2.81 1.284 3.532.963.08-.802.401-1.284.803-1.605-2.65-.321-5.458-1.365-5.458-5.94a4.78 4.78 0 0 1 1.204-3.21c-.161-.321-.562-1.525.08-3.21 0 0 1.043-.322 3.29 1.203.964-.24 2.007-.401 3.05-.401 1.044 0 2.088.16 3.05.401 2.328-1.525 3.292-1.204 3.292-1.204.642 1.686.24 2.89.08 3.21.803.803 1.204 1.927 1.204 3.211 0 4.656-2.81 5.619-5.458 5.94.401.401.803 1.124.803 2.247v3.291c0 .321.24.722.802.562A11.959 11.959 0 0 0 24 11.959C24.08 5.378 18.702 0 12.04 0z" clip-rule="evenodd"></path></g><defs><clipPath id="github-icon24"><path fill="#fff" d="M0 0h24v24H0z"></path></clipPath></defs></svg>