<?xml version="1.0" encoding="UTF-8"?>
<svg id="Layer_1" data-name="Layer 1" xmlns="http://www.w3.org/2000/svg" viewBox="0 0 236.419602 217.599641">
  <path d="m74.485133,154.933434c-3.799746.27534-8.322765.895793-11.94364-.659698-3.817536-1.639976-4.993858-5.763554-5.621941-9.52413-1.560817-9.345215-1.189381-19.368019-1.071255-28.811681.131723-10.530715.775847-21.053528,1.926239-31.522034.20859-1.898158-.036841-5.211631.959268-6.903091.855578-1.452829,3.031447-1.860641,4.61401-2.209371,4.326286-.95333,8.860532.666657,13.013819-.923747,8.077966-3.093268,12.888675-12.302509,22.130307-13.397465,9.137722-1.082645,17.070349,5.120451,22.975906,11.342901,6.670446,7.028382,12.969341,14.965415,17.154367,23.751523,1.955405,4.105207,3.338907,8.681018,3.715231,13.221111.069601.839683.29837,5.975553.311165,5.960136.536986-.647-.979873.027791-1.684311.046016-1.216651.031477-2.47401.041073-3.683945-.129342-10.883958-1.532959-11.32602-12.604465-16.144502-20.395846-4.651084-7.520704-9.801484-12.971877-18.933847-13.471319-7.716542-.422011-7.692947,11.579279,0,12,3.832289.209585,5.460414,3.034679,7.608054,6.07382,3.420674,4.840618,4.537301,10.779296,7.578936,15.822528,5.605551,9.294373,16.704732,13.744531,27.359937,11.767041,12.878198-2.390053,10.440609-19.582427,7.482707-28.871545-3.752097-11.783242-11.353325-21.856749-19.388362-31.069899-7.419806-8.507712-16.533819-16.116059-28.05309-17.771803-11.747559-1.688557-20.794123,4.343286-29.574319,11.382292-2.843321,2.279465-2.962761,2.352947-6.413979,2.218302-2.865605-.111798-5.845667.22749-8.644151.873945-5.331804,1.231658-10.503225,3.907837-12.536144,9.269068-1.982851,5.229191-1.915306,11.601469-2.425312,17.129723-.64493,6.990775-1.065241,14.003185-1.254308,21.021152-.197677,7.337556-.149889,14.680632.147486,22.014834.244711,6.035361.302189,12.452207,2.066519,18.286417,4.023744,13.305541,15.747882,16.391835,28.329154,15.48016,7.657113-.554856,7.717887-12.55926,0-12h0Z" style="fill: #fff; stroke-width: 0px;"/>
  <path d="m122.599239,71.512003c15.729814.714931,31.471088.597627,47.208489.220342,7.539267-.180745,15.077345-.41014,22.61561-.627832,7.197304-.207845,15.577727-1.277527,22.406032,1.538427,5.579621,2.301004,5.224245,8.407579-.645509,9.909293-7.039702,1.801033-15.129684,1.55334-22.361447,1.917417-15.869439.798934-31.762503.702995-47.625612-.185857-7.715844-.432339-7.691359,11.569032,0,12,19.425754,1.088477,38.89682.970598,58.301326-.480967,7.795973-.583182,17.525469-.310603,23.518672-6.221971,5.102376-5.032706,6.383702-13.38326,3.072548-19.72012-7.944288-15.203715-32.715377-10.867391-46.494124-10.472632-19.997104.572914-40.0013,1.032672-59.995986.123899-7.720599-.350907-7.703128,11.649887,0,12h0Z" style="fill: #fff; stroke-width: 0px;"/>
  <path d="m171.775558,96.030741c1.616537,3.492654,2.2294,11.443104-.516701,13.796172-2.980483,2.553906-12.470867.52806-16.686974-.232226-7.550825-1.361632-10.790237,10.20082-3.190075,11.571348,8.726706,1.573677,22.340101,4.272212,28.897268-3.653376,6.333243-7.654934,5.792569-19.037887,1.858131-27.538548-3.240381-7.001096-13.58733-.912707-10.361648,6.05663h0Z" style="fill: #fff; stroke-width: 0px;"/>
  <path d="m159.741266,121.308637c2.215603,3.642225,7.210573,12.43696,2.286829,15.635213-5.275381,3.426661-14.823333-.852946-20.100936-2.573624-6.771013-2.207581-13.415434-4.864924-19.753633-8.12219-2.089439-1.073784-5.217256-2.378674-6.386648-4.567267-.516671-.966983-.175497-8.730256.7463-8.72801,7.722192.018813,7.733357-11.98116,0-12-12.075361-.029418-16.289794,17.954581-11.107948,26.78464,2.553127,4.350623,7.130934,7.09338,11.51351,9.280035,5.9279,2.957683,12.077496,5.539336,18.323522,7.744479,10.7578,3.798013,25.278024,9.186507,35.237565.79301,9.325436-7.859099,5.0146-21.406939-.396913-30.302914-4.007855-6.588504-14.389761-.565176-10.361648,6.05663h0Z" style="fill: #fff; stroke-width: 0px;"/>
  <path d="m110.365536,121.618184c-10.371246,4.019582-18.159036,14.151209-14.601964,25.697037,3.56976,11.587011,18.095401,16.547127,27.960356,21.3011,8.712801,4.198744,22.500356,13.708489,30.591218,4.076222,7.55349-8.992518,9.963183-21.158452,2.317174-30.779072-4.803135-6.043563-13.243939,2.497682-8.485281,8.485281,1.902604,2.393959,1.586251,5.807656.616421,8.511355-.565639,1.576893-2.289518,5.58542-3.763251,6.128413-1.281769.472265-7.093654-2.974373-8.494421-3.612578-3.383197-1.541421-6.727349-3.167262-10.070366-4.793436-5.437796-2.645156-12.211464-5.169629-16.714904-9.316298-5.235394-4.820636-2.157281-11.804212,3.835094-14.126676,7.124129-2.761097,4.027394-14.368622-3.190075-11.571348h0Z" style="fill: #fff; stroke-width: 0px;"/>
  <path d="m133.002157,163.280448c-10.12417,2.402704-20.595953,2.40175-30.950318,2.292151-4.604573-.048739-9.206393-.278747-13.434549-2.279438-4.326708-2.047325-8.08428-5.075364-12.474045-7.033079-6.992719-3.118562-13.104011,7.218708-6.05663,10.361648,5.149227,2.296415,9.574959,5.874405,14.770138,8.075808,4.918575,2.084195,10.1833,2.711765,15.490679,2.848158,11.951976.307151,24.166055.077743,35.8448-2.693899,7.510667-1.782458,4.330894-13.356252-3.190075-11.571348h0Z" style="fill: #fff; stroke-width: 0px;"/>
  <path d="m51.653616,157.122768c-5.795081,4.728803-12.071359,12.581989-19.921503,12.523609-4.206855-.031285-8.416118-.181321-12.622035-.271936-.719275-.015496-5.404865-.04456-5.409443-.116544,1.702144,1.887601,2.062971,1.778846,1.08248-.326265l-.430979-1.651401c-2.00332-8.29102-1.704211-17.321591-1.853757-25.800465-.154893-8.78203-.102639-17.566582-.082663-26.349463.038618-16.979116-.671133-33.782394,4.68362-50.140534.767451-2.344473,1.819915-8.309206,3.930685-9.834116,1.029864-.744018,6.00035.313927,7.291669.441535,2.025483.200159,4.032224.513982,6.029483.906132,4.653756.913737,7.470284,1.291601,9.940436,5.532876,2.250795,3.864638,4.32868,7.824359,6.31556,11.830159,3.431635,6.918605,13.785572.846429,10.361648-6.05663-3.217677-6.487238-6.719045-16.327216-13.469974-19.943892-7.038511-3.770743-17.916625-4.909891-25.789301-4.619796-8.666188.319335-11.50423,6.166534-14.337559,13.414471-3.256609,8.330725-5.266433,17.054083-6.243199,25.93848-1.910793,17.380058-.849724,35.49345-.704651,52.958809.07573,9.117189.065694,18.35851,1.125682,27.424937.716563,6.129004,1.520404,15.653356,8.612163,17.753602,4.157673,1.231308,9.15169.642491,13.45597.735225,4.566051.098373,9.379455.635719,13.897199-.185246,4.201854-.763561,7.182809-3.091274,10.424415-5.723572,4.074306-3.30848,8.132935-6.6365,12.199335-9.954694,5.986163-4.884727-2.547965-13.330149-8.485281-8.485281h0Z" style="fill: #fff; stroke-width: 0px;"/>
  <path d="m182.269211,44.629755c-3.719708-4.126437-6.710443-8.724346-9.152282-13.711011-1.424852-2.909799-5.559308-3.702415-8.209139-2.152509-2.968688,1.736407-3.582688,5.288463-2.152509,8.209139,2.886489,5.894719,6.636195,11.266917,11.028649,16.139662,5.181752,5.748348,13.646438-2.759781,8.485281-8.485281h0Z" style="fill: #fff; stroke-width: 0px;"/>
  <path d="m204.410458,45.708911V5.795867c0-7.721427-12-7.734217-12,0v39.913043c0,7.721427,12,7.734217,12,0h0Z" style="fill: #fff; stroke-width: 0px;"/>
  <path d="m222.620734,52.031186c3.54696-5.289761,7.570668-10.144423,12.049381-14.671346,5.437015-5.495541-3.043456-13.985684-8.485281-8.485281-5.183815,5.239615-9.821384,10.978952-13.925748,17.099997-4.312749,6.43182,6.077702,12.445495,10.361648,6.05663h0Z" style="fill: #fff; stroke-width: 0px;"/>
  <path d="m54.038143,201.06818c3.549032-3.346947,7.08922-6.703567,10.647228-10.040967,2.255079-2.115257,3.117378-3.861251,5.756116-2.231897,2.408378,1.487112,4.253921,4.200876,6.545397,5.925307,2.679742,2.016617,5.362676,2.956912,8.684162,3.297189,7.674958.786278,7.620033-11.219349,0-12-2.326239-.238317-4.71738-3.910862-6.332343-5.347807-2.835757-2.523169-6.078707-4.712048-9.994944-4.878143-4.494761-.190631-8.0505,2.111542-11.276378,5.00044-4.26477,3.819265-8.349488,7.862724-12.514519,11.790596-5.630088,5.309507,2.866807,13.783836,8.485281,8.485281h0Z" style="fill: #fff; stroke-width: 0px;"/>
  <path d="m64.882231,206.914565c7.069005,4.96844,15.192507,12.784171,24.586113,10.160313,8.900289-2.486063,11.028317-12.466933,18.778801-15.996913,7.01832-3.196514.926212-13.542004-6.05663-10.361648-6.40467,2.917025-8.630504,9.142605-13.727807,13.430308-5.011926,4.215886-13.405619-4.699217-17.523847-7.593708-6.331311-4.449953-12.333951,5.949642-6.05663,10.361648h0Z" style="fill: #fff; stroke-width: 0px;"/>
</svg>