<?xml version="1.0" encoding="UTF-8"?>
<svg id="Layer_1" data-name="Layer 1" xmlns="http://www.w3.org/2000/svg" viewBox="0 0 216.430969 248.265214">
  <path d="m95.277813,116.158496c-6.794637-6.116362-13.342046-12.494073-19.575742-19.182669-3.323162-3.565668-6.560161-7.211646-9.707034-10.933823-.78673-.930554-1.567797-1.865837-2.3432-2.805849-.880433,1.941024-.691038,1.938303.568183-.008163,1.490856-1.201755,2.545546-3.06499,4.455105-3.744704,3.795673-1.351082,7.45195,3.07255,9.782712,5.589925,3.047172,3.291145,5.937337,6.738536,8.893842,10.111029,3.016725,3.441185,6.362503,6.775451,9.022163,10.506318.660581.919562,1.261145,1.876774,1.801691,2.871635.813019,1.973916.959776,2.23363.440271.779142-.920367,1.52138-4.247314,3.071964-5.708718,4.128956-6.199063,4.483609-.216068,14.898515,6.05663,10.361648,4.738251-3.427044,12.204987-6.872561,12.079841-13.66289-.120466-6.536384-5.567283-12.428211-9.575719-17.046937-4.801578-5.532626-9.547768-11.158759-14.524719-16.534183-4.341958-4.689591-10.003201-9.437376-16.740068-9.513783-6.582179-.074652-12.18665,4.605552-16.003827,9.574355-4.600716,5.988731-2.913756,10.396838,1.551009,15.776168,9.540472,11.494747,19.941824,22.226736,31.042299,32.219105,5.726258,5.154634,14.239664-3.305331,8.485281-8.485281h0Z" style="fill: #fff; stroke-width: 0px;"/>
  <path d="m86.456294,86.065145c5.603926-2.602311,13.115102-4.772802,15.434816-11.195838,1.010357-2.797569.871666-6.03895-.681794-8.632956-.261551-.436744-2.513301-2.388854-2.571335-2.912705-.121139-1.093472,2.012126-2.573213,2.64755-3.110042,5.146039-4.347556,11.615187-7.377932,17.634349-10.29529,6.463746-3.132838,12.955347-6.298453,19.642909-8.929283,10.622927-4.178967,28.624935-10.726354,38.656812-2.213799,4.80043,4.073408,8.802644,9.759703,12.434524,14.855874,1.744973,2.448506,3.386659,4.970616,4.812983,7.619029.716844,1.331042,3.91786,6.964386,3.445908,8.254924l4.190637-4.190637-.584251.230672,6.775862,2.757359c-5.711661-8.356259-15.200323-13.834439-24.342678-17.770998-9.768619-4.206219-20.827617-5.258153-30.183785.575963-2.927361,1.82538-3.574504,5.200103-2.152509,8.209139,1.086241,2.298558,3.018461,5.385165,3.283017,7.916952.195763,1.873442.684518.78192-.251815,2.092154-.69316.969956-2.528575,1.635274-3.592951,2.241378-5.056061,2.879155-10.514659,5.001681-15.820144,7.363878-11.678448,5.199673-23.139092,10.86393-34.397113,16.9186-6.803837,3.659168-.750949,14.022828,6.05663,10.361648,14.42902-7.760063,29.294181-14.342883,44.143951-21.218154,5.505829-2.549135,14.192536-6.134448,16.270529-12.431721,1.974402-5.983345-2.863389-14.080891-5.330455-19.301366l-2.152509,8.209139c6.78826-4.232876,14.550251-2.397679,21.345385.923643,5.882367,2.875181,12.971866,6.42017,16.7628,11.966373,1.374654,2.011142,4.227636,3.763442,6.775862,2.757359,15.159058-5.985051-6.182264-31.782095-11.676155-38.602477-4.979244-6.181474-10.207791-12.113984-18.148435-14.34506-7.806491-2.193383-16.589265-1.149864-24.379608.527674-8.3014,1.787587-16.211195,4.993183-23.945042,8.438548-8.100688,3.60879-16.335795,7.314834-23.987921,11.814627-6.376591,3.749722-14.531347,8.651763-15.724934,16.630066-.505296,3.377555.228794,7.361168,2.820058,9.822072,1.307349,1.474503,1.467636,1.360661.480862-.341525-.818571.474952-1.660297.904535-2.525178,1.288749-2.380833,1.169059-4.817746,2.23723-7.223464,3.354381-6.997465,3.249433-.909843,13.596689,6.05663,10.361648h0Z" style="fill: #fff; stroke-width: 0px;"/>
  <path d="m120.719296,91.147827c8.709034,21.709713,17.297279,43.467693,25.75364,65.277089,4.009888,10.34171,8.183399,20.652826,11.581206,31.217026,1.592504,4.95129,2.98459,9.964029,4.08969,15.04723.943636,4.340506.731276,10.229945,2.99349,14.091606,4.556053,7.777308,19.852756,2.624834,26.363619.499991,5.074938-1.656224,10.017776-3.755104,14.902912-5.899147,4.011075-1.760426,8.10981-3.957382,9.576267-8.418044,1.395122-4.243673-.699282-8.006867-2.849372-11.504592-3.225994-5.247986-6.530767-10.449845-9.817036-15.660197-6.054457-9.59929-12.157385-19.168022-18.309373-28.705103-6.72117-10.419452-13.386985-20.78984-19.085239-31.818278-5.751909-11.132285-10.814185-22.602711-15.876656-34.059429-3.114712-7.048806-13.457619-.949764-10.361648,6.05663,7.823392,17.704871,15.722997,35.421676,25.974312,51.88683,10.29745,16.539252,21.084516,32.778263,31.44093,49.283172,1.206426,1.922668,2.411016,3.846488,3.613529,5.771606.807351,1.292498,3.872159,4.747597,3.823109,6.205694.080331-2.387987-1.890368-.410892-3.359024.241095-2.557583,1.1354-5.145123,2.216613-7.757808,3.218937-4.199117,1.610938-8.483695,3.025635-12.896245,3.924079-1.987431.404663-4.535631.116938-6.366662.786186l-.897221.016153c-2.210343-.134225-1.384147.645598,2.478588,2.33947.367966-.292945-.596991-3.979643-.670573-4.420992-3.139707-18.832111-10.509011-36.507959-17.376757-54.211519-8.340823-21.500834-16.80996-42.951629-25.39633-64.355568-2.839663-7.078658-14.451125-3.988577-11.571348,3.190075h0Z" style="fill: #fff; stroke-width: 0px;"/>
  <path d="m14.256128,147.458984c9.846967-4.90649,17.991205-10.96075,26.533542-17.799837,7.304641-5.848174,17.089608-8.356126,23.452015-15.308772,5.205223-5.68811-3.258144-14.197338-8.485281-8.485281-2.819786,3.081377-6.484546,4.703905-10.170772,6.52496-4.328475,2.138337-8.194069,4.760718-11.980799,7.747166-8.236209,6.495581-15.958668,12.253085-25.405334,16.960115-6.912658,3.4444-.841564,13.79884,6.05663,10.361648h0Z" style="fill: #fff; stroke-width: 0px;"/>
  <path d="m8.060871,149.206155c12.181888,3.448486,23.340402,9.213015,34.355909,15.34876,5.450907,3.036208,10.880037,6.111924,16.318183,9.170909,4.457157,2.507174,11.319971,8.368331,16.6994,7.641218,4.656103-.629344,7.876383-6.18196,11.077763-9.160186,4.359602-4.055712,9.099539-7.632114,14.004148-10.997821,10.531569-7.227116,21.504311-13.842018,32.29281-20.675392,3.817711-2.418116,3.936176-7.96912,0-10.361648-6.051742-3.678434-12.395452-6.669111-19.024689-9.152975-7.240364-2.712843-10.367609,8.882047-3.190075,11.571348,5.658807,2.12026,10.996627,4.805952,16.158134,7.943275v-10.361648c-10.315885,6.534023-20.771583,12.893536-30.894399,19.725117-4.384103,2.958698-8.664695,6.076618-12.763689,9.420977-2.167992,1.768859-4.271976,3.613313-6.285278,5.556829-1.351913,1.305052-3.667839,4.703888-5.200559,5.418463l4.623353-.60485c-5.600002-1.733183-11.327771-6.261063-16.428623-9.130318-5.335584-3.001294-10.653992-6.036548-16.033887-8.958099-10.38998-5.642276-21.113108-10.736654-32.518426-13.965306-7.443328-2.10708-10.62056,9.467904-3.190075,11.571348h0Z" style="fill: #fff; stroke-width: 0px;"/>
  <path d="m1.3663,146.788284c2.421883,9.896979,4.919561,19.787335,6.796421,29.80611,1.690372,9.023294,2.05754,18.363477,4.649678,27.190107,1.37017,4.66564,2.579145,9.280037,3.768924,13.977918.911546,3.599271,3.025798,5.344642,6.366489,6.801519,9.031196,3.93851,18.073605,7.790683,26.958603,12.059248,8.130593,3.906131,16.330108,9.163297,25.224192,11.121221,3.223047.709514,6.500946,1.042018,9.120065-1.349938,3.148514-2.875435,2.398822-6.767064,1.697351-10.447125-3.762884-19.740872-7.976613-39.240265-9.436568-59.338654-.556197-7.656858-12.56062-7.717748-12,0,.80752,11.116674,2.277205,22.171511,4.151149,33.15666.919829,5.392083,1.935851,10.767261,3.00156,16.132288.929511,4.679376,3.488876,10.844986,2.908583,15.536894l1.757359-4.242641c1.322425-1.679731,2.719201-.223996.307909-1.443482-1.248436-.631384-2.8706-.923465-4.189924-1.46691-2.456166-1.011722-4.812538-2.255695-7.185679-3.44462-4.773866-2.391668-9.57095-4.734533-14.407498-6.997103-5.120621-2.39546-10.278062-4.711713-15.470257-6.947809-2.116144-.911349-5.845952-1.66772-7.505984-3.17787.862863.784957.24732.554839-.003778-.929152-.251081-1.483888-.652391-2.944665-1.060405-4.390796-1.396561-4.949861-3.2111-9.73413-4.087016-14.82294-.937758-5.448097-1.392771-10.97341-2.322913-16.427317-1.926853-11.298146-4.744397-22.420167-7.466915-33.545684-1.834714-7.497523-13.40967-4.32219-11.571348,3.190075h0Z" style="fill: #fff; stroke-width: 0px;"/>
  <path d="m123.650432,137.24433c-.894446,24.109875-1.996879,48.21109-3.30722,72.301941-.419724,7.716693,11.581549,7.693295,12,0,1.310341-24.090851,2.412774-48.192067,3.30722-72.301941.286519-7.72314-11.713923-7.711216-12,0h0Z" style="fill: #fff; stroke-width: 0px;"/>
  <path d="m120.350519,206.32391c-2.237152,3.075791-6.591812,4.713674-9.776768,6.567011-3.733479,2.172524-7.414499,4.434906-11.036766,6.788251-7.678657,4.988734-15.047418,10.412569-22.214202,16.109107-6.043293,4.803529,2.497917,13.244355,8.485281,8.485281,7.812904-6.210109,15.991706-11.950042,24.474377-17.208829,7.140109-4.426473,15.366813-7.72335,20.429725-14.684191,4.548306-6.253324-5.858343-12.248085-10.361648-6.05663h0Z" style="fill: #fff; stroke-width: 0px;"/>
  <path d="m66.334524,121.198543l.312595,9.620307c.101823,3.13368,2.686831,6.148397,6,6,3.163513-.141694,6.109189-2.639622,6-6l-.312595-9.620307c-.101823-3.13368-2.686831-6.148397-6-6-3.163513.141694-6.109189,2.639622-6,6h0Z" style="fill: #fff; stroke-width: 0px;"/>
  <path d="m67.145382,146.273501v10.495627c0,3.242357,2.757643,6,6,6,3.254059,0,6-2.745913,6-6v-10.495627c0-3.242357-2.757643-6-6-6-3.254059,0-6,2.745913-6,6h0Z" style="fill: #fff; stroke-width: 0px;"/>
  <path d="m48.895635,94.365003c-7.399175-3.901622-15.346536-5.783982-23.492257-7.40863-7.541659-1.504169-10.769128,10.059722-3.190075,11.571348,7.065534,1.409206,14.199795,2.810516,20.625703,6.19893,6.826037,3.599403,12.897725-6.754304,6.05663-10.361648h0Z" style="fill: #fff; stroke-width: 0px;"/>
  <path d="m49.952371,67.593185c-13.669061-8.05531-27.338122-16.110621-41.007183-24.165931-6.667931-3.929477-12.712654,6.439189-6.05663,10.361648,13.669061,8.05531,27.338122,16.110621,41.007183,24.165931,6.667931,3.929477,12.712654-6.439189,6.05663-10.361648h0Z" style="fill: #fff; stroke-width: 0px;"/>
  <path d="m68.295599,52.292737c-5.417669-5.1577-10.493604-10.683614-15.005241-16.655443-1.9502-2.581383-5.17809-3.925392-8.209139-2.152509-2.542917,1.487371-4.117614,5.608027-2.152509,8.209139,5.142361,6.806687,10.699977,13.199091,16.881608,19.084095,5.592851,5.324476,14.092248-3.147367,8.485281-8.485281h0Z" style="fill: #fff; stroke-width: 0px;"/>
  <path d="m89.034535,43.770732c-1.28675-7.505587-4.839991-14.170483-8.031257-20.997426-3.026124-6.473661-3.841121-14.156115-7.899898-20.080724-4.337937-6.3321-14.74157-.336754-10.361648,6.05663,3.64038,5.313874,4.528929,12.698618,7.213445,18.603665,2.939511,6.465954,6.293215,12.522051,7.508011,19.607932,1.302278,7.596166,12.868393,4.375564,11.571348-3.190075h0Z" style="fill: #fff; stroke-width: 0px;"/>
  <path d="m109.530395,35.479398c-.495349-5.093926-.5257-10.247401.249888-15.316583.489488-3.199253-.809087-6.451559-4.190637-7.380712-2.83979-.780293-6.887674.968179-7.380712,4.190637-.9464,6.185596-1.285225,12.267809-.67854,18.506658.313622,3.225131,2.53314,6,6,6,3.001626,0,6.315529-2.755253,6-6h0Z" style="fill: #fff; stroke-width: 0px;"/>
</svg>