<?xml version="1.0" encoding="UTF-8"?>
<svg id="Layer_1" data-name="Layer 1" xmlns="http://www.w3.org/2000/svg" viewBox="0 0 256 256">
  <circle cx="128" cy="128" r="128" style="fill: #cf669a; stroke-width: 0px;"/>
  <path d="m198.869568,40.782593c-14.478271-8.217407-22.826111-8.086975-22.826111-8.086975,0,0-37.82605-5.608704-72.652161,15.260864-34.82605,20.869568-39.652161,28.826111-39.652161,28.826111,0,0-28.695679,27.913025-12,48.913025,16.695618,21,44.739136,37.304382,44.739136,37.304382,0,0-39.391296,19.82605-41.347839,38.739136-1.956543,18.913025,9,21.782593,9,21.782593,0,0,21.782593,4.826111,33.782593-7.173889s14.739136-20.869568,14.739136-20.869568c0,0,5.869568-17.086975-.521729-28.826111,0,0,41.478271-9,45.260864,21,0,0,.521729,6-7.565186,10.826111,0,0-4.956543,5.086914,3.521729,2.086914s9.782593-13.956482,9.782593-13.956482c0,0,2.347839-23.347839-26.739136-29.869568,0,0-9.913025-2.478271-29.347839,2.47821l-22.434753-19.304321s-19.695679-13.826111-18.521729-28.434753c1.173889-14.608704,11.739136-24.130432,11.739136-24.130432,0,0,34.565186-36,85.173889-40.434814,0,0,47.648376-2.303589,27.521729,32.217407-20.126587,34.520935-63.652161,32.086914-63.652161,32.086914,0,0-10.826111-.913025-17.608704-7.82605,0,0-4.304321-3.260864-3,2.608704,1.304382,5.869568,13.956543,15.130432,28.956543,14.217346,15-.913025,37.043457-3.130432,52.695618-17.086914,15.652222-13.956543,19.17395-25.956543,20.217407-30.130432,1.043457-4.17395,5.217407-24-9.260864-32.217407Zm-102.652161,159.782593c-10.956543,11.739136-20.608704,11.217407-20.608704,11.217407,0,0-12.370667,1.532227,0-20.606934,0,0,3.652161-7.82782,26.869568-20.610474,0,0,4.695618,18.260864-6.260864,30Z" style="fill: #fff; stroke-width: 0px;"/>
</svg>